<svg width="128" height="115" viewBox="0 0 128 115" fill="none" xmlns="http://www.w3.org/2000/svg">
<path d="M12.0758 59.9126C5.63559 45.437 -2.61599 16.2849 2.81798 8.44403C8.4532 0.402077 20.5287 9.85138 30.7928 22.3164" fill="#EDDACE"/>
<path d="M12.0758 59.9126C5.63559 45.437 -2.61599 16.2849 2.81798 8.44403C8.4532 0.402076 20.5287 9.85138 30.7928 22.3164" stroke="#9C6C86" stroke-miterlimit="10"/>
<path d="M20.3275 34.1783C18.7175 29.7552 13.0822 16.2849 7.24576 11.8618C6.03821 11.0577 4.83067 11.6608 4.62941 13.0681C3.2206 21.3111 5.23318 32.1678 10.6671 47.2465C11.2709 49.0559 12.881 54.0821 13.686 52.6748L19.3212 36.3898C19.5225 35.7867 20.5288 34.9825 20.3275 34.1783Z" fill="#F2A3A6"/>
<path d="M122.968 46.2413C130.012 73.986 109.685 103.339 77.2828 111.582C44.8803 119.825 6.84257 106.154 9.45893 77.6049C12.0753 51.0664 19.1193 19.0996 51.5218 10.8566C83.9243 2.61364 115.924 18.2955 122.968 46.2413Z" fill="#FAEFE7" stroke="#9C6C86" stroke-miterlimit="10"/>
<path d="M123.975 56.2937C130.012 43.0244 126.188 5.83036 117.333 1.80939C108.478 -2.21159 95.7985 10.8566 89.7607 24.1258" fill="#FAEFE7"/>
<path d="M123.975 56.2937C130.012 43.0244 126.188 5.83036 117.333 1.80939C108.478 -2.21159 95.7985 10.8566 89.7607 24.1258" stroke="#9C6C86" stroke-miterlimit="10" stroke-linecap="round"/>
<path d="M29.1824 24.93C20.1258 33.173 13.4843 48.0506 10.8679 74.9912C7.6478 106.757 41.8616 114.799 66.2138 112.386C66.2138 112.386 21.1321 105.752 22.3396 68.5576C22.5409 61.923 21.9371 54.2831 24.5535 41.416C27.5723 27.7447 34.0126 20.708 29.1824 24.93Z" fill="#EDDACE"/>
<path d="M101.233 76.3985C106.667 67.9544 108.075 60.3146 104.251 57.902C100.428 55.4894 90.5659 62.7272 86.742 71.5733C84.7294 76.3985 84.5282 81.6258 84.7294 85.4457C85.132 90.0698 95.7986 84.8426 101.233 76.3985Z" fill="#201600"/>
<path d="M40.2518 76.5997C31.5977 69.764 25.1574 71.7745 22.5411 75.7955C20.126 79.6155 24.3524 87.8585 33.409 92.0805C42.8681 96.5036 57.1574 96.9057 51.3209 88.4616C48.1008 83.8375 44.0757 79.6154 40.2518 76.5997Z" fill="#201600"/>
<path d="M80.1754 69.3988C82.7319 64.9755 84.1801 61.0297 83.41 60.5856C82.6399 60.1415 79.9432 63.3672 77.3867 67.7904C74.8303 72.2136 73.3821 76.1594 74.1521 76.6036C74.9222 77.0477 77.6189 73.822 80.1754 69.3988Z" fill="#9C6C86"/>
<path d="M54.7736 79.3141C55.2868 78.5887 52.3176 75.611 48.1419 72.6634C43.9661 69.7158 40.165 67.9143 39.6518 68.6398C39.1387 69.3653 42.1078 72.3429 46.2835 75.2905C50.4593 78.2382 54.2604 80.0396 54.7736 79.3141Z" fill="#9C6C86"/>
<path d="M73.4589 86.0489C73.6601 86.6521 73.6601 87.2552 73.2576 88.0594C71.8488 90.673 68.6287 91.8793 65.8111 91.0751C64.8048 90.8741 64.201 90.472 63.7985 89.8688C62.7922 88.4615 66.4148 86.0489 67.6224 85.6468C69.0312 85.0437 72.8551 84.4405 73.4589 86.0489Z" fill="#201600"/>
<path d="M83.7235 96.1014C83.7235 97.5088 82.5159 102.937 81.7109 102.937C80.9059 102.937 79.4971 96.7046 79.4971 95.0962" fill="#FCFCFC"/>
<path d="M83.7235 96.1014C83.7235 97.5088 82.5159 102.937 81.7109 102.937C80.9059 102.937 79.4971 96.7046 79.4971 95.0962" stroke="#9C6C86" stroke-width="0.25" stroke-miterlimit="10" stroke-linecap="round"/>
<path d="M68.4278 99.3181C69.2328 100.524 72.0504 106.556 71.4467 106.958C70.8429 107.36 66.8177 104.746 66.0127 103.54" fill="#FCFCFC"/>
<path d="M68.4278 99.3181C69.2328 100.524 72.0504 106.556 71.4467 106.958C70.8429 107.36 66.8177 104.746 66.0127 103.54" stroke="#9C6C86" stroke-width="0.25" stroke-miterlimit="10" stroke-linecap="round"/>
<path d="M64.8057 106.958C65.6107 101.932 68.0258 97.7098 73.0572 95.6993C78.0887 93.6888 83.9252 94.8951 86.7428 98.1119" stroke="#9C6C86" stroke-width="0.25" stroke-miterlimit="10" stroke-linecap="round" stroke-linejoin="round"/>
<path d="M103.849 35.5856C104.654 30.5594 107.673 13.4702 114.515 7.23771C115.723 6.03141 117.735 6.43351 118.54 8.0419C122.968 16.687 124.578 29.7552 121.962 47.4475C121.559 49.458 119.144 50.4632 117.735 49.0559L104.855 37.9982C104.05 37.3951 103.849 36.3898 103.849 35.5856Z" fill="#F2A3A6"/>
<path d="M32.8051 91.2762C34.0127 92.2815 35.6227 93.0857 37.2328 93.6888C40.0504 94.6941 43.2705 94.292 45.6856 92.6836C47.6982 91.0752 48.9057 88.6626 49.5095 86.25C49.912 85.0437 50.1133 83.8374 49.912 82.6311C49.912 81.4248 49.5095 80.4196 48.9057 79.2133C47.8994 76.5997 46.6919 73.986 45.8869 71.1713C45.0818 68.3567 44.8806 65.542 45.8869 62.7273C43.673 66.7483 42.063 69.3619 43.2705 73.986C43.8743 76.1976 45.6856 79.4143 44.8806 81.4248C44.0755 76.5997 38.6416 75.3934 37.6353 70.5682C37.2328 68.9598 37.434 67.1504 38.0378 65.542C38.6416 62.9283 40.0504 60.3147 41.8617 58.3042C39.2454 60.5157 37.0315 63.3304 36.0252 66.7483C35.0189 69.965 34.4152 73.5839 36.0252 76.8007C36.8303 78.208 37.2328 79.0122 38.0378 80.4196C36.629 80.0175 35.6227 79.6154 34.4152 78.8112C33.2076 78.007 32.8051 77.6049 32.2013 76.1976C31.5976 74.5892 31.7988 72.5787 31.7988 70.7692C31.7988 68.9598 30.9938 66.9493 29.3837 66.3462C30.1888 67.3514 30.1888 68.5577 30.1888 69.764C29.9875 73.1818 29.3837 76.5997 28.9812 80.0175C28.78 82.028 29.1825 85.8479 30.5913 88.4615C30.7925 89.0647 31.5976 90.472 32.8051 91.2762Z" fill="#DB3E3E"/>
<path d="M32.6032 91.4773C37.8359 95.0962 44.4774 96.1014 48.1 89.8689C53.534 80.6207 43.6723 72.5787 46.0874 62.9284C46.0874 62.7273 45.6849 62.5263 45.6849 62.7273C44.4774 64.9389 43.0686 67.1504 42.666 69.563C42.0623 72.9808 44.2761 75.5945 44.4774 79.0123C44.6786 81.6259 44.0749 79.0123 43.4711 78.007C42.8673 77.2028 42.0623 76.5997 41.4585 75.7955C39.4459 73.584 37.8359 72.3777 37.6346 68.9598C37.4333 65.1399 39.6472 61.32 41.861 58.5053C42.0623 58.3042 41.6598 57.9021 41.4585 58.1032C36.8296 62.1242 33.0057 68.7588 34.817 75.1924C35.0182 75.5945 36.8296 79.2133 36.8296 79.2133C34.817 82.028 32.2006 71.9756 31.7981 70.7693C31.3956 68.5577 31.1943 67.3514 29.1818 66.1452C28.9805 65.9441 28.7793 66.3462 28.7793 66.5472C31.3956 71.3724 27.773 78.4091 28.3767 83.4354C28.9805 86.4511 30.1881 89.2658 32.6032 91.4773C32.8044 91.6784 33.2069 91.2763 33.0057 91.0752C29.383 87.4563 28.7793 83.0333 29.1818 78.2081C29.383 75.9966 29.7855 73.584 29.9868 71.3724C29.9868 70.9703 29.5843 67.7535 29.9868 67.1504C30.5906 65.7431 31.3956 73.785 31.3956 74.1871C31.5969 75.1924 31.7981 76.3987 32.4019 77.2028C33.6094 79.0123 35.8233 79.8165 37.8359 80.4196C38.0371 80.4196 38.2384 80.2186 38.0371 80.0175C36.6283 77.4039 35.0182 74.7903 35.0182 71.5735C35.0182 68.5577 36.2258 65.1399 38.0371 62.7273C38.6409 61.7221 40.4522 59.5105 40.4522 59.3095C39.4459 61.1189 38.4396 62.5263 37.8359 64.5368C37.0308 67.1504 36.8296 69.764 38.0371 72.3777C39.8484 75.7955 43.4711 77.4039 44.6786 81.4249C44.6786 81.6259 45.0811 81.6259 45.0811 81.4249C45.6849 78.6102 44.2761 76.5997 43.4711 73.785C43.0686 72.3777 42.8673 64.7378 45.2824 64.3357C44.6786 64.5368 45.0811 68.1556 45.0811 68.5577C45.4837 72.5787 47.8988 75.9965 48.905 80.0175C50.1126 84.6417 48.7038 89.8689 44.6786 92.4826C40.6535 94.8952 36.6283 93.4878 33.0057 91.0752C32.6032 90.8742 32.4019 91.2763 32.6032 91.4773Z" fill="#BC4040"/>
<path d="M84.528 81.425C85.7356 82.4302 87.3456 83.2344 88.7544 83.8376C91.3708 84.8428 94.7922 84.4407 97.006 82.8323C99.0186 81.2239 100.226 79.0124 100.83 76.5998C101.232 75.3935 101.434 74.1872 101.232 73.182C101.232 71.9757 100.83 70.9704 100.226 69.7641C99.2199 67.1505 98.0123 64.5369 97.4085 61.9232C96.8048 59.3096 96.4022 56.2939 97.4085 53.6802C95.1947 57.7012 93.5846 60.3148 94.7922 64.7379C95.396 66.9494 97.2073 69.9652 96.4022 71.9757C95.5972 67.3515 90.1633 65.9442 89.157 61.3201C88.7544 59.7117 88.9557 57.9022 89.5595 56.2939C90.1633 53.6802 91.3708 51.0666 93.3834 49.0561C90.767 51.2676 88.5532 54.0823 87.5469 57.2991C86.5406 60.5159 85.9368 64.1348 87.5469 67.1505C88.3519 68.5578 88.7544 69.362 89.5595 70.7694C88.1507 70.3673 87.3456 69.9652 85.9368 69.161C84.528 68.3568 84.3268 67.9547 83.723 66.5473C83.1192 64.939 83.3205 63.1295 83.3205 61.3201C83.3205 59.5106 82.5155 57.5001 80.9054 56.897C81.7104 57.7012 81.7104 59.1085 81.7104 60.3148C81.5092 63.7327 80.9054 66.9494 80.5029 70.3673C80.3016 72.3778 80.5029 76.1977 82.1129 78.6103C82.5155 79.2134 83.3205 80.6208 84.528 81.425Z" fill="#DB3E3E"/>
<path d="M84.3263 81.626C89.3577 85.0438 95.9993 86.0491 99.6219 80.0176C104.855 70.9704 95.1942 62.9285 97.6093 53.4792C97.6093 53.2781 97.2068 53.0771 97.2068 53.2781C95.9993 55.4896 94.5905 57.5001 94.3892 60.1138C93.7854 63.5316 95.798 66.1452 96.2005 69.362C96.4018 71.7746 95.798 69.362 95.1942 68.3568C94.5904 67.5526 93.7854 66.9494 93.1816 66.1452C91.1691 63.9337 89.559 62.7274 89.3577 59.3096C89.1565 55.6907 91.1691 51.6697 93.5842 49.0561C93.7854 48.855 93.3829 48.4529 93.1816 48.654C88.754 52.675 84.9301 59.1085 86.7414 65.341C86.9426 65.7431 88.754 69.362 88.754 69.362C86.7414 72.1767 84.125 62.3253 83.9238 60.918C83.5213 58.7064 83.32 57.5001 81.5087 56.2938C81.3074 56.0928 81.1062 56.4949 81.1062 56.6959C83.5213 61.3201 80.0999 68.3568 80.7037 73.383C80.7037 76.8008 81.9112 79.4145 84.3263 81.626C84.5276 81.827 84.9301 81.425 84.7288 81.2239C81.1062 77.8061 80.5024 73.1819 81.1062 68.5578C81.3074 66.3463 81.7099 64.1347 81.9112 61.9232C81.9112 61.5211 81.7099 58.3043 81.9112 57.9022C82.515 56.4949 83.32 64.5368 83.32 64.9389C83.5213 65.9442 83.7225 67.1505 84.125 67.9547C85.3326 69.7641 87.5464 70.5683 89.3577 71.1715C89.559 71.1715 89.7603 70.9704 89.559 70.7694C88.1502 68.1557 86.5401 65.5421 86.5401 62.5264C86.5401 59.5106 87.7477 56.2938 89.3577 53.6802C89.9615 52.876 91.7728 50.4634 91.7728 50.2624C90.7665 52.0718 89.7603 53.4792 89.1565 55.4896C88.3515 58.1033 88.1502 60.7169 89.3577 63.1295C90.9678 66.5473 94.7917 67.9547 95.798 71.9757C95.798 72.1767 96.2005 72.1767 96.2005 71.9757C96.8043 69.161 95.3955 67.1505 94.5905 64.5368C94.1879 63.1295 93.9867 55.6907 96.4018 55.0875C95.798 55.2886 96.2005 58.9075 96.2005 59.3096C96.603 63.3305 99.0181 66.7484 99.8232 70.5683C101.031 75.1924 99.6219 80.2187 95.5967 82.8323C91.7728 85.2449 87.5464 83.8375 84.125 81.425C84.3263 81.0229 84.125 81.4249 84.3263 81.626Z" fill="#BC4040"/>
</svg>