<svg width="148" height="147" viewBox="0 0 148 147" fill="none" xmlns="http://www.w3.org/2000/svg">
<path d="M141.895 89.8063C146.291 120.472 112.344 143.593 76.1983 145.54C47.6241 147.243 -0.488148 131.18 3.17522 93.2136C6.59436 57.6805 21.9805 17.7666 66.4294 15.5762C119.67 12.899 136.522 51.5961 141.895 89.8063Z" fill="#FCFBFC" stroke="#E5DBDF" stroke-miterlimit="10"/>
<path d="M140.429 89.563C145.069 118.282 112.099 141.646 75.9536 143.593C47.3793 145.296 0.976673 130.207 4.64004 92.2401C4.64004 92.2401 20.7589 138.725 76.9305 135.318C133.102 131.911 140.429 89.563 140.429 89.563Z" fill="#F9F6F7"/>
<path d="M136.767 67.659C146.536 54.76 150.932 13.6292 142.384 7.05802C133.836 0.730205 116.741 11.6822 106.972 24.8246" fill="#FCFBFC"/>
<path d="M136.767 67.659C146.536 54.76 150.932 13.6292 142.384 7.05802C133.836 0.730205 116.741 11.6822 106.972 24.8246" stroke="#E5DBDF" stroke-miterlimit="10" stroke-linecap="round"/>
<path d="M119.915 40.4008C121.868 35.0465 129.439 17.2799 138.232 12.169C139.941 11.1955 141.895 12.169 142.383 13.8726C145.07 24.3378 143.849 38.9405 136.766 57.4372C136.034 59.6276 133.103 60.1143 131.637 58.1673L120.159 43.3213C119.67 42.5912 119.426 41.3743 119.915 40.4008Z" fill="#F2ECEE"/>
<path d="M8.79247 67.659C0.244617 54.0298 -1.9534 8.51826 6.59445 2.6772C15.1423 -3.16386 33.7034 10.7087 42.007 24.3378" fill="#FCFBFC"/>
<path d="M8.79247 67.659C0.244617 54.0298 -1.9534 8.51826 6.59445 2.6772C15.1423 -3.16386 33.7034 10.7087 42.007 24.3378" stroke="#E5DBDF" stroke-miterlimit="10" stroke-linecap="round"/>
<path d="M25.6444 37.4801C23.9348 31.8824 18.3177 13.6291 10.2583 8.03143C8.79293 7.05792 6.83913 7.78806 6.35068 9.4917C2.93154 19.7136 3.41999 34.3162 8.79293 53.2996C9.5256 55.49 11.9678 55.9768 13.4332 54.2731L25.156 39.9139C25.8886 39.4271 26.1329 38.4536 25.6444 37.4801Z" fill="#F2ECEE"/>
<path d="M105.994 91.2667C117.961 85.4256 124.799 77.6376 122.113 72.0399C119.426 66.4422 103.063 68.1458 92.5615 75.6905C86.9443 79.828 83.7694 82.9919 83.0367 87.1293C81.8156 92.9703 94.0268 97.1078 105.994 91.2667Z" fill="#D1BEC5"/>
<path d="M107.459 57.9238C111.91 57.9238 115.518 56.9431 115.518 55.7334C115.518 54.5237 111.91 53.543 107.459 53.543C103.008 53.543 99.3994 54.5237 99.3994 55.7334C99.3994 56.9431 103.008 57.9238 107.459 57.9238Z" fill="#E5DBDF"/>
<path d="M81.0835 101.002C81.0835 101.975 80.8393 102.705 80.1066 103.435C77.4201 106.356 73.0241 106.599 69.8492 104.652C68.8723 103.922 68.1396 103.435 67.8954 102.462C67.1627 100.272 72.2914 98.8113 74.001 98.5679C76.199 98.3245 80.8393 98.5679 81.0835 101.002Z" fill="#D1BEC5"/>
<path opacity="0.7" d="M115.274 70.5795C116.251 72.0397 115.03 74.7169 113.565 75.6904C112.099 76.6639 109.413 76.9073 108.436 75.447C107.459 73.9867 108.68 71.553 110.146 70.5795C111.367 69.6059 114.297 69.1192 115.274 70.5795Z" fill="#FEFDFD"/>
<path opacity="0.7" d="M107.214 73.0133C107.214 73.7435 105.749 74.4736 105.016 74.4736C104.284 74.4736 103.062 73.9869 103.062 73.2567C103.062 72.5266 104.284 71.7965 105.016 71.7965C105.749 71.5531 107.214 72.2832 107.214 73.0133Z" fill="#FEFDFD"/>
<path d="M39.5654 93.9437C27.5984 88.346 20.7601 80.8013 22.9581 75.2037C25.1561 69.606 41.0307 70.8229 51.7766 78.1242C57.3938 82.0182 60.5687 84.452 62.5225 90.0497C64.4763 95.8908 51.5324 99.5414 39.5654 93.9437Z" fill="#D1BEC5"/>
<path d="M38.8323 57.9238C43.9578 57.9238 48.1128 56.9431 48.1128 55.7334C48.1128 54.5237 43.9578 53.543 38.8323 53.543C33.7068 53.543 29.5518 54.5237 29.5518 55.7334C29.5518 56.9431 33.7068 57.9238 38.8323 57.9238Z" fill="#E5DBDF"/>
<path opacity="0.7" d="M29.3071 73.9868C28.3302 75.447 29.5514 78.1242 31.0167 79.0977C32.482 80.0712 35.1685 80.3146 35.9012 78.8543C36.8781 77.3941 35.657 74.9603 34.1916 73.9868C33.2147 72.7699 30.284 72.5265 29.3071 73.9868Z" fill="#FEFDFD"/>
<path opacity="0.7" d="M37.3672 76.1772C37.3672 76.9073 38.5883 77.6374 39.321 77.6374C40.0537 77.6374 41.2748 77.1507 41.2748 76.4205C41.2748 75.6904 40.0537 74.9603 39.321 74.9603C38.5883 74.7169 37.3672 75.447 37.3672 76.1772Z" fill="#FEFDFD"/>
<path d="M71.5585 114.387C71.3143 115.604 70.0931 119.255 69.3605 119.012C68.6278 118.768 67.4067 115.361 67.6509 114.387" fill="#FFFEFE"/>
<path d="M71.5585 114.387C71.3143 115.604 70.0931 119.255 69.3605 119.012C68.6278 118.768 67.4067 115.361 67.6509 114.387" stroke="#E5DBDF" stroke-width="0.25" stroke-miterlimit="10" stroke-linecap="round"/>
<path d="M83.7698 113.901C83.7698 114.874 83.0371 118.038 82.5487 118.282C82.0602 118.525 80.5949 114.631 80.1064 113.657" fill="#FFFEFE"/>
<path d="M83.7698 113.901C83.7698 114.874 83.0371 118.038 82.5487 118.282C82.0602 118.525 80.5949 114.631 80.1064 113.657" stroke="#E5DBDF" stroke-width="0.25" stroke-miterlimit="10" stroke-linecap="round"/>
<path d="M67.1621 113.901C69.8486 115.117 73.0235 113.901 76.1984 111.954C79.3733 113.414 82.5482 114.874 84.7463 113.657" stroke="#E5DBDF" stroke-width="0.5" stroke-miterlimit="10" stroke-linecap="round" stroke-linejoin="round"/>
</svg>