<svg width="1366" height="169" viewBox="0 0 1366 169" fill="none" xmlns="http://www.w3.org/2000/svg">
<path fill-rule="evenodd" clip-rule="evenodd" d="M415.886 48.0001C605.17 47.9525 692.798 72.7625 829.369 86.4222C942.445 97.7319 1082.92 106.059 1145.91 121.016C1213.26 137.011 1258.71 156.028 1189.46 171.935C1121.97 187.442 940.085 192.109 799.042 200.703C674.635 208.284 382.118 199.467 238.5 200.703C86.7584 202.01 -56.4754 298.964 -168 288.16C-276.151 277.683 -96.8709 179.281 -145.029 164.733C-194.52 149.783 -331.431 136.943 -301.862 121.432C-271.718 105.618 -106.544 97.9242 3.85074 86.6299C138.993 72.8038 226.517 48.0477 415.886 48.0001Z" fill="#FFECDC"/>
<path fill-rule="evenodd" clip-rule="evenodd" d="M451.873 266.346C429.671 249.19 485.903 217.446 585.125 189.962C679.491 163.824 818.757 155.098 934.252 132.731C1036.63 112.905 1108.83 79.571 1211.87 68.586C1314.18 57.6793 1315.38 82.4261 1387.63 84.399C1473.56 86.7456 1655.56 62.798 1670.52 81.11C1685.12 98.9856 1547.37 133.682 1449.63 160.304C1374.12 180.871 1275.17 194.848 1185.7 213.16C1097.19 231.274 1021.6 255.338 928.932 266.875C831.83 278.965 767.051 274.42 694.319 274.339C603.081 274.238 473.548 283.095 451.873 266.346Z" fill="#E7FFE6"/>
</svg>