<svg width="127" height="94" viewBox="0 0 127 94" fill="none" xmlns="http://www.w3.org/2000/svg">
<path d="M107.5 50.5C107.5 59.2308 101.618 67.2196 91.9259 73.0526C82.244 78.8797 68.8364 82.5 54 82.5C39.1636 82.5 25.756 78.8797 16.0741 73.0526C6.38243 67.2196 0.5 59.2308 0.5 50.5C0.5 41.7692 6.38243 33.7804 16.0741 27.9474C25.756 22.1203 39.1636 18.5 54 18.5C68.8364 18.5 82.244 22.1203 91.9259 27.9474C101.618 33.7804 107.5 41.7692 107.5 50.5Z" stroke="#F2F2F2"/>
<circle cx="120.5" cy="70.5" r="6" stroke="#F2F2F2"/>
<circle cx="116" cy="90" r="3.5" stroke="#F2F2F2"/>
<path d="M48.5117 59.9492V57.3477C48.5117 55.0977 48.9922 53.1406 49.9531 51.4766C50.9141 49.8125 52.6719 48.043 55.2266 46.168C57.6875 44.4102 59.3047 42.9805 60.0781 41.8789C60.875 40.7773 61.2734 39.5469 61.2734 38.1875C61.2734 36.6641 60.7109 35.5039 59.5859 34.707C58.4609 33.9102 56.8906 33.5117 54.875 33.5117C51.3594 33.5117 47.3516 34.6602 42.8516 36.957L39.0195 29.2578C44.2461 26.3281 49.7891 24.8633 55.6484 24.8633C60.4766 24.8633 64.3086 26.0234 67.1445 28.3438C70.0039 30.6641 71.4336 33.7578 71.4336 37.625C71.4336 40.2031 70.8477 42.4297 69.6758 44.3047C68.5039 46.1797 66.2773 48.2891 62.9961 50.6328C60.7461 52.2969 59.3164 53.5625 58.707 54.4297C58.1211 55.2969 57.8281 56.4336 57.8281 57.8398V59.9492H48.5117ZM47.3867 71.9727C47.3867 70.0039 47.9141 68.5156 48.9688 67.5078C50.0234 66.5 51.5586 65.9961 53.5742 65.9961C55.5195 65.9961 57.0195 66.5117 58.0742 67.543C59.1523 68.5742 59.6914 70.0508 59.6914 71.9727C59.6914 73.8242 59.1523 75.2891 58.0742 76.3672C56.9961 77.4219 55.4961 77.9492 53.5742 77.9492C51.6055 77.9492 50.082 77.4336 49.0039 76.4023C47.9258 75.3477 47.3867 73.8711 47.3867 71.9727Z" fill="black"/>
</svg>
