<svg width="127" height="76" viewBox="0 0 127 76" fill="none" xmlns="http://www.w3.org/2000/svg">
<path d="M107.5 32.5C107.5 41.2308 101.618 49.2196 91.9259 55.0526C82.244 60.8797 68.8364 64.5 54 64.5C39.1636 64.5 25.756 60.8797 16.0741 55.0526C6.38243 49.2196 0.5 41.2308 0.5 32.5C0.5 23.7692 6.38243 15.7804 16.0741 9.94743C25.756 4.12035 39.1636 0.5 54 0.5C68.8364 0.5 82.244 4.12035 91.9259 9.94743C101.618 15.7804 107.5 23.7692 107.5 32.5Z" stroke="#F2F2F2"/>
<circle cx="120.5" cy="52.5" r="6" stroke="#F2F2F2"/>
<circle cx="116" cy="72" r="3.5" stroke="#F2F2F2"/>
<g clip-path="url(#clip0)">
<path d="M58.0169 10.4148C56.4787 10.746 55.0363 12.1064 53.9891 12.1064C52.9419 12.1064 51.4995 10.7459 49.9613 10.4148C46.6984 9.9879 42.0669 12.2675 42.0669 19.2758C42.0669 26.2841 47.142 32.0035 49.317 32.0035C51.7336 32.0035 52.0558 30.8757 53.9891 30.8757C55.9224 30.8757 56.2447 32.0035 58.6613 32.0035C60.8363 32.0035 65.9112 26.2841 65.9112 19.2758C65.9112 12.2675 61.2798 9.9878 58.0169 10.4148V10.4148Z" fill="url(#paint0_radial)"/>
<path d="M59.6789 10.4284C59.1061 10.3478 58.5436 10.3456 58.0169 10.4146C56.4787 10.7457 55.0363 12.1062 53.9891 12.1062C53.9625 12.1062 53.9355 12.1048 53.9084 12.103V13.8085L55.3354 14.0745L65.1563 15.9058L59.6789 10.4284Z" fill="url(#paint1_linear)"/>
<path d="M58.0168 10.4148C56.4787 10.746 55.0363 12.1064 53.9891 12.1064C53.9355 12.1064 53.8805 12.1021 53.8248 12.0952C54.0561 12.648 54.2945 13.0386 54.3795 13.171C54.3775 13.1797 54.3751 13.1882 54.3731 13.197L54.4121 13.2207L54.4512 13.2443L65.1698 23.9581C65.6291 22.5076 65.9113 20.9275 65.9113 19.2758C65.9113 12.2675 61.2798 9.9878 58.0168 10.4148V10.4148Z" fill="url(#paint2_linear)"/>
<path d="M54.4121 13.2207C54.4121 13.2207 49.4925 6.04076 60.3525 4.01459C60.8057 3.93007 61.2434 4.22116 61.3464 4.67051C61.8416 6.83085 62.4404 12.7238 54.4121 13.2207Z" fill="url(#paint3_linear)"/>
<path d="M61.3464 4.67049C61.2893 4.4213 61.1291 4.22125 60.9206 4.10645C57.3226 8.02979 54.4121 13.2207 54.4121 13.2207C62.4404 12.7238 61.8416 6.83084 61.3464 4.67049V4.67049Z" fill="url(#paint4_linear)"/>
<path d="M59.5536 7.33173C59.4696 7.36161 59.3833 7.38547 59.2984 7.41014C59.2136 7.43502 59.1291 7.4599 59.0436 7.47999C58.9587 7.50201 58.87 7.51169 58.7829 7.52281C58.6957 7.53362 58.6138 7.55758 58.5347 7.59428C58.4566 7.63211 58.3797 7.6734 58.303 7.72489C58.3668 7.62263 58.4305 7.52026 58.4943 7.41779L58.8123 6.92134C58.9176 6.75494 59.032 6.5967 59.1399 6.43183C59.3609 6.10678 59.5928 5.79243 59.8472 5.49277L59.7851 5.42578L59.5579 5.62144L59.4436 5.72014C59.4065 5.75389 59.3721 5.78958 59.3361 5.82435C59.1965 5.96617 59.0488 6.10402 58.9169 6.25238C58.6431 6.54317 58.3854 6.8463 58.1254 7.14861C58.0769 7.20806 58.0284 7.2677 57.9797 7.32715C57.98 7.26322 57.9755 7.19969 57.9606 7.13628C57.9409 7.05073 57.9193 6.96417 57.9106 6.87689C57.8999 6.78961 57.8941 6.70192 57.888 6.61373C57.8817 6.52553 57.8742 6.43631 57.8732 6.3472C57.8628 6.16765 57.8693 5.98779 57.8709 5.80253L57.8216 5.79029C57.7418 5.95832 57.6741 6.1341 57.6216 6.31498C57.5943 6.40532 57.5734 6.49708 57.5514 6.58946C57.5343 6.68214 57.5169 6.77554 57.5047 6.86965C57.4917 6.96366 57.4729 7.05838 57.4585 7.15412C57.4462 7.24976 57.45 7.3458 57.4739 7.4394C57.4788 7.45776 57.4841 7.47611 57.4897 7.49436C57.5507 7.69329 57.5067 7.90975 57.3786 8.0737L57.3762 8.07676C57.1534 8.36225 56.9372 8.65182 56.7193 8.94068C56.7175 8.85085 56.708 8.76622 56.6948 8.68261C56.6799 8.59666 56.653 8.5157 56.6121 8.43791C56.5718 8.36001 56.529 8.2816 56.4988 8.19932C56.4665 8.11755 56.4389 8.03404 56.411 7.95013C56.3828 7.86621 56.3533 7.78179 56.3299 7.69573C56.275 7.52444 56.2362 7.34876 56.1913 7.169L56.1405 7.16951C56.1052 7.35223 56.0837 7.53933 56.0782 7.72755C56.0744 7.82186 56.0772 7.91587 56.079 8.01089C56.0856 8.1049 56.0922 8.19973 56.1039 8.29384C56.1148 8.38815 56.1204 8.4845 56.1304 8.58086C56.1424 8.6766 56.1701 8.76857 56.2167 8.85319C56.2377 8.89041 56.2604 8.92711 56.2851 8.9629C56.4055 9.13705 56.3919 9.37136 56.2622 9.53867C56.1509 9.68244 56.0391 9.826 55.9289 9.97048C55.7888 10.1533 55.6586 10.3426 55.536 10.5367C55.5327 10.4594 55.5241 10.3855 55.5127 10.3125C55.4978 10.2265 55.4709 10.1455 55.43 10.0677C55.3896 9.98985 55.3469 9.91144 55.3166 9.82906C55.2844 9.74729 55.2568 9.66378 55.2288 9.57987C55.2007 9.49595 55.1711 9.41153 55.1478 9.32548C55.0928 9.15418 55.0541 8.9785 55.0091 8.79875L54.9583 8.79926C54.9231 8.98197 54.9016 9.16897 54.896 9.35729C54.8923 9.4516 54.895 9.54561 54.8969 9.64064C54.9035 9.73464 54.9101 9.82947 54.9217 9.92358C54.9327 10.0179 54.9383 10.1142 54.9482 10.2106C54.9603 10.3063 54.988 10.3983 55.0346 10.4829C55.0819 10.5665 55.1372 10.6478 55.2067 10.7207C55.2865 10.8042 55.3069 10.9273 55.2539 11.0299C55.1167 11.2954 54.8726 11.7774 54.7604 12.0426C54.6069 12.4132 54.4665 12.7915 54.3727 13.1972L54.4508 13.2446C54.7676 12.9762 55.0443 12.6843 55.3079 12.3847C55.5705 12.0845 55.8175 11.7752 56.0513 11.4578C56.0554 11.4522 56.0595 11.4466 56.0637 11.441C56.1391 11.3386 56.2731 11.3063 56.3908 11.3544C56.4776 11.3899 56.5666 11.4115 56.6552 11.4259C56.7507 11.4403 56.8467 11.4345 56.9406 11.4126C57.0344 11.3887 57.1267 11.3606 57.219 11.3382C57.3114 11.3166 57.4026 11.2901 57.4931 11.2636C57.5828 11.2325 57.672 11.2026 57.7592 11.1664C57.9339 11.096 58.102 11.0111 58.2612 10.9148L58.244 10.867C58.0599 10.887 57.8816 10.9116 57.7019 10.9192C57.6131 10.9272 57.5237 10.9286 57.4352 10.9313C57.3468 10.9341 57.2589 10.9371 57.171 10.9351C57.0833 10.9352 56.9949 10.9224 56.9078 10.9114C56.8208 10.9 56.7354 10.9027 56.6497 10.9185C56.557 10.9371 56.4644 10.9611 56.369 10.9964C56.4805 10.8226 56.5862 10.6451 56.6863 10.464C56.7649 10.3185 56.8732 10.1236 56.9688 9.95264C57.0705 9.77084 57.2773 9.66929 57.4813 9.7115C57.581 9.73209 57.683 9.73801 57.7751 9.753C57.8706 9.76748 57.9666 9.76166 58.0605 9.73974C58.1543 9.71578 58.2467 9.68774 58.339 9.66531C58.4313 9.64369 58.5226 9.61708 58.613 9.59078C58.7028 9.55968 58.792 9.5297 58.8791 9.49351C59.0538 9.42315 59.2219 9.33822 59.3811 9.24187L59.364 9.19415C59.1798 9.21413 59.0015 9.23871 58.8218 9.24635C58.733 9.25431 58.6436 9.25573 58.5551 9.25838C58.4667 9.26124 58.3788 9.2642 58.2909 9.26226C58.2032 9.26236 58.1148 9.24941 58.0278 9.2385C57.9407 9.22708 57.8554 9.22984 57.7696 9.24564C57.6063 9.27837 57.4438 9.3265 57.2632 9.43009C57.4663 9.09402 57.6667 8.75551 57.8748 8.42282L57.8826 8.40966C58.0046 8.20452 58.2285 8.07442 58.4669 8.08869C58.5343 8.09277 58.6009 8.09032 58.6662 8.08431C58.7624 8.07442 58.8538 8.04475 58.9393 8.00009C59.0241 7.95349 59.1065 7.90312 59.1902 7.85836C59.2742 7.81431 59.3559 7.76578 59.437 7.71755C59.5161 7.66494 59.5949 7.61366 59.6703 7.55676C59.8218 7.44491 59.9632 7.32062 60.0933 7.18756L60.0647 7.14555C59.8921 7.21091 59.7256 7.27933 59.5536 7.33173V7.33173Z" fill="url(#paint5_linear)"/>
<path d="M54.5776 13.8817C54.3675 13.8994 54.1506 13.909 53.9302 13.909C53.7746 13.909 53.6219 13.9046 53.4714 13.8951C53.453 12.8265 53.3357 11.5154 52.9832 10.2042C52.7738 9.42327 52.4803 8.64153 52.074 7.91078C51.3866 6.67563 50.6913 6.16379 50.6839 6.15869C50.4376 5.98026 50.3801 5.63583 50.5564 5.38807C50.7334 5.14102 51.0748 5.08127 51.3233 5.25603C51.4244 5.32679 53.2407 6.6483 54.1152 10.1474C54.3769 11.1909 54.554 12.4267 54.5776 13.8817Z" fill="url(#paint6_linear)"/>
<path d="M58.2636 12.5659C58.1045 12.6845 57.941 12.7848 57.7733 12.8734C57.6025 12.958 57.4311 13.0346 57.2546 13.0991C56.9034 13.2304 56.5407 13.3245 56.1756 13.3989C55.4445 13.5464 54.6987 13.6084 53.9526 13.6091C53.2079 13.6064 52.4598 13.5458 51.7294 13.3985C51.3635 13.3259 51.0029 13.2276 50.6512 13.0976C50.4732 13.0357 50.304 12.9558 50.132 12.873C50.0495 12.8273 49.9629 12.7842 49.884 12.7302C49.7985 12.6829 49.7244 12.622 49.6414 12.5659C49.7521 12.757 49.8976 12.9282 50.062 13.0816L57.1569 20.1766C57.3234 20.3575 57.5184 20.5161 57.7233 20.6527C58.0609 20.8783 58.4307 21.0532 58.8118 21.1876C59.5771 21.4553 60.3838 21.5735 61.1895 21.575C61.9934 21.5737 62.8026 21.4539 63.5666 21.1861C63.9471 21.0496 64.318 20.8792 64.6553 20.6526C64.9901 20.427 65.3012 20.1474 65.5005 19.8027L58.2636 12.5659Z" fill="url(#paint7_linear)"/>
<path d="M58.2636 12.5659C58.0644 12.9106 57.7532 13.1902 57.4185 13.4159C57.0812 13.6424 56.7102 13.8128 56.3297 13.9493C55.5658 14.2172 54.7566 14.337 53.9526 14.3382C53.1469 14.3367 52.3403 14.2185 51.575 13.9509C51.1937 13.8166 50.824 13.6415 50.4864 13.416C50.1509 13.1921 49.8407 12.9101 49.6414 12.5659C49.7245 12.622 49.7985 12.6828 49.884 12.7302C49.963 12.7841 50.0495 12.8273 50.132 12.873C50.304 12.9558 50.4731 13.0358 50.6512 13.0976C51.0029 13.2276 51.3635 13.3259 51.7294 13.3985C52.4598 13.5458 53.208 13.6064 53.9527 13.6091C54.6988 13.6085 55.4445 13.5464 56.1757 13.3989C56.5409 13.3245 56.9035 13.2305 57.2547 13.0991C57.4312 13.0346 57.6025 12.9579 57.7734 12.8734C57.941 12.7848 58.1045 12.6845 58.2636 12.5659V12.5659Z" fill="url(#paint8_linear)"/>
<path d="M49.6459 25.7337C53.2036 25.7337 56.0877 22.4692 56.0877 18.4423C56.0877 14.4154 53.2036 11.1509 49.6459 11.1509C46.0882 11.1509 43.2041 14.4154 43.2041 18.4423C43.2041 22.4692 46.0882 25.7337 49.6459 25.7337Z" fill="url(#paint9_linear)"/>
<path d="M74.2671 49.2818V54.7191C74.2671 55.4264 73.6936 55.9998 72.9863 55.9998H37.7112C36.6069 55.9998 35.6067 55.5522 34.8828 54.8283C34.1589 54.1044 33.7112 53.1041 33.7112 51.9999C33.7112 49.7914 35.5017 48.001 37.7112 48.001H72.9864C73.6937 48.0011 74.2671 48.5745 74.2671 49.2818Z" fill="url(#paint10_linear)"/>
<path d="M74.2671 49.2818V54.7191C74.2671 55.4264 73.6936 55.9998 72.9863 55.9998H37.7112C36.6069 55.9998 35.6067 55.5522 34.8828 54.8283C34.1589 54.1044 33.7112 53.1041 33.7112 51.9999C33.7112 49.7914 35.5017 48.001 37.7112 48.001H72.9864C73.6937 48.0011 74.2671 48.5745 74.2671 49.2818Z" fill="url(#paint11_linear)"/>
<path d="M71.3888 55.0305H37.9791C36.3055 55.0305 34.9487 53.6738 34.9487 52.0001C34.9487 50.3265 36.3054 48.9697 37.9791 48.9697H71.5591C72.2095 48.9697 72.7367 49.497 72.7367 50.1474V53.6825C72.7367 54.427 72.1332 55.0305 71.3888 55.0305V55.0305Z" fill="url(#paint12_linear)"/>
<path d="M35.3002 53.417C35.8088 54.3767 36.8174 55.0309 37.9791 55.0309H71.3887C72.1332 55.0309 72.7367 54.4274 72.7367 53.683V53.4171H35.3002V53.417Z" fill="url(#paint13_linear)"/>
<path d="M37.9791 55.0308H71.3887C72.1332 55.0308 72.7367 54.4273 72.7367 53.6828V52.0005H34.9488C34.9488 53.6741 36.3055 55.0308 37.9791 55.0308V55.0308Z" fill="url(#paint14_linear)"/>
<path d="M35.2854 50.6128C35.0708 51.0286 34.9488 51.5001 34.9488 52.0003C34.9488 53.6739 36.3055 55.0307 37.9792 55.0307H71.3888C72.1333 55.0307 72.7368 54.4271 72.7368 53.6827V50.6129H35.2854V50.6128Z" fill="url(#paint15_linear)"/>
<path d="M46.6814 50.6128L51.9962 55.9275H39.4596V50.6128H46.6814Z" fill="url(#paint16_linear)"/>
<path d="M39.1633 50.6128V55.811C39.1633 55.9633 39.3346 56.0527 39.4595 55.9656L42.5659 53.8012C42.78 53.6519 43.0645 53.6519 43.2786 53.8012L46.385 55.9656C46.5101 56.0527 46.6812 55.9633 46.6812 55.811V50.6128H39.1633Z" fill="url(#paint17_linear)"/>
<path d="M34.6229 41.2833V46.7205C34.6229 47.4278 35.1963 48.0013 35.9036 48.0013H70.2889C71.3931 48.0013 72.3933 47.5537 73.1172 46.8297C73.8412 46.1058 74.2888 45.1056 74.2888 44.0013C74.2888 41.7929 72.4983 40.0024 70.2889 40.0024H35.9036C35.1963 40.0025 34.6229 40.576 34.6229 41.2833V41.2833Z" fill="url(#paint18_linear)"/>
<path d="M35.9036 40.0024H49.3392C48.6318 40.0024 48.0584 40.5759 48.0584 41.2832V46.7204C48.0584 47.4277 48.6319 48.0012 49.3392 48.0012H35.9036C35.1962 48.0012 34.6229 47.4277 34.6229 46.7204V41.2832C34.6229 40.5759 35.1963 40.0024 35.9036 40.0024V40.0024Z" fill="url(#paint19_linear)"/>
<path d="M35.0809 47.0319H70.0209C71.6945 47.0319 73.0513 45.6753 73.0513 44.0016C73.0513 42.328 71.6946 40.9712 70.0209 40.9712H34.9105C34.2601 40.9712 33.7328 41.4984 33.7328 42.1488V45.6839C33.7328 46.4284 34.3365 47.0319 35.0809 47.0319V47.0319Z" fill="url(#paint20_linear)"/>
<path d="M72.6998 45.4185C72.1912 46.3782 71.1826 47.0324 70.0209 47.0324H35.0809C34.3364 47.0324 33.7328 46.4289 33.7328 45.6845V45.4186H72.6998V45.4185Z" fill="url(#paint21_linear)"/>
<path d="M70.0209 47.0322H35.0809C34.3364 47.0322 33.7328 46.4287 33.7328 45.6843V44.002H73.0512C73.0512 45.6755 71.6945 47.0322 70.0209 47.0322V47.0322Z" fill="url(#paint22_linear)"/>
<path d="M72.7146 42.6143C72.9292 43.0301 73.0512 43.5015 73.0512 44.0017C73.0512 45.6753 71.6945 47.0321 70.0208 47.0321H35.0809C34.3364 47.0321 33.7328 46.4286 33.7328 45.6842V42.6144H72.7146V42.6143Z" fill="url(#paint23_linear)"/>
<path d="M34.8889 40.9712H48.0982C48.0731 41.0711 48.0584 41.1752 48.0584 41.2829V46.7201C48.0584 46.8278 48.0732 46.9319 48.0982 47.0318H35.0591C34.3146 47.0318 33.7111 46.4283 33.7111 45.6838V42.1487C33.7112 41.4984 34.2385 40.9712 34.8889 40.9712V40.9712Z" fill="url(#paint24_linear)"/>
<path d="M73.3772 33.2843V38.7215C73.3772 39.4288 72.8037 40.0023 72.0964 40.0023H37.7112C36.6069 40.0023 35.6067 39.5546 34.8828 38.8307C34.1589 38.1068 33.7112 37.1066 33.7112 36.0023C33.7112 33.7939 35.5017 32.0034 37.7112 32.0034H72.0964C72.8037 32.0034 73.3772 32.5768 73.3772 33.2843Z" fill="url(#paint25_linear)"/>
<path d="M72.0964 40.0021C72.8038 40.0021 73.3771 39.4287 73.3771 38.7214V33.2841C73.3771 32.5767 72.8037 32.0034 72.0964 32.0034H48.8402L56.839 40.0022H72.0964V40.0021Z" fill="url(#paint26_linear)"/>
<path d="M72.0964 32.0034H58.6608C59.3682 32.0034 59.9416 32.5768 59.9416 33.2841V38.7214C59.9416 39.4287 59.3681 40.0021 58.6608 40.0021H72.0964C72.8038 40.0021 73.3771 39.4287 73.3771 38.7214V33.2841C73.3771 32.5768 72.8037 32.0034 72.0964 32.0034Z" fill="url(#paint27_linear)"/>
<path d="M72.9191 39.0329H37.9791C36.3055 39.0329 34.9487 37.6762 34.9487 36.0025C34.9487 34.329 36.3054 32.9722 37.9791 32.9722H73.0894C73.7398 32.9722 74.2671 33.4994 74.2671 34.1498V37.6849C74.2671 38.4294 73.6636 39.0329 72.9191 39.0329Z" fill="url(#paint28_linear)"/>
<path d="M35.3002 37.4194C35.8088 38.3792 36.8174 39.0334 37.9791 39.0334H72.919C73.6636 39.0334 74.2671 38.4299 74.2671 37.6855V37.4195H35.3002V37.4194Z" fill="url(#paint29_linear)"/>
<path d="M37.9791 39.0332H72.919C73.6635 39.0332 74.267 38.4297 74.267 37.6853V36.0029H34.9488C34.9488 37.6765 36.3055 39.0332 37.9791 39.0332V39.0332Z" fill="url(#paint30_linear)"/>
<path d="M35.2854 34.6157C35.0708 35.0315 34.9488 35.503 34.9488 36.0032C34.9488 37.6768 36.3055 39.0336 37.9792 39.0336H72.9191C73.6636 39.0336 74.2671 38.4301 74.2671 37.6857V34.6158H35.2854V34.6157Z" fill="url(#paint31_linear)"/>
<path d="M49.8091 32.9723L55.8698 39.0329H72.919C73.0715 39.0329 73.2174 39.0064 73.354 38.9598C73.3686 38.8824 73.377 38.8029 73.377 38.7212V33.284C73.377 33.1865 73.3652 33.092 73.3446 33.0007C73.2623 32.9826 73.1771 32.9722 73.0894 32.9722H49.8091V32.9723Z" fill="url(#paint32_linear)"/>
<path d="M73.1111 32.9727H59.9018C59.9269 33.0726 59.9416 33.1767 59.9416 33.2844V38.7216C59.9416 38.8293 59.9268 38.9334 59.9018 39.0333H72.9407C73.6853 39.0333 74.2888 38.4298 74.2888 37.6853V34.1502C74.2888 33.4999 73.7615 32.9727 73.1111 32.9727V32.9727Z" fill="url(#paint33_linear)"/>
</g>
<defs>
<radialGradient id="paint0_radial" cx="0" cy="0" r="1" gradientUnits="userSpaceOnUse" gradientTransform="translate(48.4343 15.9431) scale(17.504)">
<stop stop-color="#FF7044"/>
<stop offset="0.2389" stop-color="#FF6C41"/>
<stop offset="0.473" stop-color="#FE603A"/>
<stop offset="0.7053" stop-color="#FC4D2C"/>
<stop offset="0.9351" stop-color="#FA311A"/>
<stop offset="1" stop-color="#F92814"/>
</radialGradient>
<linearGradient id="paint1_linear" x1="59.2425" y1="13.8497" x2="57.8903" y2="9.15034" gradientUnits="userSpaceOnUse">
<stop stop-color="#FF1D25" stop-opacity="0"/>
<stop offset="1" stop-color="#FF1D25"/>
</linearGradient>
<linearGradient id="paint2_linear" x1="60.5302" y1="15.3199" x2="55.8795" y2="7.16878" gradientUnits="userSpaceOnUse">
<stop stop-color="#F92814" stop-opacity="0"/>
<stop offset="1" stop-color="#C1272D"/>
</linearGradient>
<linearGradient id="paint3_linear" x1="56.8881" y1="8.05746" x2="62.3158" y2="12.1832" gradientUnits="userSpaceOnUse">
<stop stop-color="#92F37F"/>
<stop offset="1" stop-color="#4AB272"/>
</linearGradient>
<linearGradient id="paint4_linear" x1="60.072" y1="9.99596" x2="55.3617" y2="7.37398" gradientUnits="userSpaceOnUse">
<stop stop-color="#4AB272" stop-opacity="0"/>
<stop offset="1" stop-color="#009245"/>
</linearGradient>
<linearGradient id="paint5_linear" x1="56.0496" y1="8.44968" x2="57.3681" y2="9.54182" gradientUnits="userSpaceOnUse">
<stop stop-color="#4AB272" stop-opacity="0"/>
<stop offset="1" stop-color="#009245"/>
</linearGradient>
<linearGradient id="paint6_linear" x1="50.4541" y1="9.53237" x2="54.5776" y2="9.53237" gradientUnits="userSpaceOnUse">
<stop stop-color="#7E8595"/>
<stop offset="1" stop-color="#555A66"/>
</linearGradient>
<linearGradient id="paint7_linear" x1="58.5375" y1="18.274" x2="53.8589" y2="8.15979" gradientUnits="userSpaceOnUse">
<stop stop-color="#F92814" stop-opacity="0"/>
<stop offset="1" stop-color="#C1272D"/>
</linearGradient>
<linearGradient id="paint8_linear" x1="53.9525" y1="12.0311" x2="53.9525" y2="14.625" gradientUnits="userSpaceOnUse">
<stop stop-color="#7E8595"/>
<stop offset="1" stop-color="#555A66"/>
</linearGradient>
<linearGradient id="paint9_linear" x1="50.7552" y1="19.1901" x2="38.0884" y2="10.6522" gradientUnits="userSpaceOnUse">
<stop stop-color="#FF7044" stop-opacity="0"/>
<stop offset="0.2503" stop-color="#FF813A" stop-opacity="0.25"/>
<stop offset="0.7194" stop-color="#FF9A2B" stop-opacity="0.719"/>
<stop offset="1" stop-color="#FFA425"/>
</linearGradient>
<linearGradient id="paint10_linear" x1="47.3675" y1="44.3889" x2="69.2633" y2="66.8889" gradientUnits="userSpaceOnUse">
<stop stop-color="#18CFFC"/>
<stop offset="1" stop-color="#4A98F7"/>
</linearGradient>
<linearGradient id="paint11_linear" x1="53.8655" y1="49.2791" x2="54.7832" y2="59.832" gradientUnits="userSpaceOnUse">
<stop stop-color="#0469BC" stop-opacity="0"/>
<stop offset="1" stop-color="#0469BC"/>
</linearGradient>
<linearGradient id="paint12_linear" x1="53.8428" y1="49.882" x2="53.8428" y2="54.9345" gradientUnits="userSpaceOnUse">
<stop stop-color="#F9F7FC"/>
<stop offset="1" stop-color="#F0DDFC"/>
</linearGradient>
<linearGradient id="paint13_linear" x1="53.9591" y1="55.0908" x2="54.2311" y2="48.0893" gradientUnits="userSpaceOnUse">
<stop stop-color="#F0DDFC" stop-opacity="0"/>
<stop offset="0.2889" stop-color="#C8B7E0" stop-opacity="0.289"/>
<stop offset="0.5915" stop-color="#A595C8" stop-opacity="0.592"/>
<stop offset="0.8395" stop-color="#8F81B8" stop-opacity="0.84"/>
<stop offset="1" stop-color="#8779B3"/>
</linearGradient>
<linearGradient id="paint14_linear" x1="53.8428" y1="53.4848" x2="53.8428" y2="49.9503" gradientUnits="userSpaceOnUse">
<stop stop-color="#F0DDFC" stop-opacity="0"/>
<stop offset="0.2889" stop-color="#C8B7E0" stop-opacity="0.289"/>
<stop offset="0.5915" stop-color="#A595C8" stop-opacity="0.592"/>
<stop offset="0.8395" stop-color="#8F81B8" stop-opacity="0.84"/>
<stop offset="1" stop-color="#8779B3"/>
</linearGradient>
<linearGradient id="paint15_linear" x1="53.8756" y1="51.7115" x2="53.9436" y2="49.4004" gradientUnits="userSpaceOnUse">
<stop stop-color="#F0DDFC" stop-opacity="0"/>
<stop offset="0.2889" stop-color="#C8B7E0" stop-opacity="0.289"/>
<stop offset="0.5915" stop-color="#A595C8" stop-opacity="0.592"/>
<stop offset="0.8395" stop-color="#8F81B8" stop-opacity="0.84"/>
<stop offset="1" stop-color="#8779B3"/>
</linearGradient>
<linearGradient id="paint16_linear" x1="45.7725" y1="56.1033" x2="44.5234" y2="51.1837" gradientUnits="userSpaceOnUse">
<stop stop-color="#F0DDFC" stop-opacity="0"/>
<stop offset="0.2889" stop-color="#C8B7E0" stop-opacity="0.289"/>
<stop offset="0.5915" stop-color="#A595C8" stop-opacity="0.592"/>
<stop offset="0.8395" stop-color="#8F81B8" stop-opacity="0.84"/>
<stop offset="1" stop-color="#8779B3"/>
</linearGradient>
<linearGradient id="paint17_linear" x1="41.2145" y1="51.0225" x2="46.302" y2="57.6403" gradientUnits="userSpaceOnUse">
<stop stop-color="#FF7044"/>
<stop offset="1" stop-color="#F92814"/>
</linearGradient>
<linearGradient id="paint18_linear" x1="56.8396" y1="37.777" x2="50.8232" y2="50.8125" gradientUnits="userSpaceOnUse">
<stop stop-color="#92F37F"/>
<stop offset="1" stop-color="#4AB272"/>
</linearGradient>
<linearGradient id="paint19_linear" x1="37.3034" y1="44.0019" x2="54.9133" y2="44.0019" gradientUnits="userSpaceOnUse">
<stop stop-color="#4AB272" stop-opacity="0"/>
<stop offset="1" stop-color="#009245"/>
</linearGradient>
<linearGradient id="paint20_linear" x1="53.392" y1="41.8834" x2="53.392" y2="46.936" gradientUnits="userSpaceOnUse">
<stop stop-color="#F9F7FC"/>
<stop offset="1" stop-color="#F0DDFC"/>
</linearGradient>
<linearGradient id="paint21_linear" x1="53.2764" y1="47.1106" x2="52.9991" y2="39.969" gradientUnits="userSpaceOnUse">
<stop stop-color="#F0DDFC" stop-opacity="0"/>
<stop offset="0.2889" stop-color="#C8B7E0" stop-opacity="0.289"/>
<stop offset="0.5915" stop-color="#A595C8" stop-opacity="0.592"/>
<stop offset="0.8395" stop-color="#8F81B8" stop-opacity="0.84"/>
<stop offset="1" stop-color="#8779B3"/>
</linearGradient>
<linearGradient id="paint22_linear" x1="53.392" y1="45.4863" x2="53.392" y2="41.9517" gradientUnits="userSpaceOnUse">
<stop stop-color="#F0DDFC" stop-opacity="0"/>
<stop offset="0.2889" stop-color="#C8B7E0" stop-opacity="0.289"/>
<stop offset="0.5915" stop-color="#A595C8" stop-opacity="0.592"/>
<stop offset="0.8395" stop-color="#8F81B8" stop-opacity="0.84"/>
<stop offset="1" stop-color="#8779B3"/>
</linearGradient>
<linearGradient id="paint23_linear" x1="53.359" y1="43.7041" x2="53.2904" y2="41.3739" gradientUnits="userSpaceOnUse">
<stop stop-color="#F0DDFC" stop-opacity="0"/>
<stop offset="0.2889" stop-color="#C8B7E0" stop-opacity="0.289"/>
<stop offset="0.5915" stop-color="#A595C8" stop-opacity="0.592"/>
<stop offset="0.8395" stop-color="#8F81B8" stop-opacity="0.84"/>
<stop offset="1" stop-color="#8779B3"/>
</linearGradient>
<linearGradient id="paint24_linear" x1="37.4592" y1="44.0016" x2="62.5313" y2="44.0016" gradientUnits="userSpaceOnUse">
<stop stop-color="#F0DDFC" stop-opacity="0"/>
<stop offset="0.2889" stop-color="#C8B7E0" stop-opacity="0.289"/>
<stop offset="0.5915" stop-color="#A595C8" stop-opacity="0.592"/>
<stop offset="0.8395" stop-color="#8F81B8" stop-opacity="0.84"/>
<stop offset="1" stop-color="#8779B3"/>
</linearGradient>
<linearGradient id="paint25_linear" x1="51.1604" y1="29.7779" x2="57.1768" y2="42.8134" gradientUnits="userSpaceOnUse">
<stop stop-color="#FFDA45"/>
<stop offset="1" stop-color="#FFA425"/>
</linearGradient>
<linearGradient id="paint26_linear" x1="63.3697" y1="39.2709" x2="56.5383" y2="18.9297" gradientUnits="userSpaceOnUse">
<stop stop-color="#FFDA45" stop-opacity="0"/>
<stop offset="1" stop-color="#B53759"/>
</linearGradient>
<linearGradient id="paint27_linear" x1="70.6966" y1="36.0028" x2="53.0867" y2="36.0028" gradientUnits="userSpaceOnUse">
<stop stop-color="#FFDA45" stop-opacity="0"/>
<stop offset="1" stop-color="#B53759"/>
</linearGradient>
<linearGradient id="paint28_linear" x1="54.608" y1="33.8844" x2="54.608" y2="38.937" gradientUnits="userSpaceOnUse">
<stop stop-color="#F9F7FC"/>
<stop offset="1" stop-color="#F0DDFC"/>
</linearGradient>
<linearGradient id="paint29_linear" x1="54.7236" y1="39.1116" x2="55.001" y2="31.9699" gradientUnits="userSpaceOnUse">
<stop stop-color="#F0DDFC" stop-opacity="0"/>
<stop offset="0.2889" stop-color="#C8B7E0" stop-opacity="0.289"/>
<stop offset="0.5915" stop-color="#A595C8" stop-opacity="0.592"/>
<stop offset="0.8395" stop-color="#8F81B8" stop-opacity="0.84"/>
<stop offset="1" stop-color="#8779B3"/>
</linearGradient>
<linearGradient id="paint30_linear" x1="54.608" y1="37.4874" x2="54.608" y2="33.9527" gradientUnits="userSpaceOnUse">
<stop stop-color="#F0DDFC" stop-opacity="0"/>
<stop offset="0.2889" stop-color="#C8B7E0" stop-opacity="0.289"/>
<stop offset="0.5915" stop-color="#A595C8" stop-opacity="0.592"/>
<stop offset="0.8395" stop-color="#8F81B8" stop-opacity="0.84"/>
<stop offset="1" stop-color="#8779B3"/>
</linearGradient>
<linearGradient id="paint31_linear" x1="54.6411" y1="35.7057" x2="54.7096" y2="33.3754" gradientUnits="userSpaceOnUse">
<stop stop-color="#F0DDFC" stop-opacity="0"/>
<stop offset="0.2889" stop-color="#C8B7E0" stop-opacity="0.289"/>
<stop offset="0.5915" stop-color="#A595C8" stop-opacity="0.592"/>
<stop offset="0.8395" stop-color="#8F81B8" stop-opacity="0.84"/>
<stop offset="1" stop-color="#8779B3"/>
</linearGradient>
<linearGradient id="paint32_linear" x1="65.2879" y1="39.0473" x2="50.5546" y2="14.9846" gradientUnits="userSpaceOnUse">
<stop stop-color="#F0DDFC" stop-opacity="0"/>
<stop offset="0.2889" stop-color="#C8B7E0" stop-opacity="0.289"/>
<stop offset="0.5915" stop-color="#A595C8" stop-opacity="0.592"/>
<stop offset="0.8395" stop-color="#8F81B8" stop-opacity="0.84"/>
<stop offset="1" stop-color="#8779B3"/>
</linearGradient>
<linearGradient id="paint33_linear" x1="70.5408" y1="36.003" x2="45.4687" y2="36.003" gradientUnits="userSpaceOnUse">
<stop stop-color="#F0DDFC" stop-opacity="0"/>
<stop offset="0.2889" stop-color="#C8B7E0" stop-opacity="0.289"/>
<stop offset="0.5915" stop-color="#A595C8" stop-opacity="0.592"/>
<stop offset="0.8395" stop-color="#8F81B8" stop-opacity="0.84"/>
<stop offset="1" stop-color="#8779B3"/>
</linearGradient>
<clipPath id="clip0">
<rect x="28" y="4" width="52" height="52" fill="white"/>
</clipPath>
</defs>
</svg>
