<svg width="127" height="76" viewBox="0 0 127 76" fill="none" xmlns="http://www.w3.org/2000/svg">
<path d="M107.5 32.5C107.5 41.2308 101.618 49.2196 91.9259 55.0526C82.244 60.8797 68.8364 64.5 54 64.5C39.1636 64.5 25.756 60.8797 16.0741 55.0526C6.38243 49.2196 0.5 41.2308 0.5 32.5C0.5 23.7692 6.38243 15.7804 16.0741 9.94743C25.756 4.12035 39.1636 0.5 54 0.5C68.8364 0.5 82.244 4.12035 91.9259 9.94743C101.618 15.7804 107.5 23.7692 107.5 32.5Z" stroke="#F2F2F2"/>
<circle cx="120.5" cy="52.5" r="6" stroke="#F2F2F2"/>
<circle cx="116" cy="72" r="3.5" stroke="#F2F2F2"/>
<g clip-path="url(#clip0)">
<path d="M32.5614 12.3817C32.0724 11.3711 32.4952 10.1555 33.5059 9.66667C33.8358 9.50712 34.1871 9.44628 34.5282 9.46964C34.85 8.75434 35.4149 8.14374 36.1761 7.77548C37.8967 6.94297 39.9665 7.66305 40.799 9.38372C41.0002 9.79962 41.11 10.2359 41.1375 10.6701C41.9055 10.6445 42.6531 11.063 43.0094 11.7992C43.4914 12.7954 43.0746 13.9936 42.0783 14.4757C41.1735 14.9134 40.1039 14.608 39.5538 13.8023C39.4382 13.8764 39.3176 13.9451 39.1908 14.0065C37.8305 14.6647 36.2525 14.3517 35.2397 13.3418C34.2365 13.8033 33.0445 13.3801 32.5614 12.3817Z" fill="url(#paint0_linear)"/>
<path d="M33.0725 8.68039C34.0108 8.68039 34.7714 7.91979 34.7714 6.98155C34.7714 6.04331 34.0108 5.28271 33.0725 5.28271C32.1343 5.28271 31.3737 6.04331 31.3737 6.98155C31.3737 7.91979 32.1343 8.68039 33.0725 8.68039Z" fill="url(#paint1_linear)"/>
<path d="M43.1648 22.3803H39.0675C38.4876 22.3803 38.0176 21.9102 38.0176 21.3304V14.795C38.0176 14.2151 38.4876 13.7451 39.0675 13.7451H43.1648C43.7446 13.7451 44.2146 14.2151 44.2146 14.795V21.3304C44.2147 21.9102 43.7447 22.3803 43.1648 22.3803Z" fill="url(#paint2_linear)"/>
<path d="M41.8667 41.0151H29.6314V56.7171H41.8667V41.0151Z" fill="url(#paint3_linear)"/>
<path d="M42.3765 44.3797H29.6588C29.1377 44.3797 28.7646 43.8765 28.9159 43.3777L30.1779 39.2207C30.2772 38.8935 30.5789 38.6699 30.9208 38.6699H42.3766V44.3797H42.3765Z" fill="url(#paint4_linear)"/>
<path d="M78.3687 41.0151H66.1334V56.7171H78.3687V41.0151Z" fill="url(#paint5_linear)"/>
<path d="M78.3686 52.6035L70.148 44.3828H66.1334V56.7171H78.3686V52.6035Z" fill="url(#paint6_linear)"/>
<path d="M65.6235 44.3797H78.3412C78.8623 44.3797 79.2353 43.8765 79.0841 43.3777L77.8221 39.2207C77.7227 38.8935 77.4211 38.6699 77.0791 38.6699H65.6235V44.3797Z" fill="url(#paint7_linear)"/>
<path d="M70.1546 24.23V56.7167H37.8494V24.23L54 8.39551L70.1546 24.23Z" fill="url(#paint8_linear)"/>
<path d="M37.8494 24.23V26.0913L68.4749 56.7167H70.1546V24.23L54 8.39551L37.8494 24.23Z" fill="url(#paint9_linear)"/>
<path d="M70.1546 34.0483V56.7171H59.9555L37.8494 34.611V34.0483H70.1546Z" fill="url(#paint10_linear)"/>
<path d="M65.1631 56.7171H49.3636L40.6786 48.0321C40.2962 47.7841 40.0418 47.354 40.0418 46.8661V39.8761C40.0418 39.1103 40.6653 38.4868 41.4311 38.4868H46.4705C46.9595 38.4868 47.3896 38.7413 47.6375 39.1236L47.5998 39.1536L65.1631 56.7171Z" fill="url(#paint11_linear)"/>
<path d="M46.4705 47.4405H41.4314C41.1136 47.4405 40.8561 47.1829 40.8561 46.8652V39.8761C40.8561 39.5583 41.1137 39.3008 41.4314 39.3008H46.4705C46.7882 39.3008 47.0458 39.5584 47.0458 39.8761V46.8652C47.0459 47.1829 46.7882 47.4405 46.4705 47.4405Z" fill="#503837"/>
<path d="M46.4705 48.2554H41.4315C40.6652 48.2554 40.0417 47.6319 40.0417 46.8656V39.8766C40.0417 39.1103 40.6652 38.4868 41.4315 38.4868H46.4705C47.2368 38.4868 47.8603 39.1103 47.8603 39.8766V46.8656C47.8604 47.6319 47.2369 48.2554 46.4705 48.2554ZM41.6706 46.6264H46.2314V40.1156H41.6706V46.6264Z" fill="white"/>
<path d="M70.1557 41.37V56.7171H69.66L60.975 48.0321C60.5915 47.7841 60.337 47.354 60.337 46.8661V39.8761C60.337 39.1103 60.9605 38.4868 61.7274 38.4868H66.7657C67.2547 38.4868 67.6848 38.7413 67.9327 39.1236L67.9527 39.1393L67.9393 39.1538L70.1557 41.37Z" fill="url(#paint12_linear)"/>
<path d="M66.7661 47.4405H61.7271C61.4093 47.4405 61.1517 47.1829 61.1517 46.8652V39.8761C61.1517 39.5583 61.4093 39.3008 61.7271 39.3008H66.7661C67.0839 39.3008 67.3415 39.5584 67.3415 39.8761V46.8652C67.3416 47.1829 67.0839 47.4405 66.7661 47.4405Z" fill="#503837"/>
<path d="M66.7662 48.2554H61.7272C60.9609 48.2554 60.3374 47.6319 60.3374 46.8656V39.8766C60.3374 39.1103 60.9609 38.4868 61.7272 38.4868H66.7662C67.5325 38.4868 68.156 39.1103 68.156 39.8766V46.8656C68.156 47.6319 67.5325 48.2554 66.7662 48.2554ZM61.9662 46.6264H66.5269V40.1156H61.9662V46.6264Z" fill="white"/>
<path d="M50.636 56.7166V39.0682C50.636 38.2897 51.267 37.6587 52.0454 37.6587H55.9593C56.7377 37.6587 57.3687 38.2897 57.3687 39.0682V56.7166H50.636Z" fill="#816965"/>
<path d="M58.2023 56.7166H56.535V39.5488C56.535 38.9679 56.0597 38.4924 55.4787 38.4924H52.5258C51.9425 38.4924 51.4695 38.9653 51.4695 39.5488V56.7166H49.8023V38.4462C49.8023 37.551 50.5281 36.8252 51.4234 36.8252H56.5811C57.4764 36.8252 58.2022 37.551 58.2022 38.4462V56.7166H58.2023V56.7166Z" fill="#503837"/>
<path d="M52.808 45.0431C53.2278 45.0431 53.5681 44.7028 53.5681 44.283C53.5681 43.8633 53.2278 43.5229 52.808 43.5229C52.3882 43.5229 52.0479 43.8633 52.0479 44.283C52.0479 44.7028 52.3882 45.0431 52.808 45.0431Z" fill="white"/>
<path d="M70.1558 52.2686H37.8484V56.7162H70.1558V52.2686Z" fill="#654E48"/>
<path d="M37.4947 54.9788C37.4947 55.5926 37.3786 56.1783 37.1665 56.7167H28.3281C28.1161 56.1783 28 55.5926 28 54.9788C28 54.3811 28.1102 53.8097 28.312 53.2833C28.9944 51.4979 30.723 50.2314 32.7474 50.2314C34.7719 50.2314 36.5004 51.498 37.1829 53.2833C37.3846 53.8098 37.4947 54.3812 37.4947 54.9788Z" fill="url(#paint13_linear)"/>
<path d="M40.556 55.456C40.556 55.9012 40.4718 56.3261 40.318 56.7167H33.9065C33.7527 56.3262 33.6685 55.9012 33.6685 55.456C33.6685 55.0224 33.7484 54.6079 33.8949 54.2261C34.3899 52.9309 35.6438 52.0122 37.1124 52.0122C38.581 52.0122 39.8349 52.9309 40.3299 54.2261C40.4761 54.6078 40.556 55.0224 40.556 55.456Z" fill="url(#paint14_linear)"/>
<path d="M80 54.6907C80 55.4062 79.8646 56.089 79.6175 56.7165H69.3146C69.0676 56.0891 68.9321 55.4062 68.9321 54.6907C68.9321 53.994 69.0606 53.328 69.2958 52.7143C70.0914 50.6332 72.1063 49.1567 74.4661 49.1567C76.8259 49.1567 78.8408 50.6332 79.6363 52.7143C79.8715 53.328 80 53.994 80 54.6907Z" fill="url(#paint15_linear)"/>
<path d="M70.1546 28.8776V46.0957L49.374 25.314C48.9662 25.0684 48.692 24.6227 48.692 24.113V20.2089C48.692 17.2826 51.0738 14.9019 54 14.9019C55.5845 14.9019 57.0089 15.6013 57.9826 16.7055L70.1546 28.8776Z" fill="url(#paint16_linear)"/>
<path d="M67.7871 27.2021H40.6315C39.9839 27.2021 39.4572 27.729 39.4572 28.3764V33.5899H40.2729V28.3764C40.2729 28.1787 40.4338 28.0178 40.6315 28.0178H42.2559V33.5898H43.0716V28.0178H45.4947V33.5898H46.3104V28.0178H48.7336V33.5898H49.5492V28.0178H51.9724V33.5898H52.788V28.0178H55.2113V33.5898H56.027V28.0178H58.4501V33.5898H59.2658V28.0178H61.689V33.5898H62.5046V28.0178H64.9278V33.5898H65.7434V28.0178H67.7867C67.9844 28.0178 68.1453 28.1787 68.1453 28.3764V33.5899H68.961V28.3764C68.9614 27.729 68.4346 27.2021 67.7871 27.2021Z" fill="#654E48"/>
<path d="M70.8242 32.7438V35.359C70.8242 35.7477 70.5092 36.0627 70.1205 36.0627H37.8795C37.4908 36.0627 37.1758 35.7477 37.1758 35.359V32.7438C37.1758 32.3551 37.4908 32.04 37.8795 32.04H70.1205C70.5092 32.04 70.8242 32.3551 70.8242 32.7438Z" fill="url(#paint17_linear)"/>
<path d="M75.9385 27.0621L55.0792 6.19591C54.4847 5.60136 53.5206 5.60136 52.9261 6.19591L32.0615 27.0604C31.6725 27.4494 31.6725 28.08 32.0615 28.469L32.9507 29.3581C33.3396 29.7471 33.9702 29.7471 34.3592 29.3581L53.7191 9.99831C53.8756 9.8418 54.1294 9.8418 54.2859 9.99831L73.6407 29.3598C74.0296 29.7488 74.6602 29.7488 75.0492 29.3598L75.9384 28.4706C76.3275 28.0817 76.3275 27.4511 75.9385 27.0621Z" fill="url(#paint18_linear)"/>
<path d="M55.0792 6.19586C54.7819 5.89859 54.3923 5.75 54.0026 5.75V9.88105C54.1052 9.88105 54.2078 9.92026 54.2861 9.99846L73.6407 29.3599C74.0297 29.7489 74.6603 29.7489 75.0493 29.3599L75.9385 28.4708C76.3275 28.0818 76.3275 27.4512 75.9385 27.0622L55.0792 6.19586Z" fill="url(#paint19_linear)"/>
<path d="M57.9033 24.6699H50.0967C49.7889 24.6699 49.5395 24.4203 49.5395 24.1126V20.2093C49.5395 17.7457 51.5366 15.7485 54.0002 15.7485C56.4638 15.7485 58.4609 17.7457 58.4609 20.2093V24.1126C58.4607 24.4203 58.2111 24.6699 57.9033 24.6699Z" fill="#654E48"/>
<path d="M54 14.9014C51.0734 14.9014 48.6924 17.2824 48.6924 20.2089V24.1122C48.6924 24.8866 49.3223 25.5165 50.0967 25.5165H57.9034C58.6778 25.5165 59.3077 24.8866 59.3077 24.1122V20.2089C59.3076 17.2823 56.9267 14.9014 54 14.9014ZM57.5844 19.7573H54.847V16.6965C56.2894 17.0444 57.3968 18.2595 57.5844 19.7573ZM53.153 16.6965V19.7573H50.4156C50.6032 18.2595 51.7105 17.0444 53.153 16.6965ZM50.3863 21.4512H53.153V23.8227H50.3863V21.4512V21.4512ZM54.847 23.8227V21.4512H57.6137V23.8227H54.847Z" fill="white"/>
</g>
<defs>
<linearGradient id="paint0_linear" x1="30.5968" y1="8.54546" x2="50.6022" y2="15.5054" gradientUnits="userSpaceOnUse">
<stop stop-color="#E2EDF2"/>
<stop offset="1" stop-color="#9FC7E2"/>
</linearGradient>
<linearGradient id="paint1_linear" x1="32.5214" y1="6.7909" x2="35.467" y2="7.816" gradientUnits="userSpaceOnUse">
<stop stop-color="#E2EDF2"/>
<stop offset="1" stop-color="#9FC7E2"/>
</linearGradient>
<linearGradient id="paint2_linear" x1="39.4561" y1="16.4045" x2="41.5116" y2="18.459" gradientUnits="userSpaceOnUse">
<stop stop-color="#816965"/>
<stop offset="1" stop-color="#654E48"/>
</linearGradient>
<linearGradient id="paint3_linear" x1="35.7489" y1="43.0047" x2="35.7489" y2="56.9486" gradientUnits="userSpaceOnUse">
<stop stop-color="#FFE7A5"/>
<stop offset="0.966" stop-color="#FFBF5C"/>
</linearGradient>
<linearGradient id="paint4_linear" x1="35.629" y1="39.3934" x2="35.629" y2="44.4648" gradientUnits="userSpaceOnUse">
<stop stop-color="#FF5D00"/>
<stop offset="1" stop-color="#D54003"/>
</linearGradient>
<linearGradient id="paint5_linear" x1="72.25" y1="43.0047" x2="72.25" y2="56.9486" gradientUnits="userSpaceOnUse">
<stop stop-color="#FFE7A5"/>
<stop offset="0.966" stop-color="#FFBF5C"/>
</linearGradient>
<linearGradient id="paint6_linear" x1="71.9645" y1="53.9584" x2="59.2819" y2="42.6563" gradientUnits="userSpaceOnUse">
<stop stop-color="#FF5D00" stop-opacity="0"/>
<stop offset="1" stop-color="#D54003"/>
</linearGradient>
<linearGradient id="paint7_linear" x1="72.3698" y1="39.3934" x2="72.3698" y2="44.4648" gradientUnits="userSpaceOnUse">
<stop stop-color="#FF5D00"/>
<stop offset="1" stop-color="#D54003"/>
</linearGradient>
<linearGradient id="paint8_linear" x1="54.0015" y1="32.8916" x2="54.0015" y2="67.0976" gradientUnits="userSpaceOnUse">
<stop stop-color="#FFE7A5"/>
<stop offset="0.966" stop-color="#FFBF5C"/>
<stop offset="1" stop-color="#DB9E36"/>
</linearGradient>
<linearGradient id="paint9_linear" x1="50.5103" y1="21.6701" x2="41.1586" y2="12.3185" gradientUnits="userSpaceOnUse">
<stop stop-color="#FF5D00" stop-opacity="0"/>
<stop offset="1" stop-color="#D54003"/>
</linearGradient>
<linearGradient id="paint10_linear" x1="55.2176" y1="41.8784" x2="51.5583" y2="19.1651" gradientUnits="userSpaceOnUse">
<stop stop-color="#FF5D00" stop-opacity="0"/>
<stop offset="1" stop-color="#D54003"/>
</linearGradient>
<linearGradient id="paint11_linear" x1="50.2444" y1="49.6649" x2="35.6704" y2="35.0909" gradientUnits="userSpaceOnUse">
<stop stop-color="#FF5D00" stop-opacity="0"/>
<stop offset="1" stop-color="#D54003"/>
</linearGradient>
<linearGradient id="paint12_linear" x1="68.1454" y1="47.2707" x2="58.8141" y2="37.9395" gradientUnits="userSpaceOnUse">
<stop stop-color="#FF5D00" stop-opacity="0"/>
<stop offset="1" stop-color="#D54003"/>
</linearGradient>
<linearGradient id="paint13_linear" x1="30.07" y1="52.0234" x2="35.9282" y2="57.8809" gradientUnits="userSpaceOnUse">
<stop stop-color="#9EB644"/>
<stop offset="1" stop-color="#738611"/>
</linearGradient>
<linearGradient id="paint14_linear" x1="35.1699" y1="53.3118" x2="39.4195" y2="57.5614" gradientUnits="userSpaceOnUse">
<stop stop-color="#9EB644"/>
<stop offset="1" stop-color="#738611"/>
</linearGradient>
<linearGradient id="paint15_linear" x1="71.3445" y1="51.2453" x2="78.1727" y2="58.0745" gradientUnits="userSpaceOnUse">
<stop stop-color="#9EB644"/>
<stop offset="1" stop-color="#738611"/>
</linearGradient>
<linearGradient id="paint16_linear" x1="61.422" y1="28.7768" x2="46.482" y2="13.8368" gradientUnits="userSpaceOnUse">
<stop stop-color="#FF5D00" stop-opacity="0"/>
<stop offset="1" stop-color="#D54003"/>
</linearGradient>
<linearGradient id="paint17_linear" x1="53.9995" y1="32.4686" x2="53.9995" y2="37.8051" gradientUnits="userSpaceOnUse">
<stop stop-color="#FF5D00"/>
<stop offset="1" stop-color="#D54003"/>
</linearGradient>
<linearGradient id="paint18_linear" x1="53.9994" y1="19.8643" x2="53.9994" y2="37.9813" gradientUnits="userSpaceOnUse">
<stop stop-color="#FF5D00"/>
<stop offset="1" stop-color="#D54003"/>
</linearGradient>
<linearGradient id="paint19_linear" x1="69.5819" y1="23.0809" x2="58.6316" y2="12.1307" gradientUnits="userSpaceOnUse">
<stop stop-color="#FF5D00" stop-opacity="0"/>
<stop offset="1" stop-color="#D54003"/>
</linearGradient>
<clipPath id="clip0">
<rect x="28" y="5" width="52" height="52" fill="white"/>
</clipPath>
</defs>
</svg>
