<svg width="127" height="76" viewBox="0 0 127 76" fill="none" xmlns="http://www.w3.org/2000/svg">
<path d="M107.5 32.5C107.5 41.2308 101.618 49.2196 91.9259 55.0526C82.244 60.8797 68.8364 64.5 54 64.5C39.1636 64.5 25.756 60.8797 16.0741 55.0526C6.38243 49.2196 0.5 41.2308 0.5 32.5C0.5 23.7692 6.38243 15.7804 16.0741 9.94743C25.756 4.12035 39.1636 0.5 54 0.5C68.8364 0.5 82.244 4.12035 91.9259 9.94743C101.618 15.7804 107.5 23.7692 107.5 32.5Z" stroke="#F2F2F2"/>
<circle cx="120.5" cy="52.5" r="6" stroke="#F2F2F2"/>
<circle cx="116" cy="72" r="3.5" stroke="#F2F2F2"/>
<g clip-path="url(#clip0)">
<path d="M75.3671 7.38931C73.979 6.58788 72.2037 7.06349 71.4022 8.45165L64.31 20.7359L53.7906 14.6625C52.5772 13.9619 51.0256 14.3777 50.3252 15.5911L42.3434 29.4161C41.8054 30.348 41.6832 31.4629 42.0066 32.4892L42.7625 34.8882L40.7394 38.3922L53.1259 45.5436L54.7264 42.7716C54.9598 42.3672 55.4768 42.2287 55.8811 42.4622C56.9531 43.0811 58.3239 42.7139 58.9427 41.6418L66.7208 28.1698L69.3371 23.6382L76.4294 11.354C77.231 9.96595 76.7554 8.19084 75.3671 7.38931Z" fill="#F2A077"/>
<path d="M75.3672 7.38931C74.9396 7.14241 74.4753 7.01719 74.0141 7.00195C74.5617 7.8823 74.6191 9.02792 74.0645 9.9886L66.9722 22.2729L64.3558 26.8045L56.5777 40.2765C55.9588 41.3485 54.5881 41.7157 53.5161 41.0969C53.1117 40.8635 52.5948 41.002 52.3613 41.4063L50.761 44.1782L53.1261 45.5438L54.7265 42.772C54.9599 42.3675 55.4769 42.229 55.8813 42.4625C56.9533 43.0814 58.3241 42.7142 58.9429 41.6421L66.721 28.1701L69.3373 23.6385L76.4297 11.3542C77.231 9.96595 76.7554 8.19084 75.3672 7.38931Z" fill="#D6774D"/>
<path d="M48.9355 58.9998L55.0714 48.3721C55.4792 47.6657 55.2372 46.7624 54.5308 46.3545L39.3344 37.581C38.628 37.1731 37.7247 37.4151 37.3169 38.1216L31.1811 48.7493L48.9355 58.9998Z" fill="#75DC5E"/>
<path d="M54.5309 46.3551L51.7483 44.7485C52.4546 45.1564 52.6968 46.0596 52.2889 46.7661L46.153 57.3938L48.9355 59.0003L55.0714 48.3726C55.4794 47.6661 55.2372 46.7629 54.5309 46.3551Z" fill="#2AAD52"/>
<path d="M51.2036 8.60751L47.7034 14.6699C46.902 16.058 47.3776 17.8331 48.7658 18.6348C50.1539 19.4362 51.929 18.9606 52.7307 17.5724L56.2308 11.51C57.0322 10.1218 56.5566 8.3467 55.1685 7.54506C53.7802 6.74363 52.0051 7.21925 51.2036 8.60751Z" fill="#FFCCAA"/>
<path d="M56.5876 10.8917L52.4474 18.0628C51.646 19.4509 52.1216 21.226 53.5098 22.0277C54.8979 22.8291 56.673 22.3535 57.4747 20.9653L61.6149 13.7942C62.4163 12.4061 61.9407 10.6309 60.5525 9.82931C59.1644 9.02778 57.3892 9.5034 56.5876 10.8917Z" fill="#E88E6B"/>
<path d="M60.6157 15.5249L57.1155 21.5874C56.3141 22.9756 56.7897 24.7507 58.1778 25.5523C59.566 26.3537 61.3412 25.8781 62.1427 24.49L65.6429 18.4275C66.4443 17.0393 65.9687 15.2642 64.5806 14.4626C63.1923 13.6611 61.4172 14.1368 60.6157 15.5249Z" fill="#FFCCAA"/>
<path d="M39.3421 21.6738C39.0881 22.1139 38.9766 22.6218 39.0231 23.1279L39.6979 30.4709C39.8589 32.2246 40.8617 33.7909 42.3868 34.6715L44.3641 35.813C46.6639 37.1408 49.6049 36.3529 50.9327 34.0529L51.8192 32.5174C54.0594 28.6373 52.7301 23.6759 48.8499 21.4357L48.413 21.1836C47.8714 20.8708 47.6857 20.1782 47.9985 19.6366C48.3112 19.0949 49.0038 18.9093 49.5455 19.222L52.0972 20.6952C54.4799 22.0709 57.5265 21.2544 58.9022 18.8719C59.3451 18.1047 59.0823 17.1237 58.3152 16.6808L49.4095 11.5391C47.6631 10.5309 45.4301 11.1292 44.4219 12.8755L39.3421 21.6738Z" fill="#FFCCAA"/>
<path d="M48.3365 52.618C49.4189 52.618 50.2964 51.7405 50.2964 50.6581C50.2964 49.5757 49.4189 48.6982 48.3365 48.6982C47.2541 48.6982 46.3766 49.5757 46.3766 50.6581C46.3766 51.7405 47.2541 52.618 48.3365 52.618Z" fill="#D2F5FF"/>
</g>
<defs>
<clipPath id="clip0">
<rect x="28" y="7" width="52" height="52" fill="white"/>
</clipPath>
</defs>
</svg>
