<svg width="127" height="76" viewBox="0 0 127 76" fill="none" xmlns="http://www.w3.org/2000/svg">
<path d="M107.5 32.5C107.5 41.2308 101.618 49.2196 91.9259 55.0526C82.244 60.8797 68.8364 64.5 54 64.5C39.1636 64.5 25.756 60.8797 16.0741 55.0526C6.38243 49.2196 0.5 41.2308 0.5 32.5C0.5 23.7692 6.38243 15.7804 16.0741 9.94743C25.756 4.12035 39.1636 0.5 54 0.5C68.8364 0.5 82.244 4.12035 91.9259 9.94743C101.618 15.7804 107.5 23.7692 107.5 32.5Z" stroke="#F2F2F2"/>
<circle cx="120.5" cy="52.5" r="6" stroke="#F2F2F2"/>
<circle cx="116" cy="72" r="3.5" stroke="#F2F2F2"/>
<g clip-path="url(#clip0)">
<path d="M63.5399 44.144H44.4601C40.2722 44.144 36.8773 47.539 36.8773 51.7269V55.2488C36.8773 55.6636 37.2136 55.9998 37.6284 55.9998H70.3717C70.7865 55.9998 71.1228 55.6636 71.1228 55.2488V51.7269C71.1227 47.539 67.7278 44.144 63.5399 44.144Z" fill="url(#paint0_linear)"/>
<path d="M64.0796 44.9883H46.3582C42.4684 44.9883 39.3152 48.1416 39.3152 52.0313V55.3025C39.3152 55.6877 39.6275 56.0001 40.0127 56.0001H70.3717C70.7865 56.0001 71.1227 55.6638 71.1227 55.249V52.0313C71.1227 48.1416 67.9694 44.9883 64.0796 44.9883V44.9883Z" fill="url(#paint1_linear)"/>
<path d="M63.5399 44.144H61.5828C57.3949 44.144 54 47.539 54 51.7269V55.9998H70.3718C70.7865 55.9998 71.1228 55.6636 71.1228 55.2488V51.727C71.1227 47.539 67.7277 44.144 63.5399 44.144V44.144Z" fill="url(#paint2_linear)"/>
<path d="M44.0171 45.1281V46.5184C44.0171 48.388 44.6697 50.199 45.8621 51.639C45.9801 51.7814 46.1064 51.9129 46.2388 52.035L50.2037 55.9998H70.3716C70.7864 55.9998 71.1227 55.6636 71.1227 55.2488V51.8896L63.7978 44.5647C63.6197 44.312 63.3296 44.1446 62.9989 44.144H62.9888H45.0112H45.0011C44.4577 44.144 44.0171 44.5846 44.0171 45.1281V45.1281Z" fill="url(#paint3_linear)"/>
<path d="M66.8737 16.8737C66.8737 9.76374 61.1099 4 54 4C46.8901 4 41.1263 9.76374 41.1263 16.8737C41.1263 21.3145 39.9904 25.6816 37.8264 29.5594L32.6424 38.8494C32.2503 39.5519 32.6331 40.435 33.4138 40.6292L37.3945 41.6194C48.2986 44.3317 59.7011 44.3317 70.6052 41.6194L74.5859 40.6292C75.3666 40.435 75.7494 39.552 75.3573 38.8494L70.1733 29.5594C68.0096 25.6816 66.8737 21.3146 66.8737 16.8737V16.8737Z" fill="url(#paint4_linear)"/>
<path d="M54 50.3062L50.6101 44.1445H45.0113C45.0079 44.1445 45.0045 44.1445 45.0012 44.1445C44.4549 44.1453 44.0172 44.6 44.0172 45.1463V46.5188C44.0172 48.3883 44.6698 50.1994 45.8622 51.6394C47.2406 53.3038 49.6863 53.5853 51.4067 52.2775L54 50.3062Z" fill="url(#paint5_linear)"/>
<path d="M54 50.3062L57.3899 44.1445H62.9888H62.9989C63.5452 44.1453 63.9828 44.6 63.9828 45.1463V46.5188C63.9828 48.3883 63.3302 50.1994 62.1378 51.6394C60.7594 53.3038 58.3138 53.5853 56.5933 52.2775L54 50.3062Z" fill="url(#paint6_linear)"/>
<path d="M57.4571 39.5122V37.4365H50.5429V39.5122C50.5429 42.0703 48.4692 44.144 45.9111 44.144C45.9111 47.5471 48.6699 50.3057 52.0728 50.3057H55.9272C59.3302 50.3057 62.0888 47.547 62.0888 44.144C59.5308 44.144 57.4571 42.0703 57.4571 39.5122Z" fill="url(#paint7_linear)"/>
<path d="M62.0889 44.144C59.5308 44.144 57.4571 42.0702 57.4571 39.5122V37.4365H50.5429V39.5122C50.5429 39.6279 50.5372 39.7422 50.529 39.8556L50.5291 39.8557L59.6929 49.0196C61.1498 47.8926 62.0889 46.1285 62.0889 44.144Z" fill="url(#paint8_linear)"/>
<path d="M54 40.4158C47.9309 40.4158 43.0109 35.4958 43.0109 29.4266V17.8651C43.0109 11.796 47.9309 6.87598 54 6.87598C60.0691 6.87598 64.9891 11.796 64.9891 17.8651V29.4266C64.9891 35.4958 60.0691 40.4158 54 40.4158Z" fill="url(#paint9_radial)"/>
<path d="M54 6.87598C47.9309 6.87598 43.0109 11.796 43.0109 17.8651V23.0447L59.1187 39.1525C62.6094 37.3116 64.9892 33.6473 64.9892 29.4266V17.8651C64.9892 11.796 60.0691 6.87598 54 6.87598V6.87598Z" fill="url(#paint10_linear)"/>
<path d="M54 4C46.8901 4 41.1263 9.76374 41.1263 16.8737C41.1263 19.0783 40.8456 21.2645 40.2989 23.3819C45.6757 23.3503 50.1871 19.668 51.478 14.6875C54.5078 19.8878 60.1429 23.3835 66.5953 23.3835C66.9641 23.3835 67.3297 23.3707 67.6928 23.3482C67.1518 21.2413 66.8737 19.0666 66.8737 16.8738C66.8737 9.76374 61.1099 4 54 4V4Z" fill="url(#paint11_linear)"/>
<path d="M67.6925 23.3484C67.3301 23.3703 66.9641 23.3837 66.5956 23.3837C66.5832 23.3837 66.5707 23.3837 66.5584 23.3837C64.4196 23.3793 62.6253 21.7424 62.409 19.6146C62.3167 18.7069 62.2702 17.7923 62.2702 16.8744C62.2702 13.3189 60.889 10.1013 58.6561 7.7709C56.8673 5.90512 54.532 4.6093 51.922 4.16883C52.598 4.05779 53.2923 4.00049 54 4.00049C57.5555 4.00049 60.773 5.4415 63.1035 7.77079C65.4327 10.1013 66.8738 13.3188 66.8738 16.8743C66.8738 19.0668 67.1519 21.2411 67.6925 23.3484V23.3484Z" fill="url(#paint12_linear)"/>
<path d="M54 5.41064C47.9309 5.41064 43.0109 10.3307 43.0109 16.3998V23.0445C47.1458 22.0285 50.4115 18.8022 51.478 14.6873C54.2534 19.4511 59.2157 22.7822 64.9892 23.3083V16.3998C64.9892 10.3307 60.0691 5.41064 54 5.41064V5.41064Z" fill="url(#paint13_linear)"/>
<path d="M66.5953 23.3834C66.9641 23.3834 67.3298 23.3707 67.6928 23.3481C67.3316 21.9414 67.0883 20.5042 66.966 19.0518C54.6911 18.1064 50.4304 9.86279 50.4304 9.86279C50.4304 12.6157 51.4779 14.6876 51.4779 14.6876C54.5077 19.8878 60.1429 23.3834 66.5953 23.3834Z" fill="url(#paint14_linear)"/>
<path d="M48.4795 26.916C49.557 26.916 50.4304 26.0425 50.4304 24.9651C50.4304 23.8876 49.557 23.0142 48.4795 23.0142C47.402 23.0142 46.5286 23.8876 46.5286 24.9651C46.5286 26.0425 47.402 26.916 48.4795 26.916Z" fill="url(#paint15_linear)"/>
<path d="M48.4795 26.5933C49.3788 26.5933 50.1077 25.8644 50.1077 24.9651C50.1077 24.0659 49.3788 23.3369 48.4795 23.3369C47.5803 23.3369 46.8513 24.0659 46.8513 24.9651C46.8513 25.8644 47.5803 26.5933 48.4795 26.5933Z" fill="url(#paint16_linear)"/>
<path d="M49.3522 23.2197C49.4837 23.4824 49.558 23.7787 49.558 24.0924C49.558 25.1698 48.6846 26.0433 47.6071 26.0433C47.2933 26.0433 46.9969 25.9692 46.7344 25.8376C47.0547 26.4769 47.7157 26.9158 48.4795 26.9158C49.557 26.9158 50.4305 26.0424 50.4305 24.9649C50.4304 24.2011 49.9915 23.54 49.3522 23.2197V23.2197Z" fill="url(#paint17_linear)"/>
<path d="M59.5205 26.916C60.5979 26.916 61.4714 26.0425 61.4714 24.9651C61.4714 23.8876 60.5979 23.0142 59.5205 23.0142C58.443 23.0142 57.5695 23.8876 57.5695 24.9651C57.5695 26.0425 58.443 26.916 59.5205 26.916Z" fill="url(#paint18_linear)"/>
<path d="M59.5205 26.5933C60.4197 26.5933 61.1487 25.8644 61.1487 24.9651C61.1487 24.0659 60.4197 23.3369 59.5205 23.3369C58.6212 23.3369 57.8922 24.0659 57.8922 24.9651C57.8922 25.8644 58.6212 26.5933 59.5205 26.5933Z" fill="url(#paint19_linear)"/>
<path d="M60.3931 23.2197C60.5247 23.4824 60.5989 23.7787 60.5989 24.0924C60.5989 25.1698 59.7255 26.0433 58.648 26.0433C58.3342 26.0433 58.0378 25.9692 57.7753 25.8376C58.0957 26.4769 58.7567 26.9158 59.5205 26.9158C60.5979 26.9158 61.4714 26.0424 61.4714 24.9649C61.4714 24.2011 61.0324 23.54 60.3931 23.2197V23.2197Z" fill="url(#paint20_linear)"/>
<path d="M54.6243 32.552H53.3757C52.3752 32.552 51.5956 31.6841 51.7026 30.6893L52.3554 24.6211H55.6445L56.2973 30.6893C56.4043 31.6842 55.6248 32.552 54.6243 32.552V32.552Z" fill="url(#paint21_linear)"/>
</g>
<defs>
<linearGradient id="paint0_linear" x1="52.7796" y1="50.0726" x2="58.0024" y2="61.4973" gradientUnits="userSpaceOnUse">
<stop stop-color="#FF7044"/>
<stop offset="1" stop-color="#F92814"/>
</linearGradient>
<linearGradient id="paint1_linear" x1="56.1621" y1="52.4738" x2="37.6052" y2="41.0542" gradientUnits="userSpaceOnUse">
<stop stop-color="#FF7044" stop-opacity="0"/>
<stop offset="1" stop-color="#FFA425"/>
</linearGradient>
<linearGradient id="paint2_linear" x1="61.4445" y1="50.5925" x2="65.0009" y2="58.372" gradientUnits="userSpaceOnUse">
<stop stop-color="#FF7044"/>
<stop offset="1" stop-color="#F92814"/>
</linearGradient>
<linearGradient id="paint3_linear" x1="58.7329" y1="53.3936" x2="56.3775" y2="46.2065" gradientUnits="userSpaceOnUse">
<stop stop-color="#F92814" stop-opacity="0"/>
<stop offset="1" stop-color="#C1272D"/>
</linearGradient>
<linearGradient id="paint4_linear" x1="54" y1="46.4829" x2="54" y2="30.6854" gradientUnits="userSpaceOnUse">
<stop stop-color="#7E8595"/>
<stop offset="1" stop-color="#555A66"/>
</linearGradient>
<linearGradient id="paint5_linear" x1="48.1565" y1="47.4227" x2="50.5549" y2="52.6691" gradientUnits="userSpaceOnUse">
<stop stop-color="#FFDA45"/>
<stop offset="1" stop-color="#FFA425"/>
</linearGradient>
<linearGradient id="paint6_linear" x1="59.8435" y1="47.4227" x2="57.4451" y2="52.6691" gradientUnits="userSpaceOnUse">
<stop stop-color="#FFDA45"/>
<stop offset="1" stop-color="#FFA425"/>
</linearGradient>
<linearGradient id="paint7_linear" x1="45.7599" y1="41.35" x2="60.4627" y2="45.6815" gradientUnits="userSpaceOnUse">
<stop stop-color="#FFDAAA"/>
<stop offset="0.2841" stop-color="#FFD4A4"/>
<stop offset="0.6728" stop-color="#FDC592"/>
<stop offset="1" stop-color="#FCB37E"/>
</linearGradient>
<linearGradient id="paint8_linear" x1="57.0292" y1="44.4627" x2="55.138" y2="37.996" gradientUnits="userSpaceOnUse">
<stop stop-color="#FCB37E" stop-opacity="0"/>
<stop offset="1" stop-color="#FF7044"/>
</linearGradient>
<radialGradient id="paint9_radial" cx="0" cy="0" r="1" gradientUnits="userSpaceOnUse" gradientTransform="translate(50.2224 20.4979) scale(19.2488)">
<stop stop-color="#FFDAAA"/>
<stop offset="0.4213" stop-color="#FFD8A8"/>
<stop offset="0.6519" stop-color="#FED1A0"/>
<stop offset="0.8359" stop-color="#FDC592"/>
<stop offset="0.9951" stop-color="#FCB47F"/>
<stop offset="1" stop-color="#FCB37E"/>
</radialGradient>
<linearGradient id="paint10_linear" x1="56.2239" y1="23.7903" x2="49.8791" y2="10.6737" gradientUnits="userSpaceOnUse">
<stop stop-color="#FCB37E" stop-opacity="0"/>
<stop offset="1" stop-color="#FF7044"/>
</linearGradient>
<linearGradient id="paint11_linear" x1="42.0082" y1="1.33933" x2="66.1671" y2="36.3576" gradientUnits="userSpaceOnUse">
<stop stop-color="#7E8595"/>
<stop offset="1" stop-color="#555A66"/>
</linearGradient>
<linearGradient id="paint12_linear" x1="57.7891" y1="9.3625" x2="69.1365" y2="20.7708" gradientUnits="userSpaceOnUse">
<stop stop-color="#555A66" stop-opacity="0"/>
<stop offset="1" stop-color="#555A66"/>
</linearGradient>
<linearGradient id="paint13_linear" x1="50.6677" y1="12.1246" x2="35.2975" y2="-16.5433" gradientUnits="userSpaceOnUse">
<stop stop-color="#BEC3D2" stop-opacity="0"/>
<stop offset="0.5577" stop-color="#D4D9E4" stop-opacity="0.558"/>
<stop offset="1" stop-color="#E9EDF5"/>
</linearGradient>
<linearGradient id="paint14_linear" x1="56.1749" y1="17.6386" x2="51.3318" y2="19.372" gradientUnits="userSpaceOnUse">
<stop stop-color="#555A66" stop-opacity="0"/>
<stop offset="1" stop-color="#555A66"/>
</linearGradient>
<linearGradient id="paint15_linear" x1="47.7496" y1="24.2351" x2="50.2763" y2="26.7619" gradientUnits="userSpaceOnUse">
<stop stop-color="#7E8595"/>
<stop offset="1" stop-color="#555A66"/>
</linearGradient>
<linearGradient id="paint16_linear" x1="48.2546" y1="24.6409" x2="46.8395" y2="22.601" gradientUnits="userSpaceOnUse">
<stop stop-color="#BEC3D2" stop-opacity="0"/>
<stop offset="0.3183" stop-color="#C2C7D5" stop-opacity="0.318"/>
<stop offset="0.6082" stop-color="#CDD1DE" stop-opacity="0.608"/>
<stop offset="0.8861" stop-color="#DFE3ED" stop-opacity="0.886"/>
<stop offset="1" stop-color="#E9EDF5"/>
</linearGradient>
<linearGradient id="paint17_linear" x1="48.5472" y1="25.7125" x2="51.2288" y2="20.7252" gradientUnits="userSpaceOnUse">
<stop stop-color="#555A66" stop-opacity="0"/>
<stop offset="1" stop-color="#555A66"/>
</linearGradient>
<linearGradient id="paint18_linear" x1="58.7905" y1="24.2351" x2="61.3173" y2="26.7619" gradientUnits="userSpaceOnUse">
<stop stop-color="#7E8595"/>
<stop offset="1" stop-color="#555A66"/>
</linearGradient>
<linearGradient id="paint19_linear" x1="59.2955" y1="24.6409" x2="57.8804" y2="22.601" gradientUnits="userSpaceOnUse">
<stop stop-color="#BEC3D2" stop-opacity="0"/>
<stop offset="0.3183" stop-color="#C2C7D5" stop-opacity="0.318"/>
<stop offset="0.6082" stop-color="#CDD1DE" stop-opacity="0.608"/>
<stop offset="0.8861" stop-color="#DFE3ED" stop-opacity="0.886"/>
<stop offset="1" stop-color="#E9EDF5"/>
</linearGradient>
<linearGradient id="paint20_linear" x1="59.5883" y1="25.7125" x2="62.2698" y2="20.7252" gradientUnits="userSpaceOnUse">
<stop stop-color="#555A66" stop-opacity="0"/>
<stop offset="1" stop-color="#555A66"/>
</linearGradient>
<linearGradient id="paint21_linear" x1="54" y1="26.8784" x2="54" y2="35.0006" gradientUnits="userSpaceOnUse">
<stop stop-color="#FCB37E" stop-opacity="0"/>
<stop offset="1" stop-color="#FF7044"/>
</linearGradient>
<clipPath id="clip0">
<rect x="28" y="4" width="52" height="52" fill="white"/>
</clipPath>
</defs>
</svg>
