<svg width="133" height="117" viewBox="0 0 133 117" fill="none" xmlns="http://www.w3.org/2000/svg">
<path d="M128.16 68.0802C131.527 91.3171 105.011 108.847 76.6014 110.477C54.2944 111.7 16.6251 99.6743 19.3609 70.73C21.8862 43.8241 34.0919 13.2492 69.0255 11.6185C110.693 9.58018 123.951 38.9321 128.16 68.0802Z" fill="#FAEFE7" stroke="#9C6C86" stroke-miterlimit="10"/>
<path d="M126.898 68.284C130.475 90.2979 104.591 108.031 76.3912 109.662C54.0842 110.885 17.6776 99.4704 20.4133 70.5262C20.4133 70.5262 33.0399 105.789 77.0225 103.343C121.005 100.693 126.898 68.284 126.898 68.284Z" fill="#EDDACE"/>
<path d="M123.951 51.5697C131.527 41.7857 135.105 10.3955 128.371 5.50351C121.637 0.611529 108.379 9.1725 100.803 18.9565" fill="#FAEFE7"/>
<path d="M123.951 51.5697C131.527 41.7857 135.105 10.3955 128.371 5.50351C121.637 0.611529 108.379 9.1725 100.803 18.9565" stroke="#9C6C86" stroke-miterlimit="10" stroke-linecap="round"/>
<path d="M110.693 30.9827C112.376 26.906 118.058 13.4531 125.003 9.58023C126.265 8.96873 127.949 9.58023 128.37 11.0071C130.685 18.7527 129.633 29.9635 123.951 44.028C123.319 45.6586 121.004 46.0663 119.952 44.6395L110.903 33.2248C110.693 32.4095 110.482 31.5942 110.693 30.9827Z" fill="#F2A3A6"/>
<path d="M23.7801 51.5697C17.0459 41.1743 15.3624 6.5227 22.0965 2.03838C28.8307 -2.44594 43.3513 8.15336 49.875 18.5488" fill="#FAEFE7"/>
<path d="M23.7801 51.5697C17.0459 41.1743 15.3624 6.5227 22.0965 2.03838C28.8307 -2.44594 43.3513 8.15336 49.875 18.5488" stroke="#9C6C86" stroke-miterlimit="10" stroke-linecap="round"/>
<path d="M37.0384 28.5367C35.7757 24.46 31.3564 10.5994 25.0431 6.11507C23.9909 5.29973 22.3074 5.91123 21.8865 7.33806C19.1507 15.0837 19.3612 26.2945 23.7805 40.7666C24.2014 42.3973 26.3058 42.805 27.5685 41.582L36.8279 30.7788C37.0384 30.1673 37.2488 29.352 37.0384 28.5367Z" fill="#F2A3A6"/>
<path d="M105.853 64.4113C113.85 57.6848 117.428 50.7545 114.271 47.0855C111.114 43.6203 99.1191 47.9008 92.5954 55.4426C89.2283 59.5193 87.5447 64.6151 86.4925 68.4879C85.6507 72.9722 97.8564 70.9339 105.853 64.4113Z" fill="#201600"/>
<path d="M105.341 37.7354C105.935 36.0286 103.738 33.7708 100.433 32.6924C97.1294 31.6141 93.9697 32.1235 93.3759 33.8303C92.7821 35.5371 94.9792 37.7949 98.2833 38.8733C101.587 39.9516 104.747 39.4422 105.341 37.7354Z" fill="#9C6C86"/>
<path d="M40.4054 67.8763C29.4624 60.3345 24.4117 52.385 28.6206 48.5122C32.8295 44.6394 49.6649 49.5314 58.714 58.0923C63.5541 62.5767 65.869 68.4878 66.9212 72.7683C68.3943 77.6603 51.3484 75.4181 40.4054 67.8763Z" fill="#201600"/>
<path d="M46.633 44.8911C52.6241 43.5039 56.9551 40.2492 56.3066 37.6215C55.658 34.9937 50.2755 33.988 44.2844 35.3752C38.2933 36.7624 33.9623 40.0172 34.6108 42.6449C35.2593 45.2727 40.6418 46.2783 46.633 44.8911Z" fill="#9C6C86"/>
<path d="M81.0208 77.0488C81.0208 77.6603 80.8104 78.2718 80.3895 78.8833C78.2851 81.1255 74.918 81.3293 72.3927 79.6986C71.5509 79.291 71.13 78.6795 70.9196 78.068C70.4987 76.4373 74.4971 75.2143 75.7597 75.0105C77.2328 75.0105 80.8104 75.2143 81.0208 77.0488Z" fill="#201600"/>
<path d="M87.9654 94.7822C90.0698 90.9094 82.4939 86.4251 77.0224 87.0366C71.5508 87.6481 66.9211 90.5017 65.8689 95.1899C65.0271 98.2474 72.3926 101.305 78.0746 100.897C82.7043 100.286 86.2819 98.0435 87.9654 94.7822Z" fill="#724C62" stroke="#9C6C86" stroke-width="0.5" stroke-miterlimit="10" stroke-linecap="round" stroke-linejoin="round"/>
<path d="M70.9199 99.2665C70.9199 99.2665 73.0244 95.1899 77.6541 94.7822C82.9152 94.3745 85.4405 97.6359 85.4405 97.6359C85.4405 97.6359 82.0734 99.6742 78.9167 100.082C75.7601 100.897 70.9199 99.2665 70.9199 99.2665Z" fill="#9C6C86"/>
<path d="M83.967 89.075C83.1252 90.7056 82.2834 91.7248 81.8625 91.7248C81.4417 91.521 81.4417 90.298 81.8625 88.2596" fill="#FCFCFC"/>
<path d="M70.7094 89.4827C71.1303 90.5019 71.5512 93.1517 70.9199 93.3556C70.2885 93.5594 69.2363 91.9287 68.8154 90.9096" fill="#FCFCFC"/>
<path d="M33.9927 79.6165L30.8779 77.1882L0.00214576 114.344L3.11691 116.772L33.9927 79.6165Z" fill="#244F59"/>
<path d="M22.3077 94.3747C26.3061 98.2475 23.9913 106.197 19.9928 110.07C15.9944 113.943 9.0498 116.592 5.05138 112.72C1.05297 108.847 2.10518 100.694 6.1036 96.8207C10.102 92.9479 18.3093 90.5019 22.3077 94.3747Z" fill="#FAEFE7" stroke="#9C6C86" stroke-miterlimit="10"/>
<path opacity="0.7" d="M109.641 50.1429C110.482 51.162 109.43 53.2003 108.168 54.0157C107.115 54.831 104.801 54.831 104.169 53.8118C103.327 52.7927 104.38 50.7544 105.432 50.1429C106.484 49.3275 108.799 49.1237 109.641 50.1429Z" fill="#F9F8F7"/>
<path opacity="0.7" d="M103.118 51.9774C103.118 52.5888 102.066 52.9965 101.435 52.9965C100.803 52.9965 99.751 52.5888 99.751 51.9774C99.751 51.3659 101.014 50.9582 101.435 50.9582C101.855 50.9582 103.118 51.3659 103.118 51.9774Z" fill="#F9F8F7"/>
<path opacity="0.7" d="M45.6671 56.0541C44.8253 57.0733 42.5104 56.4618 41.4582 55.6465C40.406 54.8311 39.7747 52.7928 40.8269 51.7736C41.6687 50.7545 43.9835 51.1621 44.8253 52.1813C45.8775 52.9966 46.7193 55.035 45.6671 56.0541Z" fill="#F9F8F7"/>
<path opacity="0.7" d="M36.8281 51.7736C36.6177 51.1621 37.4595 50.3468 37.8804 50.143C38.5117 49.9391 39.5639 49.9391 39.7743 50.5506C39.9848 51.1621 39.3535 51.9775 38.7221 52.1813C38.3012 52.3851 37.249 52.1813 36.8281 51.7736Z" fill="#F9F8F7"/>
<path opacity="0.4" d="M48.4021 84.183C62.9301 84.183 74.7074 72.7756 74.7074 58.7039C74.7074 44.6322 62.9301 33.2248 48.4021 33.2248C33.874 33.2248 22.0967 44.6322 22.0967 58.7039C22.0967 72.7756 33.874 84.183 48.4021 84.183Z" fill="#6886B0"/>
<path d="M49.0334 84.183C63.6777 84.183 75.5492 72.6844 75.5492 58.5001C75.5492 44.3158 63.6777 32.8172 49.0334 32.8172C34.3891 32.8172 22.5176 44.3158 22.5176 58.5001C22.5176 72.6844 34.3891 84.183 49.0334 84.183Z" stroke="#244F59" stroke-miterlimit="10" stroke-linecap="round"/>
<path opacity="0.6" d="M28.4106 72.7683L26.9375 70.9338L26.0957 69.3032L54.9264 34.4478L57.0308 35.0593L59.1353 35.8746L28.4106 72.7683Z" fill="white"/>
<path opacity="0.6" d="M35.5648 79.4948L31.9872 76.6411L29.4619 74.399L60.8179 36.4861L63.9746 38.5244L67.1312 41.3781L35.5648 79.4948Z" fill="white"/>
<path d="M21.8862 95.3938C25.8847 99.2666 23.1489 105.382 19.9923 109.051C16.2043 113.127 9.25967 115.573 5.89258 112.312C5.89258 112.312 11.785 111.089 16.6252 105.789C21.2549 100.286 21.8862 95.3938 21.8862 95.3938Z" fill="#EDDACE"/>
<path d="M15.7831 113.127L11.5742 106.605" stroke="#9C6C86" stroke-width="0.5" stroke-miterlimit="10" stroke-linecap="round" stroke-linejoin="round"/>
<path d="M23.5706 103.343L16.626 101.101" stroke="#9C6C86" stroke-width="0.5" stroke-miterlimit="10" stroke-linecap="round" stroke-linejoin="round"/>
</svg>