<svg width="101" height="101" viewBox="0 0 101 101" fill="none" xmlns="http://www.w3.org/2000/svg">
<g clip-path="url(#clip0)">
<path d="M92.0015 0.756151C89.3053 -0.800472 85.8573 0.123323 84.3005 2.81955L70.5252 26.6794L50.0932 14.8829C47.7365 13.5222 44.7229 14.3298 43.3623 16.6865L27.8592 43.5389C26.8143 45.349 26.577 47.5144 27.2051 49.5078L28.6733 54.1674L24.7438 60.9733L48.8023 74.8635L51.9108 69.4795C52.3641 68.694 53.3684 68.425 54.1537 68.8785C56.2359 70.0806 58.8984 69.3673 60.1003 67.285L75.2077 41.1183L80.2895 32.3165L94.0647 8.45681C95.6217 5.76078 94.6979 2.31297 92.0015 0.756151Z" fill="#F2A077"/>
<path d="M92.0017 0.756277C91.1712 0.276725 90.2693 0.0334961 89.3735 0.00390625C90.4372 1.7138 90.5486 3.93896 89.4714 5.8049L75.6959 29.6648L70.6142 38.4666L55.5068 64.6332C54.3046 66.7154 51.6423 67.4287 49.5602 66.2268C48.7747 65.7734 47.7706 66.0425 47.3171 66.8278L44.2088 72.2116L48.8027 74.864L51.911 69.4803C52.3643 68.6948 53.3686 68.4257 54.1541 68.8792C56.2363 70.0813 58.8988 69.368 60.1007 67.2857L75.2081 41.119L80.2899 32.3172L94.0653 8.45733C95.6217 5.76091 94.6979 2.3131 92.0017 0.756277Z" fill="#D6774D"/>
<path d="M40.6632 101L52.581 80.3577C53.3732 78.9857 52.9031 77.2312 51.5309 76.439L22.0148 59.398C20.6429 58.6058 18.8884 59.0759 18.0964 60.4481L6.17874 81.0903L40.6632 101Z" fill="#75DC5E"/>
<path d="M51.5311 76.4392L46.1264 73.3188C47.4984 74.1111 47.9687 75.8654 47.1765 77.2375L35.2587 97.8798L40.6632 101L52.581 80.3579C53.3734 78.9857 52.9031 77.2314 51.5311 76.4392Z" fill="#2AAD52"/>
<path d="M45.0685 3.12199L38.2701 14.897C36.7135 17.5932 37.6373 21.041 40.3335 22.598C43.0297 24.1546 46.4775 23.2309 48.0346 20.5346L54.8329 8.75944C56.3895 6.06322 55.4658 2.61541 52.7695 1.05839C50.0731 -0.498233 46.6253 0.425562 45.0685 3.12199Z" fill="#FFCCAA"/>
<path d="M55.526 7.55845L47.4844 21.487C45.9278 24.1832 46.8516 27.631 49.5478 29.188C52.2441 30.7447 55.6919 29.8209 57.2489 27.1246L65.2904 13.1961C66.847 10.4999 65.9233 7.05207 63.227 5.49505C60.5308 3.93823 57.083 4.86203 55.526 7.55845Z" fill="#E88E6B"/>
<path d="M63.3497 16.5579L56.5513 28.3331C54.9947 31.0293 55.9185 34.4771 58.6147 36.0341C61.3109 37.5908 64.759 36.667 66.3158 33.9707L73.1141 22.1956C74.6708 19.4993 73.747 16.0515 71.0507 14.4945C68.3543 12.9377 64.9065 13.8617 63.3497 16.5579Z" fill="#FFCCAA"/>
<path d="M22.0298 28.5012C21.5365 29.356 21.3199 30.3425 21.4102 31.3255L22.7209 45.588C23.0337 48.9942 24.9813 52.0364 27.9437 53.7467L31.7842 55.964C36.2511 58.543 41.9633 57.0126 44.5424 52.5453L46.2643 49.5629C50.6154 42.0266 48.0334 32.3899 40.4969 28.0388L39.6484 27.549C38.5964 26.9417 38.2358 25.5963 38.8432 24.5443C39.4506 23.4923 40.7959 23.1317 41.8479 23.739L46.8042 26.6006C51.4321 29.2725 57.3497 27.6867 60.0216 23.0591C60.8819 21.5689 60.3714 19.6635 58.8814 18.8033L41.5838 8.8165C38.1918 6.85824 33.8547 8.02033 31.8965 11.4123L22.0298 28.5012Z" fill="#FFCCAA"/>
<path d="M39.4997 88.604C41.602 88.604 43.3063 86.8997 43.3063 84.7974C43.3063 82.695 41.602 80.9907 39.4997 80.9907C37.3974 80.9907 35.6931 82.695 35.6931 84.7974C35.6931 86.8997 37.3974 88.604 39.4997 88.604Z" fill="#D2F5FF"/>
</g>
<defs>
<clipPath id="clip0">
<rect width="101" height="101" fill="white"/>
</clipPath>
</defs>
</svg>