<svg width="102" height="102" viewBox="0 0 102 102" fill="none" xmlns="http://www.w3.org/2000/svg">
<g clip-path="url(#clip0)">
<path d="M8.94731 14.4797C7.98827 12.4973 8.81762 10.1129 10.8 9.15403C11.4471 8.84105 12.1362 8.72172 12.8054 8.76754C13.4365 7.36444 14.5446 6.16674 16.0377 5.44437C19.4129 3.81138 23.4727 5.22384 25.1057 8.599C25.5004 9.4148 25.7157 10.2706 25.7697 11.1223C27.2762 11.0721 28.7427 11.8929 29.4415 13.337C30.387 15.2912 29.5694 17.6415 27.6151 18.587C25.8405 19.4457 23.7423 18.8466 22.6633 17.2662C22.4366 17.4116 22.1999 17.5463 21.9513 17.6668C19.283 18.9578 16.1877 18.344 14.2009 16.363C12.2332 17.2682 9.89499 16.4381 8.94731 14.4797Z" fill="url(#paint0_linear)"/>
<path d="M9.94998 7.21935C11.7904 7.21935 13.2823 5.72742 13.2823 3.88702C13.2823 2.04662 11.7904 0.554688 9.94998 0.554688C8.10958 0.554688 6.61765 2.04662 6.61765 3.88702C6.61765 5.72742 8.10958 7.21935 9.94998 7.21935Z" fill="url(#paint1_linear)"/>
<path d="M29.7463 34.093H21.7093C20.5719 34.093 19.6499 33.171 19.6499 32.0336V19.2141C19.6499 18.0768 20.5719 17.1548 21.7093 17.1548H29.7463C30.8837 17.1548 31.8057 18.0768 31.8057 19.2141V32.0336C31.8059 33.171 30.8839 34.093 29.7463 34.093Z" fill="url(#paint2_linear)"/>
<path d="M27.2002 70.6455H3.20007V101.446H27.2002V70.6455Z" fill="url(#paint3_linear)"/>
<path d="M28.2 77.2448H3.25382C2.23162 77.2448 1.49989 76.2579 1.79653 75.2795L4.27202 67.1253C4.46686 66.4834 5.05854 66.0449 5.72931 66.0449H28.2002V77.2448H28.2Z" fill="url(#paint4_linear)"/>
<path d="M98.8001 70.6455H74.8V101.446H98.8001V70.6455Z" fill="url(#paint5_linear)"/>
<path d="M98.7999 93.3757L82.675 77.2505H74.8V101.445H98.7999V93.3757Z" fill="url(#paint6_linear)"/>
<path d="M73.8 77.2448H98.7462C99.7684 77.2448 100.5 76.2579 100.203 75.2795L97.728 67.1253C97.5331 66.4834 96.9414 66.0449 96.2707 66.0449H73.8V77.2448Z" fill="url(#paint7_linear)"/>
<path d="M82.6879 37.7206V101.445H19.32V37.7206L51 6.66064L82.6879 37.7206Z" fill="url(#paint8_linear)"/>
<path d="M19.32 37.7206V41.3715L79.393 101.445H82.6879V37.7206L51 6.66064L19.32 37.7206Z" fill="url(#paint9_linear)"/>
<path d="M82.6879 56.979V101.445H62.682L19.32 58.0827V56.979H82.6879Z" fill="url(#paint10_linear)"/>
<path d="M72.8968 101.445H41.9055L24.8695 84.4089C24.1194 83.9226 23.6204 83.0789 23.6204 82.1219V68.4107C23.6204 66.9086 24.8434 65.6855 26.3455 65.6855H36.2305C37.1898 65.6855 38.0335 66.1848 38.5198 66.9346L38.4457 66.9934L72.8968 101.445Z" fill="url(#paint11_linear)"/>
<path d="M36.2305 83.2496H26.3463C25.7229 83.2496 25.2177 82.7444 25.2177 82.121V68.4118C25.2177 67.7884 25.7231 67.2832 26.3463 67.2832H36.2305C36.8539 67.2832 37.3591 67.7886 37.3591 68.4118V82.121C37.3593 82.7444 36.8539 83.2496 36.2305 83.2496Z" fill="#503837"/>
<path d="M36.2305 84.847H26.3463C24.8432 84.847 23.6202 83.624 23.6202 82.1209V68.4117C23.6202 66.9085 24.8432 65.6855 26.3463 65.6855H36.2305C37.7336 65.6855 38.9566 66.9085 38.9566 68.4117V82.1209C38.9568 83.624 37.7338 84.847 36.2305 84.847ZM26.8154 81.6517H35.7616V68.8804H26.8154V81.6517Z" fill="white"/>
<path d="M82.6901 71.341V101.445H81.7177L64.6817 84.4089C63.9295 83.9226 63.4302 83.0789 63.4302 82.1219V68.4107C63.4302 66.9086 64.6532 65.6855 66.1575 65.6855H76.0404C76.9996 65.6855 77.8433 66.1848 78.3296 66.9346L78.3689 66.9653L78.3426 66.9938L82.6901 71.341Z" fill="url(#paint12_linear)"/>
<path d="M76.0412 83.2496H66.157C65.5336 83.2496 65.0284 82.7444 65.0284 82.121V68.4118C65.0284 67.7884 65.5336 67.2832 66.157 67.2832H76.0412C76.6645 67.2832 77.1698 67.7886 77.1698 68.4118V82.121C77.17 82.7444 76.6645 83.2496 76.0412 83.2496Z" fill="#503837"/>
<path d="M76.0414 84.847H66.1572C64.6541 84.847 63.4311 83.624 63.4311 82.1209V68.4117C63.4311 66.9085 64.6541 65.6855 66.1572 65.6855H76.0414C77.5445 65.6855 78.7675 66.9085 78.7675 68.4117V82.1209C78.7675 83.624 77.5445 84.847 76.0414 84.847ZM66.6259 81.6517H75.5721V68.8804H66.6259V81.6517Z" fill="white"/>
<path d="M44.4013 101.444V66.8258C44.4013 65.2988 45.6391 64.061 47.1661 64.061H54.8432C56.3702 64.061 57.6079 65.2988 57.6079 66.8258V101.444H44.4013Z" fill="#816965"/>
<path d="M59.2429 101.444H55.9725V67.7687C55.9725 66.6292 55.0402 65.6966 53.9004 65.6966H48.1084C46.964 65.6966 46.0363 66.6242 46.0363 67.7687V101.444H42.7661V65.606C42.7661 63.8499 44.1897 62.4263 45.9458 62.4263H56.063C57.8191 62.4263 59.2427 63.8499 59.2427 65.606V101.444H59.2429Z" fill="#503837"/>
<path d="M48.662 78.5464C49.4854 78.5464 50.1529 77.8788 50.1529 77.0554C50.1529 76.232 49.4854 75.5645 48.662 75.5645C47.8385 75.5645 47.171 76.232 47.171 77.0554C47.171 77.8788 47.8385 78.5464 48.662 78.5464Z" fill="white"/>
<path d="M82.6901 92.7192H19.3181V101.443H82.6901V92.7192Z" fill="#654E48"/>
<path d="M18.6242 98.0347C18.6242 99.2388 18.3965 100.388 17.9805 101.444H0.643676C0.227707 100.388 0 99.2388 0 98.0347C0 96.8623 0.216152 95.7415 0.612 94.709C1.95055 91.2069 5.34125 88.7227 9.31228 88.7227C13.2833 88.7227 16.6738 91.2071 18.0126 94.709C18.4082 95.7417 18.6242 96.8625 18.6242 98.0347Z" fill="url(#paint13_linear)"/>
<path d="M24.629 98.9714C24.629 99.8448 24.4639 100.678 24.1623 101.444H11.5858C11.2842 100.678 11.119 99.8448 11.119 98.9714C11.119 98.1209 11.2758 97.3079 11.5631 96.5589C12.5341 94.0184 14.9936 92.2163 17.8743 92.2163C20.755 92.2163 23.2146 94.0184 24.1856 96.5589C24.4723 97.3077 24.629 98.1209 24.629 98.9714Z" fill="url(#paint14_linear)"/>
<path d="M102 97.4703C102 98.8738 101.735 100.213 101.25 101.444H81.0402C80.5557 100.213 80.29 98.8738 80.29 97.4703C80.29 96.1036 80.542 94.7973 81.0034 93.5935C82.5639 89.5113 86.5162 86.6152 91.145 86.6152C95.7739 86.6152 99.7262 89.5113 101.287 93.5935C101.748 94.7973 102 96.1036 102 97.4703Z" fill="url(#paint15_linear)"/>
<path d="M82.6879 46.8363V80.6102L41.926 39.8463C41.1259 39.3644 40.588 38.4902 40.588 37.4903V29.8323C40.588 24.0922 45.2601 19.4224 51 19.4224C54.108 19.4224 56.9021 20.7944 58.812 22.9603L82.6879 46.8363Z" fill="url(#paint16_linear)"/>
<path d="M78.0439 43.5503H24.7772C23.507 43.5503 22.4738 44.5836 22.4738 45.8537V56.0802H24.0738V45.8537C24.0738 45.4658 24.3893 45.1502 24.7772 45.1502H27.9635V56.08H29.5634V45.1502H34.3166V56.08H35.9165V45.1502H40.6697V56.08H42.2696V45.1502H47.0228V56.08H48.6227V45.1502H53.3761V56.08H54.976V45.1502H59.7291V56.08H61.3291V45.1502H66.0822V56.08H67.6822V45.1502H72.4353V56.08H74.0352V45.1502H78.0431C78.431 45.1502 78.7466 45.4658 78.7466 45.8537V56.0802H80.3465V45.8537C80.3473 44.5836 79.3139 43.5503 78.0439 43.5503Z" fill="#654E48"/>
<path d="M84.0014 54.4199V59.5498C84.0014 60.3122 83.3834 60.9302 82.621 60.9302H19.379C18.6166 60.9302 17.9987 60.3122 17.9987 59.5498V54.4199C17.9987 53.6575 18.6166 53.0396 19.379 53.0396H82.621C83.3834 53.0396 84.0014 53.6575 84.0014 54.4199Z" fill="url(#paint17_linear)"/>
<path d="M94.0332 43.2757L53.1169 2.34586C51.9506 1.17963 50.0597 1.17963 48.8934 2.34586L7.96673 43.2724C7.20372 44.0354 7.20372 45.2723 7.96673 46.0353L9.71089 47.7795C10.4739 48.5425 11.7108 48.5425 12.4738 47.7795L50.4489 9.80441C50.7559 9.49741 51.2538 9.49741 51.5608 9.80441L89.5259 47.7827C90.2889 48.5457 91.5258 48.5457 92.2888 47.7827L94.033 46.0385C94.7962 45.2757 94.7962 44.0388 94.0332 43.2757Z" fill="url(#paint18_linear)"/>
<path d="M53.1169 2.34625C52.5338 1.76314 51.7696 1.47168 51.0052 1.47168V9.5749C51.2064 9.5749 51.4076 9.6518 51.5612 9.8052L89.5261 47.7835C90.2891 48.5465 91.5261 48.5465 92.2891 47.7835L94.0333 46.0393C94.7963 45.2763 94.7963 44.0393 94.0333 43.2763L53.1169 2.34625Z" fill="url(#paint19_linear)"/>
<path d="M58.6566 38.5826H43.3436C42.7398 38.5826 42.2505 38.0931 42.2505 37.4895V29.8329C42.2505 25.0004 46.1679 21.083 51.0004 21.083C55.8328 21.083 59.7503 25.0004 59.7503 29.8329V37.4895C59.7499 38.0931 59.2602 38.5826 58.6566 38.5826Z" fill="#654E48"/>
<path d="M51 19.4219C45.2593 19.4219 40.5891 24.0924 40.5891 29.8328V37.4892C40.5891 39.0083 41.8246 40.2438 43.3436 40.2438H58.6566C60.1756 40.2438 61.4112 39.0083 61.4112 37.4892V29.8328C61.411 24.0922 56.7409 19.4219 51 19.4219ZM58.0311 28.9469H52.6615V22.9431C55.4908 23.6256 57.6629 26.009 58.0311 28.9469ZM49.3385 22.9431V28.9469H43.969C44.3372 26.009 46.509 23.6256 49.3385 22.9431ZM43.9116 32.2697H49.3385V36.9214H43.9116V32.2697ZM52.6615 36.9214V32.2697H58.0884V36.9214H52.6615Z" fill="white"/>
</g>
<defs>
<linearGradient id="paint0_linear" x1="5.09377" y1="6.95473" x2="44.3351" y2="20.6068" gradientUnits="userSpaceOnUse">
<stop stop-color="#E2EDF2"/>
<stop offset="1" stop-color="#9FC7E2"/>
</linearGradient>
<linearGradient id="paint1_linear" x1="8.86902" y1="3.51306" x2="14.6469" y2="5.52382" gradientUnits="userSpaceOnUse">
<stop stop-color="#E2EDF2"/>
<stop offset="1" stop-color="#9FC7E2"/>
</linearGradient>
<linearGradient id="paint2_linear" x1="22.4716" y1="22.3713" x2="26.5035" y2="26.4012" gradientUnits="userSpaceOnUse">
<stop stop-color="#816965"/>
<stop offset="1" stop-color="#654E48"/>
</linearGradient>
<linearGradient id="paint3_linear" x1="15.1997" y1="74.5481" x2="15.1997" y2="101.9" gradientUnits="userSpaceOnUse">
<stop stop-color="#FFE7A5"/>
<stop offset="0.966" stop-color="#FFBF5C"/>
</linearGradient>
<linearGradient id="paint4_linear" x1="14.9646" y1="67.4641" x2="14.9646" y2="77.4119" gradientUnits="userSpaceOnUse">
<stop stop-color="#FF5D00"/>
<stop offset="1" stop-color="#D54003"/>
</linearGradient>
<linearGradient id="paint5_linear" x1="86.7981" y1="74.5481" x2="86.7981" y2="101.9" gradientUnits="userSpaceOnUse">
<stop stop-color="#FFE7A5"/>
<stop offset="0.966" stop-color="#FFBF5C"/>
</linearGradient>
<linearGradient id="paint6_linear" x1="86.2381" y1="96.0335" x2="61.3606" y2="73.8639" gradientUnits="userSpaceOnUse">
<stop stop-color="#FF5D00" stop-opacity="0"/>
<stop offset="1" stop-color="#D54003"/>
</linearGradient>
<linearGradient id="paint7_linear" x1="87.0332" y1="67.4641" x2="87.0332" y2="77.4119" gradientUnits="userSpaceOnUse">
<stop stop-color="#FF5D00"/>
<stop offset="1" stop-color="#D54003"/>
</linearGradient>
<linearGradient id="paint8_linear" x1="51.0029" y1="54.7106" x2="51.0029" y2="121.807" gradientUnits="userSpaceOnUse">
<stop stop-color="#FFE7A5"/>
<stop offset="0.966" stop-color="#FFBF5C"/>
<stop offset="1" stop-color="#DB9E36"/>
</linearGradient>
<linearGradient id="paint9_linear" x1="44.1548" y1="32.6993" x2="25.8112" y2="14.3557" gradientUnits="userSpaceOnUse">
<stop stop-color="#FF5D00" stop-opacity="0"/>
<stop offset="1" stop-color="#D54003"/>
</linearGradient>
<linearGradient id="paint10_linear" x1="53.3883" y1="72.338" x2="46.2105" y2="27.785" gradientUnits="userSpaceOnUse">
<stop stop-color="#FF5D00" stop-opacity="0"/>
<stop offset="1" stop-color="#D54003"/>
</linearGradient>
<linearGradient id="paint11_linear" x1="43.6332" y1="87.6118" x2="15.0458" y2="59.0244" gradientUnits="userSpaceOnUse">
<stop stop-color="#FF5D00" stop-opacity="0"/>
<stop offset="1" stop-color="#D54003"/>
</linearGradient>
<linearGradient id="paint12_linear" x1="78.7468" y1="82.9155" x2="60.4432" y2="64.6119" gradientUnits="userSpaceOnUse">
<stop stop-color="#FF5D00" stop-opacity="0"/>
<stop offset="1" stop-color="#D54003"/>
</linearGradient>
<linearGradient id="paint13_linear" x1="4.06044" y1="92.2377" x2="15.5514" y2="103.727" gradientUnits="userSpaceOnUse">
<stop stop-color="#9EB644"/>
<stop offset="1" stop-color="#738611"/>
</linearGradient>
<linearGradient id="paint14_linear" x1="14.064" y1="94.7654" x2="22.3998" y2="103.101" gradientUnits="userSpaceOnUse">
<stop stop-color="#9EB644"/>
<stop offset="1" stop-color="#738611"/>
</linearGradient>
<linearGradient id="paint15_linear" x1="85.0219" y1="90.712" x2="98.4157" y2="104.108" gradientUnits="userSpaceOnUse">
<stop stop-color="#9EB644"/>
<stop offset="1" stop-color="#738611"/>
</linearGradient>
<linearGradient id="paint16_linear" x1="65.5585" y1="46.6387" x2="36.2531" y2="17.3333" gradientUnits="userSpaceOnUse">
<stop stop-color="#FF5D00" stop-opacity="0"/>
<stop offset="1" stop-color="#D54003"/>
</linearGradient>
<linearGradient id="paint17_linear" x1="50.999" y1="53.8802" x2="50.999" y2="64.3479" gradientUnits="userSpaceOnUse">
<stop stop-color="#FF5D00"/>
<stop offset="1" stop-color="#D54003"/>
</linearGradient>
<linearGradient id="paint18_linear" x1="50.9989" y1="29.1568" x2="50.9989" y2="64.6941" gradientUnits="userSpaceOnUse">
<stop stop-color="#FF5D00"/>
<stop offset="1" stop-color="#D54003"/>
</linearGradient>
<linearGradient id="paint19_linear" x1="81.5645" y1="35.4668" x2="60.085" y2="13.9877" gradientUnits="userSpaceOnUse">
<stop stop-color="#FF5D00" stop-opacity="0"/>
<stop offset="1" stop-color="#D54003"/>
</linearGradient>
<clipPath id="clip0">
<rect width="102" height="102" fill="white"/>
</clipPath>
</defs>
</svg>