<svg width="33" height="54" viewBox="0 0 33 54" fill="none" xmlns="http://www.w3.org/2000/svg">
<path d="M9.51172 35.9492V33.3477C9.51172 31.0977 9.99219 29.1406 10.9531 27.4766C11.9141 25.8125 13.6719 24.043 16.2266 22.168C18.6875 20.4102 20.3047 18.9805 21.0781 17.8789C21.875 16.7773 22.2734 15.5469 22.2734 14.1875C22.2734 12.6641 21.7109 11.5039 20.5859 10.707C19.4609 9.91016 17.8906 9.51172 15.875 9.51172C12.3594 9.51172 8.35156 10.6602 3.85156 12.957L0.0195312 5.25781C5.24609 2.32813 10.7891 0.863281 16.6484 0.863281C21.4766 0.863281 25.3086 2.02344 28.1445 4.34375C31.0039 6.66406 32.4336 9.75781 32.4336 13.625C32.4336 16.2031 31.8477 18.4297 30.6758 20.3047C29.5039 22.1797 27.2773 24.2891 23.9961 26.6328C21.7461 28.2969 20.3164 29.5625 19.707 30.4297C19.1211 31.2969 18.8281 32.4336 18.8281 33.8398V35.9492H9.51172ZM8.38672 47.9727C8.38672 46.0039 8.91406 44.5156 9.96875 43.5078C11.0234 42.5 12.5586 41.9961 14.5742 41.9961C16.5195 41.9961 18.0195 42.5117 19.0742 43.543C20.1523 44.5742 20.6914 46.0508 20.6914 47.9727C20.6914 49.8242 20.1523 51.2891 19.0742 52.3672C17.9961 53.4219 16.4961 53.9492 14.5742 53.9492C12.6055 53.9492 11.082 53.4336 10.0039 52.4023C8.92578 51.3477 8.38672 49.8711 8.38672 47.9727Z" fill="black"/>
</svg>