<svg width="118" height="117" viewBox="0 0 118 117" fill="none" xmlns="http://www.w3.org/2000/svg">
<path d="M113.133 71.0911C116.638 95.3047 89.5722 113.707 60.7537 115.45C37.9715 116.806 -0.388183 104.022 2.53261 73.8031C5.25868 45.5216 17.526 13.7534 52.965 12.01C95.4138 9.87922 108.849 40.6789 113.133 71.0911Z" fill="#FAEFE7" stroke="#9C6C86" stroke-miterlimit="10"/>
<path d="M111.964 71.2848C115.664 94.1424 89.3767 112.738 60.5582 114.288C37.7761 115.644 0.779359 103.634 3.70015 73.4156C3.70015 73.4156 16.5516 110.414 61.3371 107.702C106.123 104.99 111.964 71.2848 111.964 71.2848Z" fill="#EDDACE"/>
<path d="M109.044 53.851C116.833 43.5845 120.338 10.8477 113.522 5.61758C106.707 0.581153 93.0769 9.29804 85.2881 19.7583" fill="#FAEFE7"/>
<path d="M109.044 53.851C116.833 43.5845 120.338 10.8477 113.522 5.61758C106.707 0.581153 93.0769 9.29804 85.2881 19.7583" stroke="#9C6C86" stroke-miterlimit="10" stroke-linecap="round"/>
<path d="M95.6078 32.1557C97.1655 27.8941 103.202 13.7534 110.212 9.6855C111.575 8.91066 113.133 9.6855 113.522 11.0415C115.664 19.3709 114.69 30.9934 109.043 45.7153C108.459 47.4587 106.123 47.8461 104.954 46.2964L95.8025 34.4802C95.4131 33.8991 95.2183 32.9305 95.6078 32.1557Z" fill="#F2A3A6"/>
<path d="M7.01066 53.851C0.195481 43.0033 -1.55699 6.77982 5.25819 2.13082C12.0734 -2.51819 26.872 8.5232 33.4925 19.3709" fill="#FAEFE7"/>
<path d="M7.01066 53.851C0.195481 43.0033 -1.55699 6.77982 5.25819 2.13082C12.0734 -2.51819 26.872 8.5232 33.4925 19.3709" stroke="#9C6C86" stroke-miterlimit="10" stroke-linecap="round"/>
<path d="M20.4464 29.8311C19.0834 25.3758 14.6048 10.8476 8.17906 6.39234C7.01075 5.6175 5.45299 6.19863 5.06355 7.55459C2.33748 15.6903 2.72692 27.3129 7.01075 42.4221C7.59491 44.1655 9.5421 44.5529 10.7104 43.197L20.057 31.7682C20.6411 31.3807 20.8358 30.6059 20.4464 29.8311Z" fill="#F2A3A6"/>
<path d="M86.8461 75.74C96.1926 73.4155 102.229 68.9603 101.061 64.6987C99.8923 60.4371 88.2091 59.0811 79.6414 62.9553C75.1629 64.8924 70.8791 68.1854 69.1266 71.4785C67.1794 75.1589 77.4995 78.0646 86.8461 75.74Z" fill="#201600"/>
<path d="M65.4261 80.3891C65.4261 81.1639 65.2313 81.745 64.6472 82.3262C62.5053 84.6507 59.0003 84.8444 56.469 83.2947C55.6901 82.7136 55.1059 82.3262 54.9112 81.5513C54.3271 79.8079 58.4162 78.6457 59.7792 78.452C61.337 78.2583 65.0366 78.452 65.4261 80.3891Z" fill="#201600"/>
<path opacity="0.7" d="M94.2457 67.2168C95.0246 68.3791 94.051 70.5098 92.8827 71.2847C91.7144 72.0595 89.5725 72.2532 88.7936 71.091C88.0147 69.9287 88.9883 67.9916 90.1566 67.2168C91.3249 66.442 93.4668 66.0546 94.2457 67.2168Z" fill="#F9F8F7"/>
<path opacity="0.7" d="M87.819 69.5415C87.819 70.1227 86.6507 70.7038 86.0665 70.7038C85.4824 70.7038 84.5088 70.3164 84.5088 69.7352C84.5088 69.1541 85.4824 68.573 86.0665 68.573C86.6507 68.573 87.819 68.9604 87.819 69.5415Z" fill="#F9F8F7"/>
<path d="M32.5193 78.0645C22.7833 75.74 16.5523 71.091 17.3311 66.6357C18.11 62.1804 28.2354 60.0496 38.945 64.5049C42.8394 66.0545 47.1232 68.1853 50.044 72.0595C52.7701 75.74 42.0605 80.389 32.5193 78.0645Z" fill="#201600"/>
<path opacity="0.7" d="M24.1458 70.51C24.3405 71.866 26.2877 72.8345 27.6507 72.8345C29.0138 72.8345 30.7662 71.6723 30.5715 70.3163C30.3768 68.9604 28.4296 67.9918 27.0666 67.9918C25.7035 67.9918 23.9511 69.1541 24.1458 70.51Z" fill="#F9F8F7"/>
<path opacity="0.9" d="M20.2515 75.1591C20.8356 76.7087 24.3406 78.2584 26.6772 78.4521C29.0139 78.6458 31.3505 77.871 30.9611 76.3213C30.3769 74.7717 26.872 73.222 24.73 73.0283C22.5881 72.8346 19.6673 73.6094 20.2515 75.1591Z" fill="#9FDEE2"/>
<path opacity="0.9" d="M87.4298 76.9023C88.7928 77.8708 92.6872 77.096 94.6344 76.1274C96.5816 75.1589 98.3341 73.0281 96.9711 72.0596C95.608 71.091 91.9083 71.6721 89.9612 72.8344C88.014 73.6092 86.2615 75.9337 87.4298 76.9023Z" fill="#9FDEE2"/>
<path opacity="0.7" d="M31.5449 70.7037C31.5449 71.2848 32.5185 71.8659 33.1027 71.8659C33.6868 71.8659 34.6604 71.4785 34.6604 70.8974C34.6604 70.3163 33.6868 69.7351 33.1027 69.7351C32.5185 69.5414 31.5449 70.1226 31.5449 70.7037Z" fill="#F9F8F7"/>
<path d="M14.6054 98.5978C17.7209 93.7551 26.4833 94.3362 31.3513 97.4355C36.2193 100.535 40.3084 106.734 37.3876 111.576C34.2721 116.419 25.7044 117.194 20.8364 114.094C15.9685 110.995 11.4899 103.44 14.6054 98.5978Z" fill="#FAEFE7" stroke="#9C6C86" stroke-miterlimit="10"/>
<path d="M15.3837 99.179C12.2682 104.022 16.3573 110.027 20.2517 112.932C24.9249 116.419 32.1296 116.225 35.2451 112.545C35.2451 112.545 29.0141 112.739 23.1725 108.477C17.3309 104.022 15.3837 99.179 15.3837 99.179Z" fill="#EDDACE"/>
<path d="M35.2459 100.922L29.4043 106.54" stroke="#9C6C86" stroke-width="0.5" stroke-miterlimit="10" stroke-linecap="round" stroke-linejoin="round"/>
<path d="M23.3683 95.4984L22.7842 102.859" stroke="#9C6C86" stroke-width="0.5" stroke-miterlimit="10" stroke-linecap="round" stroke-linejoin="round"/>
<path d="M88.2084 108.283C85.0929 103.44 88.9873 95.6921 93.8553 92.5928C98.7233 89.4934 106.123 88.1375 109.238 92.9802C112.354 97.8229 109.628 105.959 104.954 109.058C100.086 112.351 91.5186 113.126 88.2084 108.283Z" fill="#FAEFE7" stroke="#9C6C86" stroke-miterlimit="10"/>
<path d="M89.5713 108.671C93.4657 112.351 101.254 110.414 104.37 108.283C108.654 105.378 111.38 98.404 108.654 94.1425C108.654 94.1425 106.707 100.535 101.254 104.603C95.4129 108.671 89.5713 108.671 89.5713 108.671Z" fill="#EDDACE"/>
<path d="M98.7236 90.4621L101.644 98.0167" stroke="#9C6C86" stroke-width="0.5" stroke-miterlimit="10" stroke-linecap="round" stroke-linejoin="round"/>
<path d="M88.9873 98.9852L95.413 102.666" stroke="#9C6C86" stroke-width="0.5" stroke-miterlimit="10" stroke-linecap="round" stroke-linejoin="round"/>
<path d="M67.1793 89.6871C66.7898 90.4619 65.0373 93.3675 64.4532 93.1738C63.869 92.9801 64.4532 89.1059 64.8426 88.1374" fill="#FCFCFC"/>
<path d="M67.1793 89.6871C66.7898 90.4619 65.0373 93.3675 64.4532 93.1738C63.869 92.9801 64.4532 89.1059 64.8426 88.1374" stroke="#9C6C86" stroke-width="0.25" stroke-miterlimit="10" stroke-linecap="round"/>
<path d="M57.6374 88.1374C57.8321 89.1059 58.2216 93.1738 57.6374 93.1738C57.0533 93.1738 55.4955 90.8493 55.3008 89.8808" fill="#FCFCFC"/>
<path d="M57.6374 88.1374C57.8321 89.1059 58.2216 93.1738 57.6374 93.1738C57.0533 93.1738 55.4955 90.8493 55.3008 89.8808" stroke="#9C6C86" stroke-width="0.25" stroke-miterlimit="10" stroke-linecap="round"/>
<path d="M53.7432 91.8178C55.3009 89.1059 57.6376 87.1688 60.9478 87.1688C64.258 87.1688 67.3735 89.1059 68.3471 91.6241" stroke="#9C6C86" stroke-width="0.5" stroke-miterlimit="10" stroke-linecap="round" stroke-linejoin="round"/>
<path d="M32.9461 68.5683C42.824 68.0123 50.7282 65.7433 50.6007 63.5002C50.4731 61.2572 42.3621 59.8896 32.4842 60.4455C22.6063 61.0015 14.702 63.2705 14.8296 65.5136C14.9572 67.7566 23.0682 69.1242 32.9461 68.5683Z" fill="#FAEFE7"/>
<path d="M104.81 63.2497C105.011 60.3681 97.6938 57.5173 88.4675 56.8823C79.2412 56.2473 71.5994 58.0686 71.399 60.9501C71.1986 63.8317 78.5155 66.6825 87.7418 67.3175C96.9681 67.9525 104.61 66.1313 104.81 63.2497Z" fill="#FAEFE7"/>
<path d="M27.5255 65.4482C30.6456 64.2802 32.6222 61.8723 31.9404 60.07C31.2587 58.2678 28.1767 57.7537 25.0566 58.9217C21.9365 60.0898 19.9599 62.4977 20.6417 64.2999C21.3234 66.1022 24.4054 66.6163 27.5255 65.4482Z" fill="#9C6C86"/>
<path d="M96.5814 63.2472C97.1995 61.4224 94.9744 59.0293 91.6115 57.902C88.2486 56.7748 85.0214 57.3402 84.4033 59.165C83.7852 60.9898 86.0103 63.3829 89.3732 64.5101C92.7361 65.6374 95.9633 65.072 96.5814 63.2472Z" fill="#9C6C86"/>
</svg>