<svg width="113" height="113" viewBox="0 0 113 113" fill="none" xmlns="http://www.w3.org/2000/svg">
<g clip-path="url(#clip0)">
<path d="M65.2289 13.9398C61.8863 14.6594 58.752 17.6158 56.4763 17.6158C54.2006 17.6158 51.0663 14.6592 47.7237 13.9398C40.633 13.012 30.5685 17.9659 30.5685 33.1954C30.5685 48.4249 41.5971 60.8536 46.3234 60.8536C51.575 60.8536 52.2751 58.4028 56.4763 58.4028C60.6775 58.4028 61.3778 60.8536 66.6292 60.8536C71.3557 60.8536 82.3839 48.4249 82.3839 33.1954C82.3839 17.9659 72.3196 13.0118 65.2289 13.9398Z" fill="url(#paint0_radial)"/>
<path d="M68.8407 13.9698C67.5959 13.7946 66.3735 13.7899 65.2289 13.9397C61.8863 14.6593 58.752 17.6157 56.4763 17.6157C56.4185 17.6157 56.3598 17.6126 56.301 17.6089V21.315L59.4019 21.8931L80.7436 25.8725L68.8407 13.9698Z" fill="url(#paint1_linear)"/>
<path d="M65.2289 13.9398C61.8863 14.6594 58.752 17.6158 56.4763 17.6158C56.3597 17.6158 56.2403 17.6063 56.1193 17.5914C56.6219 18.7926 57.1399 19.6414 57.3247 19.9292C57.3202 19.948 57.3151 19.9666 57.3107 19.9857L57.3956 20.0371L57.4804 20.0885L80.7728 43.3703C81.771 40.2182 82.3841 36.7846 82.3841 33.1954C82.3841 17.9659 72.3195 13.0118 65.2289 13.9398Z" fill="url(#paint2_linear)"/>
<path d="M57.3956 20.0374C57.3956 20.0374 46.7049 4.43472 70.3044 0.0317078C71.2893 -0.151973 72.2405 0.480606 72.4642 1.45706C73.5404 6.15166 74.8417 18.9574 57.3956 20.0374Z" fill="url(#paint3_linear)"/>
<path d="M72.4642 1.45716C72.3402 0.915649 71.9921 0.480932 71.539 0.231445C63.7203 8.75718 57.3956 20.0375 57.3956 20.0375C74.8417 18.9575 73.5404 6.15176 72.4642 1.45716Z" fill="url(#paint4_linear)"/>
<path d="M68.5684 7.23993C68.3858 7.30485 68.1984 7.35669 68.0138 7.41031C67.8295 7.46438 67.646 7.51844 67.4601 7.56209C67.2755 7.60995 67.0828 7.631 66.8936 7.65515C66.7041 7.67863 66.5262 7.7307 66.3543 7.81047C66.1845 7.89267 66.0175 7.9824 65.8506 8.0943C65.9893 7.87206 66.1278 7.64961 66.2665 7.42693L66.9574 6.34811C67.1863 5.98651 67.4349 5.64264 67.6693 5.28436C68.1496 4.578 68.6535 3.89491 69.2063 3.24372L69.0714 3.09814L68.5777 3.52333L68.3293 3.73781C68.2487 3.81115 68.174 3.8887 68.0958 3.96426C67.7925 4.27246 67.4714 4.57202 67.1847 4.8944C66.5898 5.52632 66.0299 6.18504 65.4649 6.84199C65.3594 6.97116 65.254 7.10078 65.1483 7.22996C65.1487 7.09103 65.139 6.953 65.1066 6.81518C65.0638 6.62928 65.0169 6.44117 64.998 6.25151C64.9748 6.06185 64.9621 5.8713 64.9489 5.67964C64.9351 5.48798 64.9189 5.29411 64.9167 5.10046C64.8941 4.71028 64.9083 4.31943 64.9116 3.91684L64.8046 3.89025C64.6311 4.2554 64.484 4.63738 64.3699 5.03044C64.3107 5.22675 64.2653 5.42617 64.2175 5.62691C64.1802 5.82831 64.1426 6.03127 64.116 6.23578C64.0876 6.44006 64.0469 6.6459 64.0156 6.85395C63.9888 7.06179 63.997 7.2705 64.0491 7.4739C64.0597 7.51379 64.0712 7.55367 64.0834 7.59333C64.2159 8.02561 64.1204 8.496 63.8419 8.85228L63.8368 8.85893C63.3525 9.47932 62.8827 10.1086 62.4092 10.7363C62.4052 10.5411 62.3846 10.3572 62.3561 10.1755C62.3237 9.98871 62.2652 9.81278 62.1764 9.64372C62.0886 9.47445 61.9958 9.30406 61.93 9.12525C61.86 8.94756 61.7999 8.76609 61.7392 8.58374C61.6781 8.40139 61.6138 8.21793 61.5631 8.03093C61.4436 7.65869 61.3594 7.27693 61.2617 6.8863L61.1514 6.88741C61.0747 7.28446 61.028 7.69104 61.016 8.10006C61.0078 8.30501 61.0138 8.50929 61.0178 8.7158C61.0322 8.92008 61.0466 9.12614 61.0718 9.33065C61.0956 9.5356 61.1077 9.74498 61.1295 9.95436C61.1556 10.1624 61.2159 10.3623 61.3171 10.5462C61.3628 10.627 61.412 10.7068 61.4656 10.7846C61.7272 11.163 61.6978 11.6722 61.4159 12.0358C61.174 12.3482 60.9311 12.6602 60.6916 12.9741C60.3872 13.3714 60.1043 13.7828 59.8377 14.2045C59.8306 14.0365 59.812 13.8759 59.7872 13.7173C59.7548 13.5305 59.6963 13.3546 59.6075 13.1855C59.5198 13.0162 59.4269 12.8458 59.3611 12.6668C59.2911 12.4891 59.2311 12.3076 59.1703 12.1253C59.1092 11.9429 59.0449 11.7595 58.9942 11.5725C58.8748 11.2002 58.7906 10.8185 58.6929 10.4279L58.5825 10.429C58.5059 10.826 58.4591 11.2324 58.4471 11.6416C58.4389 11.8466 58.4449 12.0508 58.4489 12.2573C58.4633 12.4616 58.4777 12.6677 58.503 12.8722C58.5267 13.0772 58.5389 13.2865 58.5606 13.4959C58.5867 13.704 58.647 13.9038 58.7483 14.0877C58.8511 14.2694 58.9712 14.446 59.1223 14.6044C59.2955 14.7859 59.3401 15.0533 59.2248 15.2762C58.9266 15.8532 58.3962 16.9008 58.1525 17.4771C57.8188 18.2822 57.5137 19.1045 57.3098 19.9861L57.4795 20.0891C58.168 19.5057 58.7693 18.8714 59.3421 18.2204C59.9128 17.5681 60.4495 16.8959 60.9575 16.2061C60.9666 16.194 60.9755 16.1818 60.9845 16.1696C61.1485 15.9471 61.4396 15.8769 61.6953 15.9815C61.8839 16.0586 62.0773 16.1056 62.2699 16.1368C62.4775 16.1683 62.686 16.1556 62.89 16.108C63.0939 16.0559 63.2946 15.995 63.4951 15.9462C63.6959 15.8993 63.8942 15.8417 64.0907 15.7843C64.2857 15.7167 64.4796 15.6516 64.669 15.5729C65.0486 15.42 65.4139 15.2355 65.7598 15.0263L65.7226 14.9224C65.3224 14.9658 64.9349 15.0192 64.5445 15.0358C64.3515 15.0531 64.1572 15.0562 63.9649 15.062C63.7728 15.0682 63.5818 15.0746 63.3908 15.0704C63.2002 15.0706 63.0081 15.0427 62.8189 15.0188C62.6297 14.9939 62.4442 14.9999 62.2579 15.0343C62.0565 15.0746 61.8553 15.1269 61.6479 15.2035C61.8903 14.8258 62.1201 14.44 62.3374 14.0465C62.5083 13.7303 62.7436 13.3069 62.9514 12.9353C63.1723 12.5403 63.6219 12.3196 64.065 12.4113C64.2817 12.4561 64.5035 12.4689 64.7036 12.5015C64.9112 12.533 65.1197 12.5203 65.3238 12.4727C65.5276 12.4206 65.7283 12.3597 65.9289 12.311C66.1296 12.264 66.3279 12.2062 66.5244 12.149C66.7194 12.0814 66.9133 12.0163 67.1027 11.9376C67.4823 11.7847 67.8476 11.6002 68.1935 11.3908L68.1563 11.2871C67.7561 11.3305 67.3686 11.3839 66.9782 11.4005C66.7852 11.4178 66.5909 11.4209 66.3986 11.4267C66.2065 11.4329 66.0155 11.4393 65.8245 11.4351C65.6339 11.4353 65.4418 11.4072 65.2526 11.3835C65.0634 11.3587 64.878 11.3646 64.6916 11.399C64.3367 11.4701 63.9837 11.5747 63.5911 11.7998C64.0324 11.0695 64.468 10.3339 64.9203 9.61093L64.9371 9.58235C65.2023 9.13655 65.6889 8.85383 66.2069 8.88485C66.3534 8.89371 66.4981 8.8884 66.6401 8.87532C66.849 8.85383 67.0476 8.78936 67.2334 8.69231C67.4178 8.59105 67.5968 8.4816 67.7787 8.38433C67.9613 8.28861 68.1388 8.18314 68.3149 8.07834C68.4869 7.96401 68.6581 7.85256 68.8219 7.72893C69.1511 7.48587 69.4584 7.21578 69.7412 6.92663L69.6791 6.83534C69.304 6.97737 68.9422 7.12604 68.5684 7.23993Z" fill="url(#paint5_linear)"/>
<path d="M57.7552 21.4739C57.2985 21.5124 56.8273 21.5333 56.3482 21.5333C56.0101 21.5333 55.6784 21.5237 55.3514 21.5029C55.3113 19.1809 55.0565 16.3317 54.2905 13.4823C53.8354 11.7853 53.1975 10.0866 52.3146 8.49859C50.821 5.81451 49.3099 4.70223 49.2939 4.69115C48.7586 4.30341 48.6337 3.55495 49.0167 3.01654C49.4014 2.47968 50.1434 2.34984 50.6834 2.72961C50.903 2.88338 54.85 5.75513 56.7504 13.3589C57.3191 15.6265 57.7038 18.3121 57.7552 21.4739Z" fill="url(#paint6_linear)"/>
<path d="M65.7651 18.6143C65.4195 18.8719 65.0641 19.09 64.6996 19.2825C64.3285 19.4662 63.956 19.6328 63.5725 19.7728C62.8094 20.0582 62.021 20.2627 61.2278 20.4245C59.639 20.7449 58.0184 20.8796 56.397 20.8811C54.7786 20.8754 53.153 20.7435 51.5659 20.4236C50.7707 20.2658 49.987 20.0522 49.2228 19.7697C48.8359 19.635 48.4684 19.4615 48.0946 19.2816C47.9153 19.1824 47.727 19.0886 47.5555 18.9712C47.3698 18.8684 47.2087 18.7361 47.0284 18.6143C47.269 19.0295 47.5852 19.4015 47.9424 19.735L63.3602 35.1528C63.722 35.5459 64.1457 35.8906 64.591 36.1875C65.3246 36.6776 66.1283 37.0579 66.9565 37.3499C68.6194 37.9315 70.3724 38.1885 72.1232 38.1916C73.8703 38.189 75.6287 37.9286 77.2889 37.3466C78.1158 37.0499 78.9218 36.6796 79.6548 36.1873C80.3822 35.697 81.0584 35.0894 81.4914 34.3403L65.7651 18.6143Z" fill="url(#paint7_linear)"/>
<path d="M65.7651 18.6143C65.3322 19.3634 64.6559 19.9709 63.9285 20.4613C63.1956 20.9536 62.3895 21.3238 61.5626 21.6205C59.9026 22.2026 58.144 22.4629 56.397 22.4656C54.6461 22.4622 52.8933 22.2054 51.2302 21.6238C50.4018 21.332 49.5984 20.9516 48.8647 20.4615C48.1356 19.9749 47.4615 19.3623 47.0284 18.6143C47.209 18.7361 47.3698 18.8682 47.5555 18.9712C47.7272 19.0884 47.9153 19.1824 48.0946 19.2816C48.4684 19.4615 48.8357 19.6352 49.2228 19.7697C49.987 20.0522 50.7707 20.2658 51.5659 20.4236C53.153 20.7435 54.7789 20.8754 56.3972 20.8811C58.0186 20.8798 59.639 20.7449 61.2281 20.4245C62.0215 20.2627 62.8096 20.0584 63.5727 19.7728C63.9562 19.6328 64.3285 19.466 64.6998 19.2825C65.0641 19.09 65.4195 18.8719 65.7651 18.6143Z" fill="url(#paint8_linear)"/>
<path d="M47.0381 47.2282C54.7693 47.2282 61.0366 40.1342 61.0366 31.3834C61.0366 22.6325 54.7693 15.5386 47.0381 15.5386C39.307 15.5386 33.0396 22.6325 33.0396 31.3834C33.0396 40.1342 39.307 47.2282 47.0381 47.2282Z" fill="url(#paint9_linear)"/>
<path d="M100.542 98.401V110.217C100.542 111.754 99.2958 113 97.7588 113H21.1031C18.7035 113 16.5299 112.027 14.9568 110.454C13.3836 108.881 12.4109 106.707 12.4109 104.308C12.4109 99.5084 16.3017 95.6177 21.1031 95.6177H97.759C99.296 95.6179 100.542 96.864 100.542 98.401Z" fill="url(#paint10_linear)"/>
<path d="M100.542 98.401V110.217C100.542 111.754 99.2958 113 97.7588 113H21.1031C18.7035 113 16.5299 112.027 14.9568 110.454C13.3836 108.881 12.4109 106.707 12.4109 104.308C12.4109 99.5084 16.3017 95.6177 21.1031 95.6177H97.759C99.296 95.6179 100.542 96.864 100.542 98.401Z" fill="url(#paint11_linear)"/>
<path d="M94.2872 110.894H21.6854C18.0485 110.894 15.1001 107.946 15.1001 104.309C15.1001 100.672 18.0483 97.7236 21.6854 97.7236H94.6572C96.0706 97.7236 97.2164 98.8694 97.2164 100.283V107.965C97.2164 109.583 95.9049 110.894 94.2872 110.894Z" fill="url(#paint12_linear)"/>
<path d="M15.8639 107.387C16.9691 109.472 19.1608 110.894 21.6854 110.894H94.287C95.9049 110.894 97.2163 109.582 97.2163 107.965V107.387H15.8639V107.387Z" fill="url(#paint13_linear)"/>
<path d="M21.6854 110.894H94.287C95.9049 110.894 97.2163 109.583 97.2163 107.965V104.309H15.1003C15.1003 107.946 18.0485 110.894 21.6854 110.894Z" fill="url(#paint14_linear)"/>
<path d="M15.8317 101.294C15.3653 102.198 15.1003 103.222 15.1003 104.309C15.1003 107.946 18.0485 110.894 21.6856 110.894H94.2872C95.9051 110.894 97.2166 109.583 97.2166 107.965V101.294H15.8317V101.294Z" fill="url(#paint15_linear)"/>
<path d="M40.5962 101.294L52.1455 112.843H24.9025V101.294H40.5962Z" fill="url(#paint16_linear)"/>
<path d="M24.2587 101.294V112.59C24.2587 112.921 24.6309 113.115 24.9023 112.926L31.6529 108.223C32.1181 107.898 32.7363 107.898 33.2016 108.223L39.9521 112.926C40.2238 113.115 40.5958 112.921 40.5958 112.59V101.294H24.2587Z" fill="url(#paint17_linear)"/>
<path d="M14.392 81.0187V92.8343C14.392 94.3713 15.6381 95.6174 17.1751 95.6174H91.8969C94.2965 95.6174 96.4701 94.6447 98.0432 93.0716C99.6164 91.4985 100.589 89.3249 100.589 86.9253C100.589 82.1261 96.6983 78.2354 91.8969 78.2354H17.1751C15.6381 78.2356 14.392 79.4817 14.392 81.0187Z" fill="url(#paint18_linear)"/>
<path d="M17.1751 78.2358H46.3717C44.8344 78.2358 43.5885 79.4819 43.5885 81.019V92.8345C43.5885 94.3716 44.8346 95.6177 46.3717 95.6177H17.1751C15.6379 95.6177 14.392 94.3716 14.392 92.8345V81.019C14.392 79.4819 15.6381 78.2358 17.1751 78.2358Z" fill="url(#paint19_linear)"/>
<path d="M15.3873 93.5118H91.3147C94.9515 93.5118 97.8999 90.5636 97.8999 86.9266C97.8999 83.2897 94.9517 80.3413 91.3147 80.3413H15.017C13.6037 80.3413 12.4579 81.487 12.4579 82.9004V90.5824C12.4579 92.2003 13.7696 93.5118 15.3873 93.5118Z" fill="url(#paint20_linear)"/>
<path d="M97.1361 90.0049C96.031 92.0905 93.8392 93.5121 91.3147 93.5121H15.3873C13.7694 93.5121 12.4579 92.2006 12.4579 90.583V90.0051H97.1361V90.0049Z" fill="url(#paint21_linear)"/>
<path d="M91.3147 93.5118H15.3873C13.7694 93.5118 12.4579 92.2003 12.4579 90.5826V86.9268H97.8997C97.8997 90.5636 94.9515 93.5118 91.3147 93.5118Z" fill="url(#paint22_linear)"/>
<path d="M97.1683 83.9121C97.6347 84.8157 97.8997 85.8402 97.8997 86.9272C97.8997 90.564 94.9515 93.5125 91.3144 93.5125H15.3873C13.7694 93.5125 12.4579 92.201 12.4579 90.5833V83.9123H97.1683V83.9121Z" fill="url(#paint23_linear)"/>
<path d="M14.9701 80.3418H43.6749C43.6204 80.5589 43.5885 80.7852 43.5885 81.0191V92.8347C43.5885 93.0687 43.6207 93.2949 43.6749 93.5121H15.3401C13.7222 93.5121 12.4107 92.2006 12.4107 90.5827V82.9007C12.4109 81.4875 13.5567 80.3418 14.9701 80.3418Z" fill="url(#paint24_linear)"/>
<path d="M98.608 63.6374V75.4529C98.608 76.99 97.3619 78.2361 95.8249 78.2361H21.1031C18.7035 78.2361 16.5299 77.2634 14.9568 75.6902C13.3836 74.1171 12.4109 71.9435 12.4109 69.5439C12.4109 64.7448 16.3017 60.854 21.1031 60.854H95.8249C97.3619 60.854 98.608 62.1001 98.608 63.6374Z" fill="url(#paint25_linear)"/>
<path d="M95.8249 78.2359C97.3621 78.2359 98.608 76.9897 98.608 75.4527V63.6371C98.608 62.0999 97.3619 60.854 95.8249 60.854H45.2873L62.6694 78.2361H95.8249V78.2359Z" fill="url(#paint26_linear)"/>
<path d="M95.8249 60.854H66.6284C68.1656 60.854 69.4115 62.1001 69.4115 63.6371V75.4527C69.4115 76.9897 68.1654 78.2358 66.6284 78.2358H95.8249C97.3621 78.2358 98.608 76.9897 98.608 75.4527V63.6371C98.608 62.1001 97.3619 60.854 95.8249 60.854Z" fill="url(#paint27_linear)"/>
<path d="M97.6127 76.1299H21.6854C18.0485 76.1299 15.1001 73.1818 15.1001 69.5447C15.1001 65.9079 18.0483 62.9595 21.6854 62.9595H97.9827C99.3961 62.9595 100.542 64.1052 100.542 65.5186V73.2006C100.542 74.8185 99.2304 76.1299 97.6127 76.1299Z" fill="url(#paint28_linear)"/>
<path d="M15.8639 72.623C16.9691 74.7087 19.1608 76.1303 21.6854 76.1303H97.6125C99.2304 76.1303 100.542 74.8188 100.542 73.2011V72.6233H15.8639V72.623Z" fill="url(#paint29_linear)"/>
<path d="M21.6854 76.1299H97.6125C99.2304 76.1299 100.542 74.8185 100.542 73.2008V69.5449H15.1003C15.1003 73.1817 18.0485 76.1299 21.6854 76.1299Z" fill="url(#paint30_linear)"/>
<path d="M15.8317 66.5298C15.3653 67.4333 15.1003 68.4579 15.1003 69.5449C15.1003 73.1817 18.0485 76.1301 21.6856 76.1301H97.6127C99.2306 76.1301 100.542 74.8187 100.542 73.201V66.53H15.8317V66.5298Z" fill="url(#paint31_linear)"/>
<path d="M47.3929 62.9597L60.5631 76.1299H97.6125C97.9437 76.1299 98.2608 76.0723 98.5577 75.9711C98.5894 75.8029 98.6078 75.6301 98.6078 75.4526V63.637C98.6078 63.4252 98.5821 63.2198 98.5373 63.0215C98.3585 62.9821 98.1733 62.9595 97.9827 62.9595H47.3929V62.9597Z" fill="url(#paint32_linear)"/>
<path d="M98.0299 62.9595H69.3251C69.3796 63.1766 69.4115 63.4028 69.4115 63.6368V75.4524C69.4115 75.6864 69.3793 75.9126 69.3251 76.1297H97.6597C99.2776 76.1297 100.589 74.8183 100.589 73.2004V65.5184C100.589 64.1052 99.4433 62.9595 98.0299 62.9595Z" fill="url(#paint33_linear)"/>
</g>
<defs>
<radialGradient id="paint0_radial" cx="0" cy="0" r="1" gradientUnits="userSpaceOnUse" gradientTransform="translate(44.4052 25.9532) scale(38.0376)">
<stop stop-color="#FF7044"/>
<stop offset="0.2389" stop-color="#FF6C41"/>
<stop offset="0.473" stop-color="#FE603A"/>
<stop offset="0.7053" stop-color="#FC4D2C"/>
<stop offset="0.9351" stop-color="#FA311A"/>
<stop offset="1" stop-color="#F92814"/>
</radialGradient>
<linearGradient id="paint1_linear" x1="67.8924" y1="21.4046" x2="64.954" y2="11.1925" gradientUnits="userSpaceOnUse">
<stop stop-color="#FF1D25" stop-opacity="0"/>
<stop offset="1" stop-color="#FF1D25"/>
</linearGradient>
<linearGradient id="paint2_linear" x1="70.6906" y1="24.599" x2="60.5844" y2="6.8859" gradientUnits="userSpaceOnUse">
<stop stop-color="#F92814" stop-opacity="0"/>
<stop offset="1" stop-color="#C1272D"/>
</linearGradient>
<linearGradient id="paint3_linear" x1="62.776" y1="8.81717" x2="74.5708" y2="17.7828" gradientUnits="userSpaceOnUse">
<stop stop-color="#92F37F"/>
<stop offset="1" stop-color="#4AB272"/>
</linearGradient>
<linearGradient id="paint4_linear" x1="69.6949" y1="13.0298" x2="59.4589" y2="7.33204" gradientUnits="userSpaceOnUse">
<stop stop-color="#4AB272" stop-opacity="0"/>
<stop offset="1" stop-color="#009245"/>
</linearGradient>
<linearGradient id="paint5_linear" x1="60.9539" y1="9.66931" x2="63.8191" y2="12.0426" gradientUnits="userSpaceOnUse">
<stop stop-color="#4AB272" stop-opacity="0"/>
<stop offset="1" stop-color="#009245"/>
</linearGradient>
<linearGradient id="paint6_linear" x1="48.7945" y1="12.0224" x2="57.7552" y2="12.0224" gradientUnits="userSpaceOnUse">
<stop stop-color="#7E8595"/>
<stop offset="1" stop-color="#555A66"/>
</linearGradient>
<linearGradient id="paint7_linear" x1="66.3602" y1="31.0183" x2="56.1933" y2="9.03939" gradientUnits="userSpaceOnUse">
<stop stop-color="#F92814" stop-opacity="0"/>
<stop offset="1" stop-color="#C1272D"/>
</linearGradient>
<linearGradient id="paint8_linear" x1="56.3968" y1="17.4521" x2="56.3968" y2="23.0888" gradientUnits="userSpaceOnUse">
<stop stop-color="#7E8595"/>
<stop offset="1" stop-color="#555A66"/>
</linearGradient>
<linearGradient id="paint9_linear" x1="49.4488" y1="33.0084" x2="21.9229" y2="14.4549" gradientUnits="userSpaceOnUse">
<stop stop-color="#FF7044" stop-opacity="0"/>
<stop offset="0.2503" stop-color="#FF813A" stop-opacity="0.25"/>
<stop offset="0.7194" stop-color="#FF9A2B" stop-opacity="0.719"/>
<stop offset="1" stop-color="#FFA425"/>
</linearGradient>
<linearGradient id="paint10_linear" x1="42.087" y1="87.7684" x2="89.6684" y2="136.663" gradientUnits="userSpaceOnUse">
<stop stop-color="#18CFFC"/>
<stop offset="1" stop-color="#4A98F7"/>
</linearGradient>
<linearGradient id="paint11_linear" x1="56.2078" y1="98.395" x2="58.2019" y2="121.327" gradientUnits="userSpaceOnUse">
<stop stop-color="#0469BC" stop-opacity="0"/>
<stop offset="1" stop-color="#0469BC"/>
</linearGradient>
<linearGradient id="paint12_linear" x1="56.1584" y1="99.706" x2="56.1584" y2="110.686" gradientUnits="userSpaceOnUse">
<stop stop-color="#F9F7FC"/>
<stop offset="1" stop-color="#F0DDFC"/>
</linearGradient>
<linearGradient id="paint13_linear" x1="56.4112" y1="111.024" x2="57.0021" y2="95.8093" gradientUnits="userSpaceOnUse">
<stop stop-color="#F0DDFC" stop-opacity="0"/>
<stop offset="0.2889" stop-color="#C8B7E0" stop-opacity="0.289"/>
<stop offset="0.5915" stop-color="#A595C8" stop-opacity="0.592"/>
<stop offset="0.8395" stop-color="#8F81B8" stop-opacity="0.84"/>
<stop offset="1" stop-color="#8779B3"/>
</linearGradient>
<linearGradient id="paint14_linear" x1="56.1583" y1="107.535" x2="56.1583" y2="99.8538" gradientUnits="userSpaceOnUse">
<stop stop-color="#F0DDFC" stop-opacity="0"/>
<stop offset="0.2889" stop-color="#C8B7E0" stop-opacity="0.289"/>
<stop offset="0.5915" stop-color="#A595C8" stop-opacity="0.592"/>
<stop offset="0.8395" stop-color="#8F81B8" stop-opacity="0.84"/>
<stop offset="1" stop-color="#8779B3"/>
</linearGradient>
<linearGradient id="paint15_linear" x1="56.2297" y1="103.682" x2="56.3775" y2="98.6593" gradientUnits="userSpaceOnUse">
<stop stop-color="#F0DDFC" stop-opacity="0"/>
<stop offset="0.2889" stop-color="#C8B7E0" stop-opacity="0.289"/>
<stop offset="0.5915" stop-color="#A595C8" stop-opacity="0.592"/>
<stop offset="0.8395" stop-color="#8F81B8" stop-opacity="0.84"/>
<stop offset="1" stop-color="#8779B3"/>
</linearGradient>
<linearGradient id="paint16_linear" x1="38.621" y1="113.225" x2="35.9067" y2="102.535" gradientUnits="userSpaceOnUse">
<stop stop-color="#F0DDFC" stop-opacity="0"/>
<stop offset="0.2889" stop-color="#C8B7E0" stop-opacity="0.289"/>
<stop offset="0.5915" stop-color="#A595C8" stop-opacity="0.592"/>
<stop offset="0.8395" stop-color="#8F81B8" stop-opacity="0.84"/>
<stop offset="1" stop-color="#8779B3"/>
</linearGradient>
<linearGradient id="paint17_linear" x1="28.7162" y1="102.184" x2="39.7716" y2="116.565" gradientUnits="userSpaceOnUse">
<stop stop-color="#FF7044"/>
<stop offset="1" stop-color="#F92814"/>
</linearGradient>
<linearGradient id="paint18_linear" x1="62.6707" y1="73.3994" x2="49.5966" y2="101.727" gradientUnits="userSpaceOnUse">
<stop stop-color="#92F37F"/>
<stop offset="1" stop-color="#4AB272"/>
</linearGradient>
<linearGradient id="paint19_linear" x1="20.217" y1="86.9269" x2="58.4846" y2="86.9269" gradientUnits="userSpaceOnUse">
<stop stop-color="#4AB272" stop-opacity="0"/>
<stop offset="1" stop-color="#009245"/>
</linearGradient>
<linearGradient id="paint20_linear" x1="55.1788" y1="82.3237" x2="55.1788" y2="93.3033" gradientUnits="userSpaceOnUse">
<stop stop-color="#F9F7FC"/>
<stop offset="1" stop-color="#F0DDFC"/>
</linearGradient>
<linearGradient id="paint21_linear" x1="54.9275" y1="93.682" x2="54.3249" y2="78.1627" gradientUnits="userSpaceOnUse">
<stop stop-color="#F0DDFC" stop-opacity="0"/>
<stop offset="0.2889" stop-color="#C8B7E0" stop-opacity="0.289"/>
<stop offset="0.5915" stop-color="#A595C8" stop-opacity="0.592"/>
<stop offset="0.8395" stop-color="#8F81B8" stop-opacity="0.84"/>
<stop offset="1" stop-color="#8779B3"/>
</linearGradient>
<linearGradient id="paint22_linear" x1="55.1788" y1="90.1524" x2="55.1788" y2="82.4715" gradientUnits="userSpaceOnUse">
<stop stop-color="#F0DDFC" stop-opacity="0"/>
<stop offset="0.2889" stop-color="#C8B7E0" stop-opacity="0.289"/>
<stop offset="0.5915" stop-color="#A595C8" stop-opacity="0.592"/>
<stop offset="0.8395" stop-color="#8F81B8" stop-opacity="0.84"/>
<stop offset="1" stop-color="#8779B3"/>
</linearGradient>
<linearGradient id="paint23_linear" x1="55.107" y1="86.2805" x2="54.9579" y2="81.2167" gradientUnits="userSpaceOnUse">
<stop stop-color="#F0DDFC" stop-opacity="0"/>
<stop offset="0.2889" stop-color="#C8B7E0" stop-opacity="0.289"/>
<stop offset="0.5915" stop-color="#A595C8" stop-opacity="0.592"/>
<stop offset="0.8395" stop-color="#8F81B8" stop-opacity="0.84"/>
<stop offset="1" stop-color="#8779B3"/>
</linearGradient>
<linearGradient id="paint24_linear" x1="20.5556" y1="86.927" x2="75.0391" y2="86.927" gradientUnits="userSpaceOnUse">
<stop stop-color="#F0DDFC" stop-opacity="0"/>
<stop offset="0.2889" stop-color="#C8B7E0" stop-opacity="0.289"/>
<stop offset="0.5915" stop-color="#A595C8" stop-opacity="0.592"/>
<stop offset="0.8395" stop-color="#8F81B8" stop-opacity="0.84"/>
<stop offset="1" stop-color="#8779B3"/>
</linearGradient>
<linearGradient id="paint25_linear" x1="50.3293" y1="56.0178" x2="63.4034" y2="84.3449" gradientUnits="userSpaceOnUse">
<stop stop-color="#FFDA45"/>
<stop offset="1" stop-color="#FFA425"/>
</linearGradient>
<linearGradient id="paint26_linear" x1="76.8611" y1="76.6468" x2="62.0159" y2="32.4438" gradientUnits="userSpaceOnUse">
<stop stop-color="#FFDA45" stop-opacity="0"/>
<stop offset="1" stop-color="#B53759"/>
</linearGradient>
<linearGradient id="paint27_linear" x1="92.783" y1="69.545" x2="54.5154" y2="69.545" gradientUnits="userSpaceOnUse">
<stop stop-color="#FFDA45" stop-opacity="0"/>
<stop offset="1" stop-color="#B53759"/>
</linearGradient>
<linearGradient id="paint28_linear" x1="57.8212" y1="64.9418" x2="57.8212" y2="75.9214" gradientUnits="userSpaceOnUse">
<stop stop-color="#F9F7FC"/>
<stop offset="1" stop-color="#F0DDFC"/>
</linearGradient>
<linearGradient id="paint29_linear" x1="58.0725" y1="76.3002" x2="58.6752" y2="60.7809" gradientUnits="userSpaceOnUse">
<stop stop-color="#F0DDFC" stop-opacity="0"/>
<stop offset="0.2889" stop-color="#C8B7E0" stop-opacity="0.289"/>
<stop offset="0.5915" stop-color="#A595C8" stop-opacity="0.592"/>
<stop offset="0.8395" stop-color="#8F81B8" stop-opacity="0.84"/>
<stop offset="1" stop-color="#8779B3"/>
</linearGradient>
<linearGradient id="paint30_linear" x1="57.8212" y1="72.7707" x2="57.8212" y2="65.0896" gradientUnits="userSpaceOnUse">
<stop stop-color="#F0DDFC" stop-opacity="0"/>
<stop offset="0.2889" stop-color="#C8B7E0" stop-opacity="0.289"/>
<stop offset="0.5915" stop-color="#A595C8" stop-opacity="0.592"/>
<stop offset="0.8395" stop-color="#8F81B8" stop-opacity="0.84"/>
<stop offset="1" stop-color="#8779B3"/>
</linearGradient>
<linearGradient id="paint31_linear" x1="57.8932" y1="68.8984" x2="58.0421" y2="63.8344" gradientUnits="userSpaceOnUse">
<stop stop-color="#F0DDFC" stop-opacity="0"/>
<stop offset="0.2889" stop-color="#C8B7E0" stop-opacity="0.289"/>
<stop offset="0.5915" stop-color="#A595C8" stop-opacity="0.592"/>
<stop offset="0.8395" stop-color="#8F81B8" stop-opacity="0.84"/>
<stop offset="1" stop-color="#8779B3"/>
</linearGradient>
<linearGradient id="paint32_linear" x1="81.0294" y1="76.1612" x2="49.0128" y2="23.871" gradientUnits="userSpaceOnUse">
<stop stop-color="#F0DDFC" stop-opacity="0"/>
<stop offset="0.2889" stop-color="#C8B7E0" stop-opacity="0.289"/>
<stop offset="0.5915" stop-color="#A595C8" stop-opacity="0.592"/>
<stop offset="0.8395" stop-color="#8F81B8" stop-opacity="0.84"/>
<stop offset="1" stop-color="#8779B3"/>
</linearGradient>
<linearGradient id="paint33_linear" x1="92.4444" y1="69.5447" x2="37.9609" y2="69.5447" gradientUnits="userSpaceOnUse">
<stop stop-color="#F0DDFC" stop-opacity="0"/>
<stop offset="0.2889" stop-color="#C8B7E0" stop-opacity="0.289"/>
<stop offset="0.5915" stop-color="#A595C8" stop-opacity="0.592"/>
<stop offset="0.8395" stop-color="#8F81B8" stop-opacity="0.84"/>
<stop offset="1" stop-color="#8779B3"/>
</linearGradient>
<clipPath id="clip0">
<rect width="113" height="113" fill="white"/>
</clipPath>
</defs>
</svg>