<svg width="125" height="112" viewBox="0 0 125 112" fill="none" xmlns="http://www.w3.org/2000/svg">
<path d="M11.7554 58.3496C5.4858 44.2517 -2.54712 15.8601 2.74285 8.22377C8.22875 0.391604 19.9842 9.5944 29.9764 21.7343" fill="#EDDACE"/>
<path d="M11.7554 58.3496C5.4858 44.2517 -2.54712 15.8601 2.74285 8.22377C8.22875 0.391605 19.9842 9.5944 29.9764 21.7343" stroke="#9C6C86" stroke-miterlimit="10"/>
<path d="M19.7887 33.2867C18.2213 28.979 12.7354 15.8602 7.05357 11.5525C5.87802 10.7692 4.70248 11.3567 4.50655 12.7273C3.13508 20.7553 5.09433 31.3287 10.3843 46.014C10.9721 47.7762 12.5395 52.6713 13.3232 51.3007L18.8091 35.4406C19.005 34.8532 19.9846 34.0699 19.7887 33.2867Z" fill="#F2A3A6"/>
<path d="M119.71 45.0349C126.567 72.0559 106.779 100.643 75.2351 108.671C43.6912 116.699 6.66144 103.385 9.20847 75.5804C11.7555 49.7342 18.6129 18.6014 50.1567 10.5734C81.7006 2.54543 112.853 17.8182 119.71 45.0349Z" fill="#FAEFE7" stroke="#9C6C86" stroke-miterlimit="10"/>
<path d="M120.689 54.8251C126.567 41.9021 122.844 5.67828 114.224 1.76219C105.603 -2.15389 93.2596 10.5734 87.3818 23.4965" fill="#FAEFE7"/>
<path d="M120.689 54.8251C126.567 41.9021 122.844 5.67828 114.224 1.76219C105.603 -2.15389 93.2596 10.5734 87.3818 23.4965" stroke="#9C6C86" stroke-miterlimit="10" stroke-linecap="round"/>
<path d="M28.4092 24.2797C19.5926 32.3077 13.1271 46.7972 10.5801 73.0349C7.44529 103.972 40.7525 111.804 64.4594 109.455C64.4594 109.455 20.5723 102.993 21.7478 66.7692C21.9437 60.3077 21.356 52.8671 23.903 40.3356C26.8418 27.0209 33.1114 20.1678 28.4092 24.2797Z" fill="#EDDACE"/>
<path d="M88.945 61.6568C93.7786 60.4689 97.5295 58.8249 97.3228 57.9848C97.1161 57.1447 93.0301 57.4266 88.1964 58.6145C83.3628 59.8024 79.6119 61.4464 79.8186 62.2865C80.0253 63.1267 84.1114 62.8447 88.945 61.6568Z" fill="#9C6C86"/>
<path d="M31.203 72.7747C35.958 71.3033 39.6051 69.4405 39.349 68.6141C39.0929 67.7876 35.0307 68.3105 30.2757 69.7819C25.5207 71.2533 21.8736 73.1161 22.1297 73.9426C22.3857 74.769 26.448 74.2462 31.203 72.7747Z" fill="#9C6C86"/>
<path d="M71.5127 83.8042C71.7086 84.3916 71.7086 84.979 71.3168 85.7622C69.9453 88.3076 66.8105 89.4825 64.0676 88.6993C63.0879 88.5034 62.5002 88.1118 62.1083 87.5244C61.1287 86.1538 64.6553 83.8042 65.8309 83.4125C67.2024 82.8251 70.9249 82.2377 71.5127 83.8042Z" fill="#201600"/>
<path d="M78.9579 88.6993C79.3498 89.4826 79.9375 92.028 79.5457 92.2238C79.1538 92.4196 77.1946 89.8742 76.8027 89.091" fill="#FCFCFC"/>
<path d="M78.9579 88.6993C79.3498 89.4826 79.9375 92.028 79.5457 92.2238C79.1538 92.4196 77.1946 89.8742 76.8027 89.091" stroke="#9C6C86" stroke-width="0.25" stroke-miterlimit="10" stroke-linecap="round"/>
<path d="M64.0669 94.1816C64.0669 94.9649 63.4791 98.2935 62.8914 98.2935C62.4995 98.2935 61.7158 95.9439 61.7158 95.1607" fill="#FCFCFC"/>
<path d="M64.0669 94.1816C64.0669 94.9649 63.4791 98.2935 62.8914 98.2935C62.4995 98.2935 61.7158 95.9439 61.7158 95.1607" stroke="#9C6C86" stroke-width="0.25" stroke-miterlimit="10" stroke-linecap="round"/>
<path d="M59.9521 97.7061C60.7358 92.811 65.0462 94.7691 69.9443 92.811C74.8424 90.853 78.565 86.1537 81.3079 89.4824" stroke="#9C6C86" stroke-width="0.5" stroke-miterlimit="10" stroke-linecap="round" stroke-linejoin="round"/>
<path d="M101.097 34.6573C101.88 29.7622 104.819 13.1189 111.481 7.04894C112.656 5.87411 114.615 6.26572 115.399 7.83216C119.71 16.2517 121.277 28.979 118.73 46.2098C118.338 48.1678 115.987 49.1468 114.615 47.7762L102.076 37.007C101.293 36.4196 101.097 35.4405 101.097 34.6573Z" fill="#F2A3A6"/>
<path opacity="0.8" d="M47.7205 102.17C49.2725 97.4433 43.6959 91.3702 35.2649 88.6053C26.8338 85.8404 18.741 87.4308 17.189 92.1575C15.637 96.8842 21.2136 102.957 29.6447 105.722C38.0757 108.487 46.1685 106.897 47.7205 102.17Z" fill="#F2A3A6"/>
<path opacity="0.8" d="M105.978 90.8148C113.323 84.4244 116.397 75.9381 112.845 71.8602C109.292 67.7822 100.458 69.6568 93.1134 76.0473C85.7686 82.4377 82.6943 90.9239 86.2467 95.0019C89.7991 99.0798 98.633 97.2052 105.978 90.8148Z" fill="#F2A3A6"/>
<path d="M98.5494 74.4055C103.839 66.1818 101.488 56.5874 100.509 60.895C99.3331 65.986 98.7453 69.3146 95.0227 73.6223C90.9083 78.5174 86.4021 79.4964 81.6999 82.0419C77.5854 83.9999 93.2594 82.6293 98.5494 74.4055Z" fill="#201600"/>
<path d="M33.1115 86.5454C30.1726 84.979 26.45 82.2377 23.3152 77.3426C20.7682 73.6223 23.7071 85.3706 32.7196 89.4825C41.9281 93.7901 57.2102 87.1328 47.414 87.7202C41.3403 88.3076 36.834 88.5034 33.1115 86.5454Z" fill="#201600"/>
<path d="M8.2291 74.2096C13.5191 70.4894 22.5316 74.7971 26.4501 80.0838C30.1727 85.3705 31.936 93.9859 26.4501 97.7062C20.9642 101.426 11.5598 98.6852 7.83725 93.3985C4.11468 88.1117 2.7432 78.1257 8.2291 74.2096Z" fill="#FAEFE7" stroke="#9C6C86" stroke-miterlimit="10"/>
<path d="M8.81692 74.9928C3.33102 78.7131 5.09435 86.9369 7.83729 91.832C11.168 97.5103 18.8091 100.447 23.9031 97.9019C23.9031 97.9019 17.2417 95.5522 12.9313 88.3075C8.62099 81.0627 8.81692 74.9928 8.81692 74.9928Z" fill="#EDDACE"/>
<path d="M28.9967 85.762L20.376 89.0907" stroke="#9C6C86" stroke-width="0.5" stroke-miterlimit="10" stroke-linecap="round" stroke-linejoin="round"/>
<path d="M18.8091 74.7972L14.8906 82.4335" stroke="#9C6C86" stroke-width="0.5" stroke-miterlimit="10" stroke-linecap="round" stroke-linejoin="round"/>
<path d="M107.563 80.867C101.489 78.5174 99.922 68.7272 102.273 62.6572C104.624 56.5873 110.502 50.3216 116.772 52.6712C122.845 55.0209 125.784 64.4195 123.629 70.4894C121.082 76.5593 113.637 83.2167 107.563 80.867Z" fill="#FAEFE7" stroke="#9C6C86" stroke-miterlimit="10"/>
<path d="M108.935 80.0837C115.008 81.0627 120.886 73.818 122.257 69.9019C124.217 64.2236 122.062 55.9998 116.576 53.8459C116.576 53.8459 119.123 61.0907 116.772 68.3355C114.225 76.5592 108.935 80.0837 108.935 80.0837Z" fill="#EDDACE"/>
<path d="M105.017 57.3704L112.854 62.4613" stroke="#9C6C86" stroke-width="0.5" stroke-miterlimit="10" stroke-linecap="round" stroke-linejoin="round"/>
<path d="M101.881 71.86L110.306 70.6852" stroke="#9C6C86" stroke-width="0.5" stroke-miterlimit="10" stroke-linecap="round" stroke-linejoin="round"/>
</svg>