<svg width="114" height="115" viewBox="0 0 114 115" fill="none" xmlns="http://www.w3.org/2000/svg">
<path d="M109.298 70.9574C112.684 94.4844 86.5353 112.365 58.6937 114.059C36.6838 115.188 -0.375571 102.766 2.44621 73.4042C4.89176 45.9247 16.7432 15.0573 51.169 13.3633C92.1789 11.2929 105.159 41.2193 109.298 70.9574Z" fill="#FAEFE7" stroke="#9C6C86" stroke-miterlimit="10"/>
<path d="M108.169 70.581C111.555 92.9787 86.3468 110.859 58.5052 112.553C36.4953 113.682 0.752725 102.013 3.57451 72.6514C3.57451 72.6514 15.9903 108.601 59.2577 105.966C102.525 103.331 108.169 70.581 108.169 70.581Z" fill="#EDDACE"/>
<path d="M105.347 53.6415C112.872 43.6661 116.258 11.8576 109.674 6.77575C103.09 1.88213 89.9212 10.5401 82.3965 20.5155" fill="#FAEFE7"/>
<path d="M105.347 53.6415C112.872 43.6661 116.258 11.8576 109.674 6.77575C103.09 1.88213 89.9212 10.5401 82.3965 20.5155" stroke="#9C6C86" stroke-miterlimit="10" stroke-linecap="round"/>
<path d="M92.3662 32.7496C93.8712 28.6089 99.7029 14.8691 106.475 10.9166C107.792 10.1637 109.297 10.9166 109.673 12.2341C111.931 20.1392 110.802 31.4321 105.346 45.7365C104.782 47.4305 102.525 47.8069 101.396 46.3012L92.5543 34.82C92.1781 34.2554 91.99 33.5025 92.3662 32.7496Z" fill="#F2A3A6"/>
<path d="M6.77263 53.6416C0.188474 43.1015 -1.5046 7.90507 5.07956 3.38789C11.6637 -1.1293 25.9608 9.59902 32.3568 20.1391" fill="#FAEFE7"/>
<path d="M6.77263 53.6416C0.188474 43.1015 -1.5046 7.90507 5.07956 3.38789C11.6637 -1.1293 25.9608 9.59902 32.3568 20.1391" stroke="#9C6C86" stroke-miterlimit="10" stroke-linecap="round"/>
<path d="M19.7531 30.3028C18.6244 25.9738 14.1095 11.8576 7.90158 7.52861C6.77286 6.77575 5.26791 7.3404 4.89168 8.65791C2.25801 16.563 2.63425 27.8559 6.77286 42.5368C7.33722 44.2307 9.21841 44.6072 10.3471 43.2897L19.3768 32.1849C19.9412 31.8085 20.1293 31.0556 19.7531 30.3028Z" fill="#F2A3A6"/>
<path d="M81.6438 71.8986C90.8617 67.3814 96.129 61.3585 94.0597 57.0295C91.9904 52.7005 79.3864 54.0181 71.2973 59.8528C66.9706 63.0524 64.525 65.4992 63.9607 68.6989C63.0201 73.4043 72.426 76.4158 81.6438 71.8986Z" fill="#201600"/>
<path d="M92.4621 52.6009C92.827 51.5174 90.4891 49.7511 87.2402 48.6558C83.9913 47.5605 81.0618 47.551 80.6969 48.6345C80.332 49.718 82.6699 51.4843 85.9188 52.5796C89.1676 53.6749 92.0972 53.6844 92.4621 52.6009Z" fill="#9C6C86"/>
<path d="M63.2083 79.4271C63.2083 80.18 63.0202 80.7446 62.4559 81.3093C60.3865 83.5679 57.0004 83.7561 54.5549 82.2504C53.8024 81.6857 53.238 81.3093 53.0499 80.5564C52.4856 78.8625 56.4361 77.7332 57.7529 77.545C59.2578 77.3567 62.8321 77.7332 63.2083 79.4271Z" fill="#201600"/>
<path opacity="0.7" d="M88.7926 56.0884C89.5451 57.2176 88.6045 59.288 87.4758 60.0409C86.3471 60.7938 84.2778 60.982 83.5253 59.8527C82.7728 58.7234 83.7134 56.8412 84.8421 56.0884C85.7827 55.1473 88.0402 54.9591 88.7926 56.0884Z" fill="#F9F8F7"/>
<path opacity="0.7" d="M82.5847 57.7824C82.5847 58.347 81.456 58.9117 80.8917 58.9117C80.3273 58.9117 79.3867 58.5352 79.3867 57.9706C79.3867 57.4059 80.3273 56.8413 80.8917 56.8413C81.456 56.6531 82.5847 57.2177 82.5847 57.7824Z" fill="#F9F8F7"/>
<path d="M30.4757 73.9689C21.2579 69.6399 15.9906 63.8052 17.6837 59.4762C19.3767 55.1473 31.6044 56.0883 39.8817 61.7348C44.2084 64.7463 46.6539 66.6284 48.1589 70.9574C49.6638 75.6628 39.6936 78.2978 30.4757 73.9689Z" fill="#201600"/>
<path d="M26.7349 54.2713C30.448 52.9291 33.1146 50.89 32.691 49.7168C32.2673 48.5436 28.9138 48.6807 25.2007 50.0229C21.4876 51.3652 18.821 53.4043 19.2446 54.5775C19.6683 55.7506 23.0218 55.6136 26.7349 54.2713Z" fill="#9C6C86"/>
<path opacity="0.7" d="M22.5741 58.5352C21.8217 59.6645 22.7622 61.7349 23.891 62.4877C25.0197 63.2406 27.089 63.4288 27.6533 62.2995C28.4058 61.1702 27.4652 59.2881 26.3365 58.5352C25.584 57.5941 23.3266 57.4059 22.5741 58.5352Z" fill="#F9F8F7"/>
<path opacity="0.7" d="M28.7832 60.2291C28.7832 60.7937 29.7238 61.3584 30.2882 61.3584C30.8525 61.3584 31.7931 60.982 31.7931 60.4173C31.7931 59.8527 30.8525 59.288 30.2882 59.288C29.7238 59.0998 28.7832 59.6644 28.7832 60.2291Z" fill="#F9F8F7"/>
<path d="M5.83231 92.2258C9.21845 87.8968 17.6838 89.2143 22.0105 92.6022C26.3373 95.9901 29.9115 102.389 26.3373 106.907C22.763 111.424 14.4858 111.047 10.159 107.66C5.83231 104.272 2.25805 96.5548 5.83231 92.2258Z" fill="#FAEFE7" stroke="#9C6C86" stroke-miterlimit="10"/>
<path d="M6.77344 92.6021C10.1596 88.2732 16.7437 90.1553 20.6942 92.7904C25.2091 95.8018 28.5952 102.389 25.5853 106.154C25.5853 106.154 23.516 100.507 17.6843 96.5547C11.8526 92.6021 6.77344 92.6021 6.77344 92.6021Z" fill="#EDDACE"/>
<path d="M25.3968 96.1783L19.377 101.26" stroke="#9C6C86" stroke-width="0.5" stroke-miterlimit="10" stroke-linecap="round" stroke-linejoin="round"/>
<path d="M14.4858 89.9671L13.1689 97.1193" stroke="#9C6C86" stroke-width="0.5" stroke-miterlimit="10" stroke-linecap="round" stroke-linejoin="round"/>
<path d="M69.9806 85.0737C69.9806 86.0148 68.6638 88.6498 68.0994 88.6498C67.5351 88.6498 66.9707 85.8266 66.9707 84.8855" fill="#FCFCFC"/>
<path d="M69.9806 85.0737C69.9806 86.0148 68.6638 88.6498 68.0994 88.6498C67.5351 88.6498 66.9707 85.8266 66.9707 84.8855" stroke="#9C6C86" stroke-width="0.25" stroke-miterlimit="10" stroke-linecap="round"/>
<path d="M60.3863 87.144C60.9507 87.8969 61.8913 90.9084 61.3269 91.0966C60.9507 91.2848 58.5051 90.3437 58.1289 89.5909" fill="#FCFCFC"/>
<path d="M60.3863 87.144C60.9507 87.8969 61.8913 90.9084 61.3269 91.0966C60.9507 91.2848 58.5051 90.3437 58.1289 89.5909" stroke="#9C6C86" stroke-width="0.25" stroke-miterlimit="10" stroke-linecap="round"/>
<path d="M57.7529 89.779C59.0698 87.7086 60.1985 86.0147 63.2084 85.0736C66.2183 83.9443 68.2876 84.5089 70.3569 84.8854" stroke="#9C6C86" stroke-width="0.5" stroke-miterlimit="10" stroke-linecap="round" stroke-linejoin="round"/>
<path d="M72.9909 9.03437C72.8028 9.03437 72.6147 8.84615 72.4266 8.65794C72.2384 8.46972 72.2384 8.28151 72.2384 8.09329C72.2384 7.71686 72.8028 7.34043 73.5553 6.96399L75.6246 6.02291C76.3771 5.64648 76.7533 5.08183 76.9414 4.7054C77.1295 4.14075 76.9414 3.57611 76.3771 2.82324C76.0008 2.25859 75.4365 1.88216 74.8721 1.69394C74.4959 1.69394 74.1196 1.69394 73.5553 1.88216C72.9909 2.07038 72.6147 2.25859 72.6147 2.25859C72.4266 2.25859 72.2384 2.07038 72.0503 1.88216C71.8622 1.69394 71.8622 1.50573 71.8622 1.31751C71.8622 0.94108 72.4266 0.564648 73.3672 0.376432C74.1196 0 74.8721 0 75.2483 0C76.3771 0.188216 77.1295 0.752864 77.882 1.69394C78.6345 2.63502 78.8226 3.76432 78.6345 4.7054C78.4464 5.45827 78.0701 6.02291 77.5058 6.58756C77.1295 6.96399 76.5652 7.15221 75.6246 7.71686C74.684 8.09329 74.1196 8.46972 73.7434 8.84615C73.3672 9.03437 73.179 9.03437 72.9909 9.03437ZM72.0503 11.8576C71.8622 11.8576 71.6741 11.6694 71.486 11.4812C71.2978 11.293 71.2979 11.1047 71.2979 10.9165C71.2979 10.5401 71.486 10.3519 71.6741 10.1637C71.8622 9.97545 72.2384 9.78723 72.4266 9.78723C72.9909 9.97545 73.179 10.1637 72.9909 10.9165C72.9909 11.293 72.8028 11.4812 72.6147 11.6694C72.6147 11.8576 72.2384 11.8576 72.0503 11.8576Z" fill="#9C6C86"/>
</svg>