<svg width="58" height="58" viewBox="0 0 58 58" fill="none" xmlns="http://www.w3.org/2000/svg">
<path d="M55.3636 27.6821H44.8181C43.3622 27.6821 42.1817 28.8626 42.1817 30.3185C42.1817 31.7744 43.3622 32.9549 44.8181 32.9549H55.3636C56.8195 32.9549 58 31.7744 58 30.3185C58 28.8626 56.8198 27.6821 55.3636 27.6821Z" fill="#7A9C78"/>
<path d="M13.1819 27.6821H2.63638C1.18048 27.6821 0 28.8626 0 30.3185C0 31.7744 1.18048 32.9549 2.63638 32.9549H13.1819C14.6378 32.9549 15.8183 31.7744 15.8183 30.3185C15.8183 28.8626 14.6378 27.6821 13.1819 27.6821Z" fill="#7A9C78" fill-opacity="0.5"/>
<path d="M45.7778 9.81223L38.3208 17.2692C37.2912 18.2986 37.2912 19.9679 38.3208 20.9975C38.8355 21.5124 39.5103 21.7699 40.1848 21.7699C40.8596 21.7699 41.5344 21.5127 42.0491 20.9975L49.5061 13.5405C50.5357 12.5111 50.5357 10.8418 49.5061 9.81223C48.4768 8.78264 46.8074 8.78264 45.7778 9.81223Z" fill="#7A9C78" fill-opacity="0.9"/>
<path d="M29.0001 46.1362C27.5442 46.1362 26.3638 47.3167 26.3638 48.7726V54.0454C26.3638 55.5012 27.5442 56.6817 29.0001 56.6817C30.456 56.6817 31.6365 55.5012 31.6365 54.0454V48.7726C31.6365 47.3167 30.456 46.1362 29.0001 46.1362Z" fill="#7A9C78" fill-opacity="0.3"/>
<path d="M15.9507 39.6389L8.49393 47.0959C7.46434 48.1255 7.46434 49.7945 8.49393 50.8241C9.0086 51.3388 9.68339 51.5962 10.3582 51.5962C11.033 51.5962 11.7078 51.3388 12.2222 50.8241L19.6789 43.3671C20.7085 42.3375 20.7085 40.6685 19.6789 39.6389C18.6496 38.6093 16.9803 38.6093 15.9507 39.6389Z" fill="#7A9C78" fill-opacity="0.4"/>
<path d="M29.0001 1.31787C27.5442 1.31787 26.3638 2.49835 26.3638 3.95425V14.4998C26.3638 15.9556 27.5442 17.1361 29.0001 17.1361C30.456 17.1361 31.6365 15.9556 31.6365 14.4998V3.95425C31.6365 2.49835 30.456 1.31787 29.0001 1.31787Z" fill="#7A9C78" fill-opacity="0.8"/>
<path d="M12.2224 9.81223C11.1931 8.78264 9.5238 8.78264 8.49421 9.81223C7.46461 10.8418 7.46461 12.5109 8.49421 13.5405L15.9509 20.9975C16.4656 21.5124 17.1404 21.7699 17.8152 21.7699C18.4897 21.7699 19.1648 21.5124 19.6792 20.9975C20.7088 19.9681 20.7088 18.2988 19.6792 17.2692L12.2224 9.81223Z" fill="#7A9C78" fill-opacity="0.7"/>
</svg>