<svg width="76" height="62" viewBox="0 0 76 62" fill="none" xmlns="http://www.w3.org/2000/svg">
<path d="M5.11612 60.4842C5.75532 60.4842 6.22063 60.3776 6.51203 60.1643C6.80343 59.9511 6.94913 59.6498 6.94913 59.2604C6.94913 59.0287 6.89743 58.8293 6.79403 58.6625C6.70003 58.4956 6.55903 58.3472 6.37103 58.2174C6.19243 58.0784 5.97152 57.9532 5.70832 57.842C5.44512 57.7214 5.14432 57.6056 4.80592 57.4943C4.46752 57.3738 4.13851 57.244 3.81891 57.1049C3.50871 56.9566 3.23141 56.7758 2.98701 56.5626C2.752 56.3493 2.5593 56.0944 2.4089 55.7977C2.2679 55.5011 2.1974 55.1441 2.1974 54.7269C2.1974 53.8555 2.5029 53.174 3.11391 52.6827C3.72491 52.182 4.55682 51.9317 5.60962 51.9317C6.22063 51.9317 6.76113 52.0013 7.23113 52.1403C7.71054 52.2701 8.08654 52.4138 8.35914 52.5714L7.80924 53.9899C7.48963 53.8137 7.13713 53.6793 6.75173 53.5866C6.37573 53.4939 5.98562 53.4475 5.58142 53.4475C5.10202 53.4475 4.72602 53.5449 4.45342 53.7396C4.19021 53.9343 4.05861 54.2078 4.05861 54.5601C4.05861 54.7733 4.10091 54.9587 4.18551 55.1163C4.27951 55.2646 4.40641 55.3991 4.56622 55.5196C4.73542 55.6401 4.92812 55.7514 5.14432 55.8534C5.36992 55.9553 5.61432 56.0527 5.87752 56.1454C6.33813 56.3123 6.74703 56.4838 7.10423 56.6599C7.47083 56.8268 7.77634 57.0308 8.02074 57.2718C8.27454 57.5036 8.46724 57.7817 8.59884 58.1062C8.73044 58.4214 8.79624 58.8062 8.79624 59.2604C8.79624 60.1319 8.48134 60.8087 7.85154 61.2908C7.23113 61.7636 6.31933 62 5.11612 62C4.71192 62 4.34061 61.9722 4.00221 61.9166C3.67321 61.8702 3.37711 61.8099 3.11391 61.7358C2.86011 61.6616 2.6392 61.5874 2.4512 61.5133C2.2632 61.4298 2.1128 61.3557 2 61.2908L2.5217 59.8584C2.7755 59.9975 3.11861 60.1365 3.55101 60.2756C3.98341 60.4147 4.50512 60.4842 5.11612 60.4842Z" fill="#7A9C78"/>
<path d="M16.9466 58.1479C16.9466 58.7227 16.862 59.2465 16.6928 59.7193C16.5236 60.1922 16.2839 60.5954 15.9737 60.9292C15.6635 61.263 15.2875 61.5225 14.8457 61.708C14.4133 61.8934 13.9339 61.9861 13.4075 61.9861C12.8811 61.9861 12.4017 61.8934 11.9693 61.708C11.5369 61.5225 11.1656 61.263 10.8554 60.9292C10.5452 60.5954 10.3008 60.1922 10.1222 59.7193C9.953 59.2465 9.8684 58.7227 9.8684 58.1479C9.8684 57.5731 9.953 57.0539 10.1222 56.5904C10.3008 56.1176 10.5452 55.7143 10.8554 55.3805C11.175 55.0468 11.551 54.7918 11.9834 54.6157C12.4158 54.4303 12.8905 54.3375 13.4075 54.3375C13.9245 54.3375 14.3992 54.4303 14.8316 54.6157C15.2734 54.7918 15.6494 55.0468 15.9596 55.3805C16.2698 55.7143 16.5095 56.1176 16.6787 56.5904C16.8573 57.0539 16.9466 57.5731 16.9466 58.1479ZM15.1982 58.1479C15.1982 57.4248 15.0384 56.8546 14.7188 56.4374C14.4086 56.011 13.9715 55.7977 13.4075 55.7977C12.8435 55.7977 12.4017 56.011 12.0821 56.4374C11.7719 56.8546 11.6168 57.4248 11.6168 58.1479C11.6168 58.8803 11.7719 59.4598 12.0821 59.8862C12.4017 60.3127 12.8435 60.5259 13.4075 60.5259C13.9715 60.5259 14.4086 60.3127 14.7188 59.8862C15.0384 59.4598 15.1982 58.8803 15.1982 58.1479Z" fill="#7A9C78"/>
<path d="M24.7532 61.5689C24.4242 61.6523 23.9965 61.7358 23.4701 61.8192C22.9437 61.9119 22.3656 61.9583 21.7358 61.9583C21.1436 61.9583 20.6454 61.8748 20.2412 61.708C19.8464 61.5411 19.5268 61.3093 19.2824 61.0126C19.0474 60.716 18.8782 60.3637 18.7748 59.9558C18.6714 59.5386 18.6197 59.0843 18.6197 58.5929V54.5183H20.3258V58.3287C20.3258 59.1075 20.4386 59.6637 20.6642 59.9975C20.8992 60.3312 21.3034 60.4981 21.8768 60.4981C22.0836 60.4981 22.2998 60.4888 22.5254 60.4703C22.7604 60.4517 22.9343 60.4286 23.0471 60.4008V54.5183H24.7532V61.5689Z" fill="#7A9C78"/>
<path d="M29.491 61.9305C28.9834 61.9212 28.5604 61.8656 28.222 61.7636C27.893 61.6616 27.6298 61.5179 27.4324 61.3325C27.235 61.1378 27.094 60.9014 27.0094 60.6233C26.9342 60.3359 26.8966 60.0114 26.8966 59.6498V51.2781L28.6027 51V59.33C28.6027 59.5339 28.6168 59.7054 28.645 59.8445C28.6826 59.9836 28.7437 60.1041 28.8283 60.2061C28.9129 60.2988 29.0257 60.3729 29.1667 60.4286C29.3171 60.4749 29.5051 60.512 29.7307 60.5398L29.491 61.9305Z" fill="#7A9C78"/>
<path d="M38.0057 52.1542V53.67H35.0024V61.7914H33.2116V53.67H30.2083V52.1542H38.0057Z" fill="#7A9C78"/>
<path d="M45.1744 58.1479C45.1744 58.7227 45.0898 59.2465 44.9206 59.7193C44.7514 60.1922 44.5116 60.5954 44.2014 60.9292C43.8912 61.263 43.5152 61.5225 43.0734 61.708C42.641 61.8934 42.1616 61.9861 41.6352 61.9861C41.1088 61.9861 40.6294 61.8934 40.197 61.708C39.7646 61.5225 39.3933 61.263 39.0831 60.9292C38.7729 60.5954 38.5285 60.1922 38.3499 59.7193C38.1807 59.2465 38.0961 58.7227 38.0961 58.1479C38.0961 57.5731 38.1807 57.0539 38.3499 56.5904C38.5285 56.1176 38.7729 55.7143 39.0831 55.3805C39.4027 55.0468 39.7787 54.7918 40.2111 54.6157C40.6435 54.4303 41.1182 54.3375 41.6352 54.3375C42.1522 54.3375 42.6269 54.4303 43.0593 54.6157C43.5011 54.7918 43.8771 55.0468 44.1873 55.3805C44.4975 55.7143 44.7372 56.1176 44.9065 56.5904C45.0851 57.0539 45.1744 57.5731 45.1744 58.1479ZM43.4259 58.1479C43.4259 57.4248 43.2661 56.8546 42.9465 56.4374C42.6363 56.011 42.1992 55.7977 41.6352 55.7977C41.0712 55.7977 40.6294 56.011 40.3098 56.4374C39.9996 56.8546 39.8445 57.4248 39.8445 58.1479C39.8445 58.8803 39.9996 59.4598 40.3098 59.8862C40.6294 60.3127 41.0712 60.5259 41.6352 60.5259C42.1992 60.5259 42.6363 60.3127 42.9465 59.8862C43.2661 59.4598 43.4259 58.8803 43.4259 58.1479Z" fill="#7A9C78"/>
<path d="M49.3854 60.4842C50.0246 60.4842 50.4899 60.3776 50.7813 60.1643C51.0727 59.9511 51.2184 59.6498 51.2184 59.2604C51.2184 59.0287 51.1667 58.8293 51.0633 58.6625C50.9693 58.4956 50.8283 58.3472 50.6403 58.2174C50.4617 58.0784 50.2408 57.9532 49.9776 57.842C49.7144 57.7214 49.4136 57.6056 49.0752 57.4943C48.7368 57.3738 48.4078 57.244 48.0882 57.1049C47.778 56.9566 47.5007 56.7758 47.2563 56.5626C47.0213 56.3493 46.8286 56.0944 46.6782 55.7977C46.5372 55.5011 46.4667 55.1441 46.4667 54.7269C46.4667 53.8555 46.7722 53.174 47.3832 52.6827C47.9942 52.182 48.8261 51.9317 49.8789 51.9317C50.4899 51.9317 51.0304 52.0013 51.5004 52.1403C51.9799 52.2701 52.3559 52.4138 52.6285 52.5714L52.0786 53.9899C51.7589 53.8137 51.4064 53.6793 51.021 53.5866C50.645 53.4939 50.2549 53.4475 49.8507 53.4475C49.3713 53.4475 48.9953 53.5449 48.7227 53.7396C48.4595 53.9343 48.3279 54.2078 48.3279 54.5601C48.3279 54.7733 48.3702 54.9587 48.4548 55.1163C48.5488 55.2646 48.6757 55.3991 48.8355 55.5196C49.0047 55.6401 49.1974 55.7514 49.4136 55.8534C49.6392 55.9553 49.8836 56.0527 50.1468 56.1454C50.6074 56.3123 51.0163 56.4838 51.3735 56.6599C51.7401 56.8268 52.0456 57.0308 52.29 57.2718C52.5438 57.5036 52.7365 57.7817 52.8682 58.1062C52.9998 58.4214 53.0656 58.8062 53.0656 59.2604C53.0656 60.1319 52.7507 60.8087 52.1208 61.2908C51.5004 61.7636 50.5886 62 49.3854 62C48.9812 62 48.6099 61.9722 48.2715 61.9166C47.9425 61.8702 47.6464 61.8099 47.3832 61.7358C47.1294 61.6616 46.9085 61.5874 46.7205 61.5133C46.5325 61.4298 46.3821 61.3557 46.2693 61.2908L46.791 59.8584C47.0448 59.9975 47.3879 60.1365 47.8203 60.2756C48.2527 60.4147 48.7744 60.4842 49.3854 60.4842Z" fill="#7A9C78"/>
<path d="M61.216 58.1479C61.216 58.7227 61.1314 59.2465 60.9622 59.7193C60.7929 60.1922 60.5533 60.5954 60.243 60.9292C59.9328 61.263 59.5568 61.5225 59.115 61.708C58.6826 61.8934 58.2032 61.9861 57.6768 61.9861C57.1504 61.9861 56.671 61.8934 56.2386 61.708C55.8062 61.5225 55.4349 61.263 55.1247 60.9292C54.8145 60.5954 54.5701 60.1922 54.3915 59.7193C54.2223 59.2465 54.1377 58.7227 54.1377 58.1479C54.1377 57.5731 54.2223 57.0539 54.3915 56.5904C54.5701 56.1176 54.8145 55.7143 55.1247 55.3805C55.4443 55.0468 55.8203 54.7918 56.2527 54.6157C56.6851 54.4303 57.1598 54.3375 57.6768 54.3375C58.1938 54.3375 58.6685 54.4303 59.1009 54.6157C59.5427 54.7918 59.9187 55.0468 60.2289 55.3805C60.5392 55.7143 60.7789 56.1176 60.9481 56.5904C61.1267 57.0539 61.216 57.5731 61.216 58.1479ZM59.4675 58.1479C59.4675 57.4248 59.3077 56.8546 58.9881 56.4374C58.6779 56.011 58.2408 55.7977 57.6768 55.7977C57.1128 55.7977 56.671 56.011 56.3514 56.4374C56.0412 56.8546 55.8861 57.4248 55.8861 58.1479C55.8861 58.8803 56.0412 59.4598 56.3514 59.8862C56.671 60.3127 57.1128 60.5259 57.6768 60.5259C58.2408 60.5259 58.6779 60.3127 58.9881 59.8862C59.3077 59.4598 59.4675 58.8803 59.4675 58.1479Z" fill="#7A9C78"/>
<path d="M69.0226 61.5689C68.6936 61.6523 68.2659 61.7358 67.7394 61.8192C67.213 61.9119 66.6349 61.9583 66.0051 61.9583C65.4129 61.9583 64.9147 61.8748 64.5105 61.708C64.1157 61.5411 63.7961 61.3093 63.5517 61.0126C63.3167 60.716 63.1475 60.3637 63.0441 59.9558C62.9407 59.5386 62.889 59.0843 62.889 58.5929V54.5183H64.5951V58.3287C64.5951 59.1075 64.7079 59.6637 64.9335 59.9975C65.1685 60.3312 65.5727 60.4981 66.1461 60.4981C66.3529 60.4981 66.5691 60.4888 66.7947 60.4703C67.0297 60.4517 67.2036 60.4286 67.3164 60.4008V54.5183H69.0226V61.5689Z" fill="#7A9C78"/>
<path d="M73.7603 61.9305C73.2527 61.9212 72.8297 61.8656 72.4913 61.7636C72.1623 61.6616 71.8991 61.5179 71.7017 61.3325C71.5043 61.1378 71.3633 60.9014 71.2787 60.6233C71.2035 60.3359 71.1659 60.0114 71.1659 59.6498V51.2781L72.872 51V59.33C72.872 59.5339 72.8861 59.7054 72.9143 59.8445C72.9519 59.9836 73.013 60.1041 73.0976 60.2061C73.1822 60.2988 73.295 60.3729 73.436 60.4286C73.5864 60.4749 73.7744 60.512 74 60.5398L73.7603 61.9305Z" fill="#7A9C78"/>
<path d="M76 21.8314C76 24.2441 75.6498 26.4428 74.9493 28.4275C74.2488 30.4121 73.2565 32.1049 71.9723 33.5058C70.6882 34.9067 69.1316 35.9963 67.3026 36.7746C65.5125 37.5529 63.5279 37.942 61.3487 37.942C59.1695 37.942 57.1848 37.5529 55.3948 36.7746C53.6047 35.9963 52.0676 34.9067 50.7834 33.5058C49.4992 32.1049 48.4875 30.4121 47.7481 28.4275C47.0476 26.4428 46.6974 24.2441 46.6974 21.8314C46.6974 19.4187 47.0476 17.2395 47.7481 15.2938C48.4875 13.3092 49.4992 11.6164 50.7834 10.2155C52.1065 8.81454 53.6631 7.7444 55.4531 7.00502C57.2432 6.22673 59.2084 5.83759 61.3487 5.83759C63.489 5.83759 65.4542 6.22673 67.2442 7.00502C69.0732 7.7444 70.6298 8.81454 71.914 10.2155C73.1982 11.6164 74.1905 13.3092 74.8909 15.2938C75.6303 17.2395 76 19.4187 76 21.8314ZM68.7619 21.8314C68.7619 18.7961 68.1004 16.4029 66.7773 14.6517C65.4931 12.8616 63.6836 11.9666 61.3487 11.9666C59.0138 11.9666 57.1848 12.8616 55.8617 14.6517C54.5776 16.4029 53.9355 18.7961 53.9355 21.8314C53.9355 24.9057 54.5776 27.3378 55.8617 29.1279C57.1848 30.918 59.0138 31.813 61.3487 31.813C63.6836 31.813 65.4931 30.918 66.7773 29.1279C68.1004 27.3378 68.7619 24.9057 68.7619 21.8314Z" fill="#333333"/>
<path d="M29.3026 21.8314C29.3026 24.2441 28.9524 26.4428 28.2519 28.4275C27.5515 30.4121 26.5591 32.1049 25.275 33.5058C23.9908 34.9067 22.4342 35.9963 20.6052 36.7746C18.8152 37.5529 16.8305 37.942 14.6513 37.942C12.4721 37.942 10.4875 37.5529 8.69739 36.7746C6.90732 35.9963 5.3702 34.9067 4.08603 33.5058C2.80185 32.1049 1.79007 30.4121 1.05069 28.4275C0.350232 26.4428 0 24.2441 0 21.8314C0 19.4187 0.350232 17.2395 1.05069 15.2938C1.79007 13.3092 2.80185 11.6164 4.08603 10.2155C5.40912 8.81454 6.96569 7.7444 8.75576 7.00502C10.5458 6.22673 12.511 5.83759 14.6513 5.83759C16.7916 5.83759 18.7568 6.22673 20.5469 7.00502C22.3758 7.7444 23.9324 8.81454 25.2166 10.2155C26.5008 11.6164 27.4931 13.3092 28.1935 15.2938C28.9329 17.2395 29.3026 19.4187 29.3026 21.8314ZM22.0645 21.8314C22.0645 18.7961 21.403 16.4029 20.0799 14.6517C18.7957 12.8616 16.9862 11.9666 14.6513 11.9666C12.3164 11.9666 10.4875 12.8616 9.16436 14.6517C7.88018 16.4029 7.23809 18.7961 7.23809 21.8314C7.23809 24.9057 7.88018 27.3378 9.16436 29.1279C10.4875 30.918 12.3164 31.813 14.6513 31.813C16.9862 31.813 18.7957 30.918 20.0799 29.1279C21.403 27.3378 22.0645 24.9057 22.0645 21.8314Z" fill="#333333"/>
<path d="M45.7637 45.8802C43.6623 45.8413 41.9112 45.6078 40.5102 45.1797C39.1482 44.7517 38.0586 44.1485 37.2414 43.3702C36.4242 42.553 35.8405 41.5607 35.4903 40.3932C35.1789 39.1869 35.0233 37.8249 35.0233 36.3072V1.16743L42.0863 0V34.9647C42.0863 35.8208 42.1446 36.5407 42.2614 37.1244C42.417 37.7081 42.67 38.214 43.0202 38.6421C43.3704 39.0312 43.8374 39.3425 44.4211 39.576C45.0438 39.7706 45.8221 39.9263 46.756 40.043L45.7637 45.8802Z" fill="#333333"/>
</svg>