<svg width="55" height="45" viewBox="0 0 55 45" fill="none" xmlns="http://www.w3.org/2000/svg">
<path d="M3.72387 43.06C4.1772 43.06 4.5072 42.9833 4.71387 42.83C4.92053 42.6767 5.02387 42.46 5.02387 42.18C5.02387 42.0133 4.9872 41.87 4.91387 41.75C4.8472 41.63 4.7472 41.5233 4.61387 41.43C4.4872 41.33 4.33053 41.24 4.14387 41.16C3.9572 41.0733 3.74387 40.99 3.50387 40.91C3.26387 40.8233 3.03053 40.73 2.80387 40.63C2.58387 40.5233 2.3872 40.3933 2.21387 40.24C2.0472 40.0867 1.91053 39.9033 1.80387 39.69C1.70387 39.4767 1.65387 39.22 1.65387 38.92C1.65387 38.2933 1.87053 37.8033 2.30387 37.45C2.7372 37.09 3.3272 36.91 4.07387 36.91C4.5072 36.91 4.89053 36.96 5.22387 37.06C5.56387 37.1533 5.83053 37.2567 6.02387 37.37L5.63387 38.39C5.4072 38.2633 5.1572 38.1667 4.88387 38.1C4.6172 38.0333 4.34053 38 4.05387 38C3.71387 38 3.4472 38.07 3.25387 38.21C3.0672 38.35 2.97387 38.5467 2.97387 38.8C2.97387 38.9533 3.00387 39.0867 3.06387 39.2C3.13053 39.3067 3.22053 39.4033 3.33387 39.49C3.45387 39.5767 3.59053 39.6567 3.74387 39.73C3.90387 39.8033 4.0772 39.8733 4.26387 39.94C4.59053 40.06 4.88053 40.1833 5.13387 40.31C5.39387 40.43 5.61053 40.5767 5.78387 40.75C5.96387 40.9167 6.10053 41.1167 6.19387 41.35C6.2872 41.5767 6.33387 41.8533 6.33387 42.18C6.33387 42.8067 6.11053 43.2933 5.66387 43.64C5.22387 43.98 4.5772 44.15 3.72387 44.15C3.4372 44.15 3.17387 44.13 2.93387 44.09C2.70053 44.0567 2.49053 44.0133 2.30387 43.96C2.12387 43.9067 1.9672 43.8533 1.83387 43.8C1.70053 43.74 1.59387 43.6867 1.51387 43.64L1.88387 42.61C2.06387 42.71 2.3072 42.81 2.61387 42.91C2.92053 43.01 3.29053 43.06 3.72387 43.06Z" fill="#333333"/>
<path d="M12.1143 41.38C12.1143 41.7933 12.0543 42.17 11.9343 42.51C11.8143 42.85 11.6443 43.14 11.4243 43.38C11.2043 43.62 10.9376 43.8067 10.6243 43.94C10.3176 44.0733 9.97759 44.14 9.60426 44.14C9.23092 44.14 8.89092 44.0733 8.58426 43.94C8.27759 43.8067 8.01426 43.62 7.79426 43.38C7.57426 43.14 7.40092 42.85 7.27426 42.51C7.15426 42.17 7.09426 41.7933 7.09426 41.38C7.09426 40.9667 7.15426 40.5933 7.27426 40.26C7.40092 39.92 7.57426 39.63 7.79426 39.39C8.02092 39.15 8.28759 38.9667 8.59426 38.84C8.90093 38.7067 9.23759 38.64 9.60426 38.64C9.97092 38.64 10.3076 38.7067 10.6143 38.84C10.9276 38.9667 11.1943 39.15 11.4143 39.39C11.6343 39.63 11.8043 39.92 11.9243 40.26C12.0509 40.5933 12.1143 40.9667 12.1143 41.38ZM10.8743 41.38C10.8743 40.86 10.7609 40.45 10.5343 40.15C10.3143 39.8433 10.0043 39.69 9.60426 39.69C9.20426 39.69 8.89092 39.8433 8.66426 40.15C8.44426 40.45 8.33426 40.86 8.33426 41.38C8.33426 41.9067 8.44426 42.3233 8.66426 42.63C8.89092 42.9367 9.20426 43.09 9.60426 43.09C10.0043 43.09 10.3143 42.9367 10.5343 42.63C10.7609 42.3233 10.8743 41.9067 10.8743 41.38Z" fill="#333333"/>
<path d="M17.6508 43.84C17.4175 43.9 17.1142 43.96 16.7408 44.02C16.3675 44.0867 15.9575 44.12 15.5108 44.12C15.0908 44.12 14.7375 44.06 14.4508 43.94C14.1708 43.82 13.9442 43.6533 13.7708 43.44C13.6042 43.2267 13.4842 42.9733 13.4108 42.68C13.3375 42.38 13.3008 42.0533 13.3008 41.7V38.77H14.5108V41.51C14.5108 42.07 14.5908 42.47 14.7508 42.71C14.9175 42.95 15.2042 43.07 15.6108 43.07C15.7575 43.07 15.9108 43.0633 16.0708 43.05C16.2375 43.0367 16.3608 43.02 16.4408 43V38.77H17.6508V43.84Z" fill="#333333"/>
<path d="M21.0109 44.1C20.6509 44.0933 20.3509 44.0533 20.1109 43.98C19.8776 43.9067 19.6909 43.8033 19.5509 43.67C19.4109 43.53 19.3109 43.36 19.2509 43.16C19.1976 42.9533 19.1709 42.72 19.1709 42.46V36.44L20.3809 36.24V42.23C20.3809 42.3767 20.3909 42.5 20.4109 42.6C20.4376 42.7 20.4809 42.7867 20.5409 42.86C20.6009 42.9267 20.6809 42.98 20.7809 43.02C20.8876 43.0533 21.0209 43.08 21.1809 43.1L21.0109 44.1Z" fill="#333333"/>
<path d="M27.0496 37.07V38.16H24.9196V44H23.6496V38.16H21.5196V37.07H27.0496Z" fill="#333333"/>
<path d="M32.1338 41.38C32.1338 41.7933 32.0738 42.17 31.9538 42.51C31.8338 42.85 31.6638 43.14 31.4438 43.38C31.2238 43.62 30.9571 43.8067 30.6438 43.94C30.3371 44.0733 29.9971 44.14 29.6238 44.14C29.2505 44.14 28.9105 44.0733 28.6038 43.94C28.2971 43.8067 28.0338 43.62 27.8138 43.38C27.5938 43.14 27.4205 42.85 27.2938 42.51C27.1738 42.17 27.1138 41.7933 27.1138 41.38C27.1138 40.9667 27.1738 40.5933 27.2938 40.26C27.4205 39.92 27.5938 39.63 27.8138 39.39C28.0405 39.15 28.3071 38.9667 28.6138 38.84C28.9205 38.7067 29.2571 38.64 29.6238 38.64C29.9905 38.64 30.3271 38.7067 30.6338 38.84C30.9471 38.9667 31.2138 39.15 31.4338 39.39C31.6538 39.63 31.8238 39.92 31.9438 40.26C32.0705 40.5933 32.1338 40.9667 32.1338 41.38ZM30.8938 41.38C30.8938 40.86 30.7805 40.45 30.5538 40.15C30.3338 39.8433 30.0238 39.69 29.6238 39.69C29.2238 39.69 28.9105 39.8433 28.6838 40.15C28.4638 40.45 28.3538 40.86 28.3538 41.38C28.3538 41.9067 28.4638 42.3233 28.6838 42.63C28.9105 42.9367 29.2238 43.09 29.6238 43.09C30.0238 43.09 30.3338 42.9367 30.5538 42.63C30.7805 42.3233 30.8938 41.9067 30.8938 41.38Z" fill="#333333"/>
<path d="M35.1203 43.06C35.5737 43.06 35.9037 42.9833 36.1104 42.83C36.317 42.6767 36.4204 42.46 36.4204 42.18C36.4204 42.0133 36.3837 41.87 36.3104 41.75C36.2437 41.63 36.1437 41.5233 36.0104 41.43C35.8837 41.33 35.727 41.24 35.5404 41.16C35.3537 41.0733 35.1404 40.99 34.9004 40.91C34.6604 40.8233 34.427 40.73 34.2004 40.63C33.9804 40.5233 33.7837 40.3933 33.6104 40.24C33.4437 40.0867 33.307 39.9033 33.2004 39.69C33.1004 39.4767 33.0504 39.22 33.0504 38.92C33.0504 38.2933 33.267 37.8033 33.7004 37.45C34.1337 37.09 34.7237 36.91 35.4704 36.91C35.9037 36.91 36.287 36.96 36.6204 37.06C36.9604 37.1533 37.227 37.2567 37.4204 37.37L37.0304 38.39C36.8037 38.2633 36.5537 38.1667 36.2804 38.1C36.0137 38.0333 35.737 38 35.4504 38C35.1104 38 34.8437 38.07 34.6504 38.21C34.4637 38.35 34.3703 38.5467 34.3703 38.8C34.3703 38.9533 34.4004 39.0867 34.4604 39.2C34.527 39.3067 34.617 39.4033 34.7304 39.49C34.8504 39.5767 34.987 39.6567 35.1404 39.73C35.3004 39.8033 35.4737 39.8733 35.6604 39.94C35.987 40.06 36.277 40.1833 36.5304 40.31C36.7904 40.43 37.007 40.5767 37.1804 40.75C37.3604 40.9167 37.497 41.1167 37.5904 41.35C37.6837 41.5767 37.7304 41.8533 37.7304 42.18C37.7304 42.8067 37.507 43.2933 37.0604 43.64C36.6204 43.98 35.9737 44.15 35.1203 44.15C34.8337 44.15 34.5704 44.13 34.3304 44.09C34.097 44.0567 33.887 44.0133 33.7004 43.96C33.5204 43.9067 33.3637 43.8533 33.2304 43.8C33.097 43.74 32.9904 43.6867 32.9104 43.64L33.2803 42.61C33.4603 42.71 33.7037 42.81 34.0104 42.91C34.317 43.01 34.687 43.06 35.1203 43.06Z" fill="#333333"/>
<path d="M43.5107 41.38C43.5107 41.7933 43.4507 42.17 43.3307 42.51C43.2107 42.85 43.0407 43.14 42.8207 43.38C42.6007 43.62 42.3341 43.8067 42.0207 43.94C41.7141 44.0733 41.3741 44.14 41.0007 44.14C40.6274 44.14 40.2874 44.0733 39.9807 43.94C39.6741 43.8067 39.4107 43.62 39.1907 43.38C38.9707 43.14 38.7974 42.85 38.6707 42.51C38.5507 42.17 38.4907 41.7933 38.4907 41.38C38.4907 40.9667 38.5507 40.5933 38.6707 40.26C38.7974 39.92 38.9707 39.63 39.1907 39.39C39.4174 39.15 39.6841 38.9667 39.9907 38.84C40.2974 38.7067 40.6341 38.64 41.0007 38.64C41.3674 38.64 41.7041 38.7067 42.0107 38.84C42.3241 38.9667 42.5907 39.15 42.8107 39.39C43.0307 39.63 43.2007 39.92 43.3207 40.26C43.4474 40.5933 43.5107 40.9667 43.5107 41.38ZM42.2707 41.38C42.2707 40.86 42.1574 40.45 41.9307 40.15C41.7107 39.8433 41.4007 39.69 41.0007 39.69C40.6007 39.69 40.2874 39.8433 40.0607 40.15C39.8407 40.45 39.7307 40.86 39.7307 41.38C39.7307 41.9067 39.8407 42.3233 40.0607 42.63C40.2874 42.9367 40.6007 43.09 41.0007 43.09C41.4007 43.09 41.7107 42.9367 41.9307 42.63C42.1574 42.3233 42.2707 41.9067 42.2707 41.38Z" fill="#333333"/>
<path d="M49.0473 43.84C48.814 43.9 48.5106 43.96 48.1373 44.02C47.764 44.0867 47.354 44.12 46.9073 44.12C46.4873 44.12 46.134 44.06 45.8473 43.94C45.5673 43.82 45.3406 43.6533 45.1673 43.44C45.0006 43.2267 44.8806 42.9733 44.8073 42.68C44.734 42.38 44.6973 42.0533 44.6973 41.7V38.77H45.9073V41.51C45.9073 42.07 45.9873 42.47 46.1473 42.71C46.314 42.95 46.6006 43.07 47.0073 43.07C47.154 43.07 47.3073 43.0633 47.4673 43.05C47.634 43.0367 47.7573 43.02 47.8373 43V38.77H49.0473V43.84Z" fill="#333333"/>
<path d="M52.4074 44.1C52.0474 44.0933 51.7474 44.0533 51.5074 43.98C51.274 43.9067 51.0874 43.8033 50.9474 43.67C50.8074 43.53 50.7074 43.36 50.6474 43.16C50.5941 42.9533 50.5674 42.72 50.5674 42.46V36.44L51.7774 36.24V42.23C51.7774 42.3767 51.7874 42.5 51.8074 42.6C51.8341 42.7 51.8774 42.7867 51.9374 42.86C51.9974 42.9267 52.0774 42.98 52.1774 43.02C52.2841 43.0533 52.4174 43.08 52.5774 43.1L52.4074 44.1Z" fill="#333333"/>
<path d="M54.2824 15.5927C54.2824 17.316 54.0322 18.8864 53.5319 20.3039C53.0316 21.7214 52.3229 22.9304 51.4057 23.931C50.4885 24.9316 49.3767 25.7099 48.0703 26.2658C46.7918 26.8216 45.3743 27.0996 43.8178 27.0996C42.2613 27.0996 40.8438 26.8216 39.5653 26.2658C38.2867 25.7099 37.1888 24.9316 36.2716 23.931C35.3544 22.9304 34.6318 21.7214 34.1037 20.3039C33.6034 18.8864 33.3532 17.316 33.3532 15.5927C33.3532 13.8695 33.6034 12.313 34.1037 10.9233C34.6318 9.50575 35.3544 8.29669 36.2716 7.29609C37.2166 6.29549 38.3284 5.53115 39.6069 5.00305C40.8855 4.44717 42.2891 4.16922 43.8178 4.16922C45.3465 4.16922 46.7501 4.44717 48.0286 5.00305C49.335 5.53115 50.4468 6.29549 51.364 7.29609C52.2812 8.29669 52.9899 9.50575 53.4902 10.9233C54.0183 12.313 54.2824 13.8695 54.2824 15.5927ZM49.1126 15.5927C49.1126 13.4248 48.6401 11.7154 47.6951 10.4647C46.7779 9.18611 45.4855 8.54684 43.8178 8.54684C42.1501 8.54684 40.8438 9.18611 39.8988 10.4647C38.9816 11.7154 38.523 13.4248 38.523 15.5927C38.523 17.7885 38.9816 19.5256 39.8988 20.8042C40.8438 22.0827 42.1501 22.722 43.8178 22.722C45.4855 22.722 46.7779 22.0827 47.6951 20.8042C48.6401 19.5256 49.1126 17.7885 49.1126 15.5927Z" fill="#333333"/>
<path d="M20.9292 15.5927C20.9292 17.316 20.679 18.8864 20.1787 20.3039C19.6784 21.7214 18.9697 22.9304 18.0525 23.931C17.1352 24.9316 16.0235 25.7099 14.7171 26.2658C13.4386 26.8216 12.0211 27.0996 10.4646 27.0996C8.9081 27.0996 7.49059 26.8216 6.21205 26.2658C4.9335 25.7099 3.83563 24.9316 2.91841 23.931C2.0012 22.9304 1.27854 21.7214 0.75045 20.3039C0.250151 18.8864 0 17.316 0 15.5927C0 13.8695 0.250151 12.313 0.75045 10.9233C1.27854 9.50575 2.0012 8.29669 2.91841 7.29609C3.86342 6.29549 4.9752 5.53115 6.25374 5.00305C7.53228 4.44717 8.9359 4.16922 10.4646 4.16922C11.9933 4.16922 13.3969 4.44717 14.6754 5.00305C15.9818 5.53115 17.0935 6.29549 18.0108 7.29609C18.928 8.29669 19.6367 9.50575 20.137 10.9233C20.6651 12.313 20.9292 13.8695 20.9292 15.5927ZM15.7594 15.5927C15.7594 13.4248 15.2869 11.7154 14.3419 10.4647C13.4247 9.18611 12.1323 8.54684 10.4646 8.54684C8.79692 8.54684 7.49059 9.18611 6.54558 10.4647C5.62836 11.7154 5.16976 13.4248 5.16976 15.5927C5.16976 17.7885 5.62836 19.5256 6.54558 20.8042C7.49059 22.0827 8.79692 22.722 10.4646 22.722C12.1323 22.722 13.4247 22.0827 14.3419 20.8042C15.2869 19.5256 15.7594 17.7885 15.7594 15.5927Z" fill="#333333"/>
<path d="M32.6863 32.7696C31.1854 32.7418 29.9347 32.575 28.9341 32.2693C27.9613 31.9635 27.183 31.5327 26.5993 30.9768C26.0156 30.3932 25.5987 29.6844 25.3486 28.8506C25.1262 27.9889 25.0151 27.0161 25.0151 25.9322V0.833831L30.0597 0V24.9733C30.0597 25.5847 30.1014 26.0989 30.1848 26.5158C30.296 26.9328 30.4767 27.2941 30.7268 27.5998C30.977 27.8778 31.3105 28.1001 31.7274 28.2669C32.1721 28.4059 32.728 28.517 33.3951 28.6004L32.6863 32.7696Z" fill="#333333"/>
</svg>