<svg width="25" height="25" viewBox="0 0 25 25" fill="none" xmlns="http://www.w3.org/2000/svg">
<mask id="path-2-inside-1" fill="white">
<path d="M3 4C3 3.44772 3.44772 3 4 3H21C21.5523 3 22 3.44772 22 4V15.5076C22 15.8181 21.8558 16.1109 21.6097 16.3002L15.5 21V17C15.5 16.4477 15.0523 16 14.5 16H4C3.44772 16 3 15.5523 3 15V4Z"/>
</mask>
<path d="M15.5 21H14.5C14.5 21.381 14.7165 21.7288 15.0582 21.8971C15.4 22.0654 15.8077 22.0249 16.1097 21.7926L15.5 21ZM21.6097 16.3002L22.2194 17.0928L21.6097 16.3002ZM4 4H21V2H4V4ZM21 4V15.5076H23V4H21ZM4 15V4H2V15H4ZM14.5 15H4V17H14.5V15ZM21 15.5076L14.8903 20.2074L16.1097 21.7926L22.2194 17.0928L21 15.5076ZM16.5 21V17H14.5V21H16.5ZM14.5 17H16.5C16.5 15.8954 15.6046 15 14.5 15V17ZM2 15C2 16.1046 2.89543 17 4 17V15H4H2ZM21 15.5076L22.2194 17.0928C22.7116 16.7143 23 16.1285 23 15.5076H21ZM21 4H23C23 2.89543 22.1046 2 21 2V4ZM4 2C2.89543 2 2 2.89543 2 4H4V4V2Z" fill="black" mask="url(#path-2-inside-1)"/>
</svg>