<svg width="25" height="25" viewBox="0 0 25 25" fill="none" xmlns="http://www.w3.org/2000/svg">
<circle cx="12.5" cy="8.5" r="4" stroke="black"/>
<path d="M20.5 17C20.5 17.2075 20.3821 17.4747 20.0117 17.7838C19.6441 18.0906 19.0822 18.3893 18.344 18.6498C16.8721 19.1693 14.8059 19.5 12.5 19.5C10.1941 19.5 8.12792 19.1693 6.656 18.6498C5.91779 18.3893 5.35594 18.0906 4.98832 17.7838C4.61788 17.4747 4.5 17.2075 4.5 17C4.5 16.7925 4.61788 16.5253 4.98832 16.2162C5.35594 15.9094 5.91779 15.6107 6.656 15.3502C8.12792 14.8307 10.1941 14.5 12.5 14.5C14.8059 14.5 16.8721 14.8307 18.344 15.3502C19.0822 15.6107 19.6441 15.9094 20.0117 16.2162C20.3821 16.5253 20.5 16.7925 20.5 17Z" stroke="black"/>
</svg>