<svg width="25" height="25" viewBox="0 0 25 25" fill="none" xmlns="http://www.w3.org/2000/svg">
<path d="M4 19L3.54671 18.789C3.47463 18.9438 3.48657 19.1248 3.57839 19.2688C3.67021 19.4128 3.8292 19.5 4 19.5V19ZM21 19V19.5C21.1708 19.5 21.3298 19.4128 21.4216 19.2688C21.5134 19.1248 21.5254 18.9438 21.4533 18.789L21 19ZM4.45329 19.211C5.02022 17.9932 5.29302 16.4137 5.52434 14.8013C5.75978 13.1602 5.95428 11.4666 6.34457 9.90962C6.73428 8.35496 7.3037 7.00873 8.24216 6.05187C9.16383 5.11212 10.4891 4.5 12.5009 4.5V3.5C10.2623 3.5 8.66535 4.19223 7.52822 5.35166C6.40786 6.49399 5.78184 8.04178 5.37458 9.66647C4.96791 11.2888 4.76393 13.0599 4.53447 14.6593C4.30089 16.2874 4.04239 17.7242 3.54671 18.789L4.45329 19.211ZM12.5009 4.5C14.5127 4.5 15.8378 5.11212 16.7593 6.05184C17.6976 7.00868 18.2668 8.35489 18.6563 9.90955C19.0464 11.4666 19.2407 13.1601 19.4759 14.8013C19.7071 16.4136 19.9798 17.9932 20.5467 19.211L21.4533 18.789C20.9576 17.7242 20.6992 16.2875 20.4658 14.6593C20.2365 13.06 20.0328 11.2889 19.6263 9.66653C19.2193 8.04184 18.5935 6.49404 17.4733 5.35169C16.3364 4.19223 14.7395 3.5 12.5009 3.5V4.5ZM21 18.5H4V19.5H21V18.5Z" fill="black"/>
<path d="M9 19C8.54192 19.2004 8.54203 19.2007 8.54215 19.2009C8.54219 19.201 8.54231 19.2013 8.54239 19.2015C8.54257 19.2019 8.54275 19.2023 8.54295 19.2028C8.54335 19.2037 8.54381 19.2047 8.54433 19.2058C8.54536 19.2081 8.54662 19.2109 8.54812 19.2142C8.55111 19.2207 8.55503 19.2291 8.55993 19.2393C8.56971 19.2596 8.58338 19.287 8.60117 19.3205C8.63671 19.3874 8.68891 19.4789 8.75971 19.5868C8.90098 19.8021 9.11845 20.0858 9.42824 20.369C10.0545 20.9416 11.0463 21.5 12.5 21.5V20.5C11.3287 20.5 10.5705 20.0584 10.103 19.631C9.86593 19.4142 9.70058 19.1979 9.59576 19.0382C9.54351 18.9586 9.50684 18.8938 9.48428 18.8514C9.47302 18.8302 9.46532 18.8146 9.46101 18.8056C9.45885 18.8012 9.45755 18.7983 9.45706 18.7973C9.45682 18.7968 9.45679 18.7967 9.45696 18.7971C9.45704 18.7972 9.45718 18.7976 9.45737 18.798C9.45746 18.7982 9.45757 18.7984 9.45769 18.7987C9.45774 18.7988 9.45784 18.7991 9.45787 18.7991C9.45797 18.7994 9.45808 18.7996 9 19ZM12.5 21.5C13.9537 21.5 14.9455 20.9416 15.5718 20.369C15.8816 20.0858 16.099 19.8021 16.2403 19.5868C16.3111 19.4789 16.3633 19.3874 16.3988 19.3205C16.4166 19.287 16.4303 19.2596 16.4401 19.2393C16.445 19.2291 16.4489 19.2207 16.4519 19.2142C16.4534 19.2109 16.4546 19.2081 16.4557 19.2058C16.4562 19.2047 16.4566 19.2037 16.457 19.2028C16.4572 19.2023 16.4574 19.2019 16.4576 19.2015C16.4577 19.2013 16.4578 19.201 16.4579 19.2009C16.458 19.2007 16.4581 19.2004 16 19C15.5419 18.7996 15.542 18.7994 15.5421 18.7991C15.5422 18.7991 15.5423 18.7988 15.5423 18.7987C15.5424 18.7984 15.5425 18.7982 15.5426 18.798C15.5428 18.7976 15.543 18.7972 15.543 18.7971C15.5432 18.7967 15.5432 18.7968 15.5429 18.7973C15.5425 18.7983 15.5411 18.8012 15.539 18.8056C15.5347 18.8146 15.527 18.8302 15.5157 18.8514C15.4932 18.8938 15.4565 18.9586 15.4042 19.0382C15.2994 19.1979 15.1341 19.4142 14.897 19.631C14.4295 20.0584 13.6713 20.5 12.5 20.5V21.5Z" fill="black"/>
</svg>