<svg width="25" height="25" viewBox="0 0 25 25" fill="none" xmlns="http://www.w3.org/2000/svg">
<g opacity="0.3">
<circle cx="12.5" cy="12.5" r="11" stroke="black"/>
<path d="M9.5 10.5C9.5 11.7174 9.38995 12.8043 9.21901 13.5735C9.14954 13.8861 9.07378 14.1287 9 14.3008C8.92622 14.1287 8.85046 13.8861 8.78099 13.5735C8.61005 12.8043 8.5 11.7174 8.5 10.5C8.5 9.28262 8.61005 8.19571 8.78099 7.42648C8.85046 7.11388 8.92622 6.87125 9 6.69922C9.07378 6.87125 9.14954 7.11388 9.21901 7.42648C9.38995 8.19571 9.5 9.28262 9.5 10.5Z" stroke="black"/>
<path d="M16.5 10.5C16.5 11.7174 16.39 12.8043 16.219 13.5735C16.1495 13.8861 16.0738 14.1287 16 14.3008C15.9262 14.1287 15.8505 13.8861 15.781 13.5735C15.61 12.8043 15.5 11.7174 15.5 10.5C15.5 9.28262 15.61 8.19571 15.781 7.42648C15.8505 7.11388 15.9262 6.87125 16 6.69922C16.0738 6.87125 16.1495 7.11388 16.219 7.42648C16.39 8.19571 16.5 9.28262 16.5 10.5Z" stroke="black"/>
<path d="M12.5 19.5C11.4027 19.5 10.3873 19.0159 9.63869 18.3902C9.26609 18.0787 8.97214 17.7422 8.77506 17.4336C8.57032 17.1129 8.5 16.8698 8.5 16.7365C8.5 16.7078 8.50333 16.6909 8.50557 16.6827C8.50766 16.6751 8.50947 16.6723 8.51003 16.6714C8.51071 16.6704 8.51353 16.6662 8.52205 16.6591C8.53104 16.6516 8.54716 16.6403 8.57411 16.6271C8.70019 16.5651 8.93771 16.518 9.33519 16.5044C9.71919 16.4912 10.1835 16.5098 10.7268 16.5333C10.7493 16.5343 10.7719 16.5353 10.7946 16.5362C11.3136 16.5588 11.8925 16.5839 12.5 16.5839C13.1075 16.5839 13.6864 16.5588 14.2054 16.5362C14.2281 16.5353 14.2507 16.5343 14.2732 16.5333C14.8165 16.5098 15.2808 16.4912 15.6648 16.5044C16.0623 16.518 16.2998 16.5651 16.4259 16.6271C16.4528 16.6403 16.469 16.6516 16.478 16.6591C16.4865 16.6662 16.4893 16.6704 16.49 16.6714L16.49 16.6714C16.4905 16.6723 16.4923 16.6751 16.4944 16.6827C16.4967 16.6909 16.5 16.7078 16.5 16.7365C16.5 16.8698 16.4297 17.1129 16.2249 17.4336C16.0279 17.7422 15.7339 18.0787 15.3613 18.3902C14.6127 19.0159 13.5973 19.5 12.5 19.5Z" stroke="black"/>
</g>
</svg>