<svg width="1366" height="444" viewBox="0 0 1366 444" fill="none" xmlns="http://www.w3.org/2000/svg">
<path fill-rule="evenodd" clip-rule="evenodd" d="M1228.35 1.16648C1276.09 -5.28772 1323.19 15.92 1362.96 43.1023C1403.64 70.9002 1439.81 107.893 1453.7 155.164C1467.38 201.741 1451.92 249.986 1437.36 296.299C1422.66 343.074 1410.54 395.816 1369.58 422.777C1329.15 449.394 1276.73 435.657 1228.35 433.894C1182.04 432.207 1134.13 436.592 1094.4 412.75C1052.59 387.658 1018.99 347.624 1006.18 300.573C993.679 254.648 1005.13 205.355 1026.33 162.744C1045.5 124.229 1084.22 103.114 1117.81 76.2433C1153.47 47.7251 1183.1 7.28316 1228.35 1.16648Z" fill="#FFE1CD"/>
<path fill-rule="evenodd" clip-rule="evenodd" d="M154.342 17.3824C197.125 13.5773 242.14 16.5351 277.946 40.2272C314.568 64.4594 334.999 105.396 349.793 146.707C364.978 189.115 374.265 234.23 363.036 277.849C351.34 323.284 323.387 362.762 286.65 391.997C248.661 422.227 202.898 442.567 154.342 443.922C104.89 445.303 56.8737 428.159 16.549 399.537C-24.0926 370.69 -58.4551 331.485 -71.7018 283.479C-84.6224 236.656 -77.0817 185.359 -54.4084 142.392C-33.8242 103.383 7.89616 83.5538 45.7619 60.8781C80.0455 40.3475 114.525 20.9239 154.342 17.3824Z" fill="#E1F0FA"/>
</svg>